<svg id="Layer_1" data-name="Layer 1" xmlns="http://www.w3.org/2000/svg" viewBox="0 0 99.06 67.34"><defs><style>.cls-1,.cls-2{fill:#fff;}.cls-2{font-size:12.79px;font-family:Roboto-Regular, Roboto;}.cls-3{letter-spacing:-0.01em;}</style></defs><polygon class="cls-1" points="80.27 22.11 66.19 38.04 81.51 37.39 96.83 36.75 95.59 21.47 94.34 6.18 80.27 22.11"/><path class="cls-1" d="M3.7,64.54c-.26-5-.63-10-.7-15.1A74.69,74.69,0,0,1,4.28,33.88l.45-2c.16-.66.36-1.32.53-2s.42-1.34.63-2,.48-1.35.78-2a32.84,32.84,0,0,1,4.61-7.74,35.91,35.91,0,0,1,6.89-6.52A40.52,40.52,0,0,1,26.56,7,49,49,0,0,1,44.64,3.39a60.65,60.65,0,0,1,8.75.51,55.14,55.14,0,0,1,8.39,1.84,67,67,0,0,1,14.81,6.74c4.5,2.67,8.63,5.53,12.73,8.24l5.05,3.35L84.28,34.84,79.74,31c-7.5-6.43-14.35-12.85-22.87-16.53a43.12,43.12,0,0,0-6.66-2.26A49.35,49.35,0,0,0,43,11,39.09,39.09,0,0,0,28,12.53a31,31,0,0,0-13.2,8,29,29,0,0,0-4.56,6.3c-.33.56-.58,1.15-.87,1.73s-.54,1.16-.75,1.78S8.18,31.6,8,32.22l-.61,1.86A76,76,0,0,0,4.58,49.25C4.12,54.34,4,59.44,3.7,64.54Z"/><text class="cls-2" transform="translate(56.91 62.64)">Li<tspan class="cls-3" x="9.99" y="0">k</tspan><tspan x="16.35" y="0">e</tspan></text></svg>