<?xml version="1.0" encoding="UTF-8"?>
<svg id="Layer_2" data-name="Layer 2" xmlns="http://www.w3.org/2000/svg" viewBox="0 0 15.33 12.47">
  <defs>
    <style>
      .cls-1 {
        fill: #fff;
      }

      .cls-2 {
        stroke-width: .33px;
      }

      .cls-2, .cls-3, .cls-4 {
        fill: none;
        stroke: #272425;
        stroke-linecap: round;
        stroke-linejoin: round;
      }

      .cls-3 {
        stroke-dasharray: 1.86 .93;
      }

      .cls-3, .cls-4 {
        stroke-width: .22px;
      }
    </style>
  </defs>
  <g id="BACKGROUND">
    <g>
      <g>
        <path d="M11.69,6.6c.76.55.87,1.72.73,2.58-.34,2.12-2.33,3.33-4.39,3.29-1.32-.03-2.53-.59-3.66-1.21-.54-.3-1.16-.54-1.29-1.22-.04-.83-.24-1.7-.27-2.53,0-.26.07-.45.37-.44l4.82,2.06c.19.15.1.44-.15.45l-4.54-1.93.25,2.36c.13.47.9.71,1.32.81,1.24.29,2.65.15,3.76-.48,1.86-1.06,1.8-3.25.11-4.45-.54-.38-1.14-.56-1.72-.85-.14-.07-.26-.11-.26-.29,0-.2.21-.28.38-.19,1.34.62,2.73,1.13,4.06,1.77.17.08.32.15.47.26ZM5.92,11.48c.59.23,1.19.41,1.82.47,1.85.16,3.75-.79,4.16-2.7.17-.77.11-1.94-.67-2.37l-1.39-.6c.78.92.9,2.31.27,3.34-.86,1.39-2.59,1.82-4.13,1.84-.02,0-.07,0-.06.02Z"/>
        <path d="M11.94,4.6l-.21-2.02c-.04-.41-.81-.69-1.15-.79-.96-.28-1.92-.23-2.86.13-2.25.86-2.96,3.22-.76,4.67.57.38,1.2.56,1.8.86.08.04.19.08.22.17.05.18-.06.35-.25.33-1.58-.64-3.13-1.36-4.68-2.07-.98-.58-1.05-2.08-.74-3.05C3.85,1.13,5.55.01,7.32,0c1.59,0,2.95.95,4.28,1.7.67.38.61.95.69,1.61.06.51.15,1.04.17,1.55,0,.23-.17.4-.4.33-1.24-.57-2.51-1.07-3.76-1.62-.12-.05-.44-.18-.52-.26-.17-.19,0-.45.24-.4l3.92,1.68ZM9.56,1.12c-1.03-.61-2.29-.81-3.44-.43-1.26.41-2.26,1.47-2.46,2.8-.1.67,0,1.54.59,1.95l1.47.67c-.05-.09-.12-.17-.17-.25-.84-1.36-.3-2.92.92-3.82.81-.58,1.86-.91,2.85-.93.08,0,.16.02.23.01Z"/>
        <path class="cls-1" d="M5.92,11.48s.04-.02.06-.02c1.54-.02,3.27-.44,4.13-1.84.64-1.03.51-2.42-.27-3.34l1.39.6c.78.43.83,1.6.67,2.37-.41,1.91-2.32,2.86-4.16,2.7-.63-.06-1.23-.24-1.82-.47Z"/>
        <g>
          <path class="cls-4" d="M4.3,4.6c-.02-.28,0-.56.05-.83"/>
          <path class="cls-3" d="M4.64,2.89c.34-.7.91-1.28,1.62-1.61"/>
          <path class="cls-4" d="M6.69,1.1c.26-.08.53-.13.82-.15"/>
        </g>
        <g>
          <path class="cls-4" d="M11.13,7.35c.07.28.1.55.09.83"/>
          <path class="cls-3" d="M11.09,9.1c-.21.75-.68,1.41-1.32,1.86"/>
          <path class="cls-4" d="M9.37,11.21c-.24.13-.5.22-.78.29"/>
        </g>
      </g>
      <g>
        <line class="cls-2" x1="13.33" y1="4.46" x2="13.33" y2="7.01"/>
        <line class="cls-2" x1="14.25" y1="4.85" x2="14.25" y2="6.62"/>
        <line class="cls-2" x1="15.16" y1="5.24" x2="15.16" y2="6.23"/>
      </g>
      <g>
        <line class="cls-2" x1="1.95" y1="4.46" x2="1.95" y2="7.01"/>
        <line class="cls-2" x1="1.03" y1="4.85" x2="1.03" y2="6.62"/>
      </g>
      <line class="cls-2" x1=".16" y1="5.24" x2=".16" y2="6.23"/>
    </g>
  </g>
</svg>