<?xml version="1.0" encoding="UTF-8"?>
<svg id="Layer_1" data-name="Layer 1" xmlns="http://www.w3.org/2000/svg" xmlns:xlink="http://www.w3.org/1999/xlink" viewBox="0 0 92.59 91.62">
  <defs>
    <style>
      .cls-1 {
        fill: url(#linear-gradient-2);
      }

      .cls-2 {
        fill: #fff;
      }

      .cls-3 {
        clip-path: url(#clippath-1);
      }

      .cls-4 {
        filter: url(#drop-shadow-1);
      }

      .cls-5 {
        fill: #939393;
      }

      .cls-6 {
        fill: #efefef;
      }

      .cls-7 {
        fill: #00111b;
      }

      .cls-8 {
        clip-path: url(#clippath-2);
      }

      .cls-9 {
        fill: url(#linear-gradient);
      }
    </style>
    <clipPath id="clippath-1">
      <path class="cls-2" d="M89.61.02C88.36.24,2.93,15.3,1.67,15.53c-.34.06-.63.25-.81.52-.18.26-.27.6-.21.94.18,1.03,1.32,7.49,1.5,8.53.06.34.25.63.52.81.26.18.6.27.94.21,1.26-.22,86.69-15.29,87.94-15.51.34-.06.63-.25.81-.52.18-.26.27-.6.21-.94-.18-1.03-1.32-7.49-1.5-8.53-.06-.34-.25-.63-.52-.81-.26-.18-.6-.27-.94-.21Z"/>
    </clipPath>
    <linearGradient id="linear-gradient" x1="1.9" y1="-22.32" x2="84.98" y2="60.75" gradientTransform="translate(-5.05 37.79) rotate(-10)" gradientUnits="userSpaceOnUse">
      <stop offset="0" stop-color="#bfbfbf"/>
      <stop offset=".04" stop-color="#bfbfbf"/>
      <stop offset=".39" stop-color="#fff"/>
      <stop offset=".4" stop-color="#fbfbfb"/>
      <stop offset=".43" stop-color="#ededed"/>
      <stop offset=".47" stop-color="#e5e5e5"/>
      <stop offset=".54" stop-color="#e3e3e3"/>
      <stop offset=".67" stop-color="#e4e4e4"/>
      <stop offset=".72" stop-color="#ebebeb"/>
      <stop offset=".75" stop-color="#f7f7f7"/>
      <stop offset=".77" stop-color="#fff"/>
      <stop offset=".89" stop-color="#fff"/>
      <stop offset=".89" stop-color="#fbfbfb"/>
      <stop offset=".92" stop-color="#ededed"/>
      <stop offset=".95" stop-color="#e5e5e5"/>
      <stop offset="1" stop-color="#e3e3e3"/>
    </linearGradient>
    <filter id="drop-shadow-1" x="-5.41" y="20.16" width="111.64" height="24" filterUnits="userSpaceOnUse">
      <feOffset dx="0" dy="2"/>
      <feGaussianBlur result="blur" stdDeviation="2"/>
      <feFlood flood-color="#000" flood-opacity=".25"/>
      <feComposite in2="blur" operator="in"/>
      <feComposite in="SourceGraphic"/>
    </filter>
    <clipPath id="clippath-2">
      <path class="cls-2" d="M91.19,24.38H1.89c-.35,0-.66.14-.89.37s-.37.54-.37.89v8.66c0,.35.14.66.37.89s.54.37.89.37h89.3c.35,0,.66-.14.89-.37s.37-.54.37-.89v-8.66c0-.35-.14-.66-.37-.89s-.54-.37-.89-.37Z"/>
    </clipPath>
    <linearGradient id="linear-gradient-2" x1=".26" y1="23.14" x2="83.34" y2="106.22" gradientTransform="matrix(1,0,0,1,0,0)" xlink:href="#linear-gradient"/>
  </defs>
  <path class="cls-2" d="M87.15,91.62H5.92c-1.12,0-2.13-.45-2.86-1.18-.73-.73-1.18-1.74-1.18-2.86v-54.03h89.31v54.03c0,1.12-.45,2.13-1.18,2.86-.73.73-1.74,1.18-2.86,1.18Z"/>
  <g>
    <g>
      <path class="cls-2" d="M89.61.02C88.36.24,2.93,15.3,1.67,15.53c-.34.06-.63.25-.81.52-.18.26-.27.6-.21.94.18,1.03,1.32,7.49,1.5,8.53.06.34.25.63.52.81.26.18.6.27.94.21,1.26-.22,86.69-15.29,87.94-15.51.34-.06.63-.25.81-.52.18-.26.27-.6.21-.94-.18-1.03-1.32-7.49-1.5-8.53-.06-.34-.25-.63-.52-.81-.26-.18-.6-.27-.94-.21Z"/>
      <g class="cls-3">
        <g>
          <polygon class="cls-9" points="11.92 26.35 .94 28.29 -10.2 15.68 .78 13.74 11.92 26.35"/>
          <polygon class="cls-5" points="33.87 22.48 22.9 24.42 11.75 11.81 22.73 9.87 33.87 22.48"/>
          <polygon class="cls-5" points="55.83 18.61 44.85 20.55 33.71 7.93 44.69 6 55.83 18.61"/>
          <polygon class="cls-5" points="77.78 14.74 66.81 16.68 55.67 4.06 66.64 2.13 77.78 14.74"/>
          <polygon class="cls-5" points="99.74 10.87 88.76 12.8 77.62 .19 88.6 -1.74 99.74 10.87"/>
        </g>
      </g>
    </g>
    <g class="cls-4">
      <g>
        <path class="cls-2" d="M91.19,24.38H1.89c-.35,0-.66.14-.89.37s-.37.54-.37.89v8.66c0,.35.14.66.37.89s.54.37.89.37h89.3c.35,0,.66-.14.89-.37s.37-.54.37-.89v-8.66c0-.35-.14-.66-.37-.89s-.54-.37-.89-.37Z"/>
        <g class="cls-8">
          <g>
            <polygon class="cls-1" points="17.06 37.15 5.91 37.15 -2.87 22.79 8.27 22.79 17.06 37.15"/>
            <polygon class="cls-5" points="39.35 37.15 28.2 37.15 19.42 22.79 30.57 22.79 39.35 37.15"/>
            <polygon class="cls-5" points="61.64 37.15 50.5 37.15 41.71 22.79 52.86 22.79 61.64 37.15"/>
            <polygon class="cls-5" points="83.94 37.15 72.79 37.15 64.01 22.79 75.16 22.79 83.94 37.15"/>
            <polygon class="cls-5" points="106.23 37.15 95.09 37.15 86.3 22.79 97.45 22.79 106.23 37.15"/>
          </g>
        </g>
      </g>
    </g>
    <path class="cls-6" d="M24.39,36.38H1.91c-.53,0-1-.21-1.35-.56-.34-.34-.56-.82-.56-1.35v-18.36c0-.53.21-1,.56-1.35.34-.34.82-.56,1.35-.56h4.13c5.59,0,10.66,2.27,14.33,5.93s5.93,8.73,5.93,14.33c0,.53-.21,1-.56,1.35-.34.34-.82.56-1.35.56Z"/>
  </g>
  <path class="cls-7" d="M67.81,44.53c.42,0,.43,0,.33.41-.3,1.27-.55,2.57-1.15,3.75-.57,1.12-1.52,1.7-2.76,1.84-.6.07-1.2.04-1.81.03-5.81-.07-11.63-.05-17.44-.02-1.47,0-2.94.02-4.36.43-3.8,1.1-6.62,3.39-8.37,6.96-1.5,3.06-1.68,6.24-.74,9.48.49,1.7,1.36,3.21,2.52,4.56,1.8,2.09,4.02,3.53,6.7,4.21,2.96.75,5.83.49,8.62-.75,2.48-1.1,4.37-2.85,5.78-5.15.64-1.04,1.04-2.17,1.34-3.34.09-.34-.12-.31-.33-.31-2.95,0-5.91,0-8.86,0-4.03,0-8.06,0-12.09,0q-.5,0-.37-.47c.47-1.75.94-3.49,1.4-5.24.07-.26.18-.35.45-.35,2.72-.04,5.43-.06,8.15,0,.91.02,1.15-.17,1.38-1.07.48-1.85.96-3.7,1.43-5.56.08-.3.21-.39.51-.38,1.8.01,3.59,0,5.39,0,.48,0,.49.01.37.48-.5,1.93-.99,3.87-1.49,5.8-.17.68-.14.73.58.73,2.33,0,4.65-.02,6.98-.02,1.37,0,2.61.92,2.94,2.18.11.41.07.82.05,1.23-.1,2-.31,3.98-.99,5.88-1.26,3.49-3.29,6.44-6.21,8.75-2.82,2.22-6.01,3.51-9.56,3.94-2.84.34-5.61.09-8.31-.84-3.74-1.29-6.83-3.48-9.16-6.67-3.17-4.34-4.48-9.2-3.58-14.52.81-4.85,3.21-8.83,7.07-11.91,2.56-2.05,5.47-3.33,8.7-3.9,1.46-.26,22.65-.15,26.89-.15Z"/>
</svg>