<?xml version="1.0" encoding="UTF-8"?>
<svg id="Layer_2" data-name="Layer 2" xmlns="http://www.w3.org/2000/svg" viewBox="0 0 17.42 14.16">
  <defs>
    <style>
      .cls-1 {
        stroke-width: .37px;
      }

      .cls-1, .cls-2, .cls-3 {
        fill: none;
        stroke: #000;
        stroke-linecap: round;
        stroke-linejoin: round;
      }

      .cls-2 {
        stroke-dasharray: 2.12 1.06;
      }

      .cls-2, .cls-3 {
        stroke-width: .25px;
      }
    </style>
  </defs>
  <g id="BACKGROUND">
    <g>
      <path d="M13.28,7.49c.86.63.98,1.96.82,2.93-.39,2.41-2.65,3.78-4.99,3.74-1.5-.03-2.87-.67-4.16-1.37-.62-.34-1.32-.61-1.46-1.39-.05-.94-.27-1.93-.3-2.87-.01-.3.08-.51.42-.49l5.48,2.34c.22.17.11.5-.17.51l-5.16-2.2.29,2.69c.14.54,1.02.81,1.5.92,1.41.33,3.01.18,4.27-.55,2.11-1.2,2.05-3.69.12-5.05-.61-.43-1.3-.64-1.96-.97-.16-.08-.3-.12-.29-.33,0-.23.24-.31.43-.21,1.52.71,3.1,1.29,4.62,2.01.2.09.36.17.53.3ZM6.72,13.04c.67.27,1.35.47,2.07.53,2.1.19,4.27-.9,4.73-3.07.19-.88.12-2.21-.76-2.69l-1.58-.68c.89,1.04,1.03,2.63.3,3.8-.98,1.58-2.95,2.06-4.69,2.09-.02,0-.08-.01-.07.03Z"/>
      <path d="M13.56,5.23l-.24-2.29c-.05-.47-.92-.79-1.3-.9-1.1-.32-2.18-.26-3.24.15-2.56.98-3.36,3.66-.87,5.31.65.43,1.36.64,2.05.97.09.04.22.09.25.19.05.2-.07.39-.29.38-1.79-.73-3.55-1.55-5.32-2.35-1.11-.66-1.19-2.36-.84-3.47C4.37,1.28,6.31.01,8.32,0c1.8-.01,3.36,1.07,4.86,1.93.76.43.69,1.08.78,1.83.07.58.18,1.18.19,1.76,0,.26-.19.45-.45.38-1.41-.64-2.86-1.21-4.27-1.84-.13-.06-.5-.2-.59-.29-.2-.21,0-.51.27-.45l4.46,1.91ZM10.86,1.28c-1.17-.7-2.6-.92-3.91-.49-1.43.47-2.57,1.67-2.79,3.18-.11.76,0,1.74.67,2.22l1.67.76c-.06-.1-.14-.19-.2-.29-.95-1.55-.34-3.32,1.05-4.34.92-.66,2.11-1.04,3.24-1.06.09,0,.18.02.27.01Z"/>
      <g>
        <path class="cls-3" d="M4.89,5.23c-.02-.32,0-.64.05-.94"/>
        <path class="cls-2" d="M5.27,3.28c.39-.8,1.04-1.45,1.84-1.83"/>
        <path class="cls-3" d="M7.6,1.25c.29-.09.61-.15.93-.17"/>
      </g>
      <g>
        <path class="cls-3" d="M12.64,8.35c.07.32.11.63.11.94"/>
        <path class="cls-2" d="M12.6,10.34c-.24.85-.77,1.61-1.5,2.12"/>
        <path class="cls-3" d="M10.65,12.73c-.27.14-.57.25-.89.33"/>
      </g>
      <g>
        <line class="cls-1" x1="15.15" y1="5.07" x2="15.15" y2="7.96"/>
        <line class="cls-1" x1="16.19" y1="5.51" x2="16.19" y2="7.52"/>
        <line class="cls-1" x1="17.23" y1="5.95" x2="17.23" y2="7.08"/>
      </g>
      <g>
        <line class="cls-1" x1="2.21" y1="5.07" x2="2.21" y2="7.96"/>
        <line class="cls-1" x1="1.17" y1="5.51" x2="1.17" y2="7.52"/>
      </g>
      <line class="cls-1" x1=".19" y1="5.95" x2=".19" y2="7.08"/>
    </g>
  </g>
</svg>