<?xml version="1.0" encoding="UTF-8"?>
<svg id="Layer_2" data-name="Layer 2" xmlns="http://www.w3.org/2000/svg" viewBox="0 0 15.33 12.46">
  <defs>
    <style>
      .cls-1 {
        stroke-dasharray: 1.86 .93;
      }

      .cls-1, .cls-2, .cls-3 {
        fill: none;
        stroke-linecap: round;
        stroke-linejoin: round;
      }

      .cls-1, .cls-3 {
        stroke: #fff;
        stroke-width: .22px;
      }

      .cls-2 {
        stroke: #272425;
        stroke-width: .33px;
      }
    </style>
  </defs>
  <g id="BACKGROUND">
    <g>
      <g>
        <path d="M11.69,6.59c-.15-.11-.3-.18-.47-.26-1.33-.64-2.72-1.15-4.06-1.77-.17-.09-.38-.02-.38.19,0,.18.12.22.26.29.57.29,1.18.47,1.72.85,1.69,1.2,1.74,3.39-.11,4.45-1.12.64-2.52.77-3.76.48-.42-.1-1.2-.33-1.32-.81l-.25-2.36,4.54,1.93c.24,0,.34-.3.15-.45l-4.82-2.06c-.3-.01-.38.17-.37.44.02.82.22,1.69.26,2.52.13.69.74.93,1.29,1.23,1.13.61,2.34,1.18,3.66,1.2,2.06.04,4.04-1.16,4.39-3.29.13-.85.03-2.03-.73-2.58ZM11.9,9.25c-.41,1.91-2.32,2.86-4.16,2.7-.64-.06-1.23-.24-1.82-.47-.01-.04.04-.03.06-.03,1.53-.02,3.27-.44,4.13-1.83.63-1.03.51-2.43-.27-3.35l1.39.61c.78.42.84,1.6.67,2.37Z"/>
        <path d="M12.29,3.3c-.08-.66-.02-1.23-.69-1.61C10.28.94,8.91,0,7.33,0c-1.77.01-3.48,1.12-4.02,2.83-.31.98-.25,2.48.73,3.06,1.56.7,3.11,1.42,4.69,2.06.19.02.29-.15.25-.33-.03-.09-.14-.13-.22-.17-.6-.3-1.23-.48-1.8-.86-2.2-1.45-1.48-3.81.76-4.67.94-.36,1.9-.41,2.86-.13.34.1,1.1.38,1.15.79l.21,2.02-3.92-1.69c-.24-.04-.41.22-.24.4.07.08.4.21.52.26,1.24.56,2.51,1.06,3.76,1.62.23.07.4-.1.4-.33-.02-.51-.12-1.05-.17-1.56ZM9.32,1.11c-.99.02-2.04.35-2.84.93-1.23.89-1.76,2.45-.93,3.82.06.08.13.16.17.25l-1.47-.67c-.59-.42-.69-1.28-.59-1.95.19-1.33,1.2-2.39,2.46-2.8,1.15-.38,2.41-.18,3.44.43-.08.01-.16-.01-.24-.01Z"/>
        <path d="M9.56,1.12c-.08.01-.16-.01-.24-.01-.99.02-2.04.35-2.84.93-1.23.89-1.76,2.45-.93,3.82.06.08.13.16.17.25l-1.47-.67c-.59-.42-.69-1.28-.59-1.95.19-1.33,1.2-2.39,2.46-2.8,1.15-.38,2.41-.18,3.44.43Z"/>
        <path d="M11.9,9.25c-.41,1.91-2.32,2.86-4.16,2.7-.64-.06-1.23-.24-1.82-.47-.01-.04.04-.03.06-.03,1.53-.02,3.27-.44,4.13-1.83.63-1.03.51-2.43-.27-3.35l1.39.61c.78.42.84,1.6.67,2.37Z"/>
        <g>
          <path class="cls-3" d="M4.3,4.6c-.02-.28,0-.56.05-.83"/>
          <path class="cls-1" d="M4.64,2.88c.34-.7.91-1.28,1.62-1.61"/>
          <path class="cls-3" d="M6.69,1.1c.26-.08.53-.13.82-.15"/>
        </g>
        <g>
          <path class="cls-3" d="M11.13,7.35c.07.28.1.55.09.83"/>
          <path class="cls-1" d="M11.09,9.1c-.21.75-.68,1.41-1.32,1.86"/>
          <path class="cls-3" d="M9.37,11.2c-.24.13-.5.22-.78.29"/>
        </g>
      </g>
      <g>
        <line class="cls-2" x1="13.33" y1="4.46" x2="13.33" y2="7.01"/>
        <line class="cls-2" x1="14.25" y1="4.85" x2="14.25" y2="6.62"/>
        <line class="cls-2" x1="15.16" y1="5.23" x2="15.16" y2="6.23"/>
      </g>
      <g>
        <line class="cls-2" x1="1.95" y1="4.46" x2="1.95" y2="7.01"/>
        <line class="cls-2" x1="1.03" y1="4.85" x2="1.03" y2="6.62"/>
      </g>
      <line class="cls-2" x1=".16" y1="5.23" x2=".16" y2="6.23"/>
    </g>
  </g>
</svg>