<?xml version="1.0" encoding="UTF-8"?>
<svg id="Layer_1" data-name="Layer 1" xmlns="http://www.w3.org/2000/svg" viewBox="0 0 226.91 223.35">
  <defs>
    <style>
      .cls-1 {
        fill: #231f20;
      }

      .cls-2 {
        stroke-width: 3px;
      }

      .cls-2, .cls-3, .cls-4 {
        fill: none;
        stroke: #231f20;
        stroke-miterlimit: 10;
      }

      .cls-3 {
        stroke-width: 5px;
      }

      .cls-4 {
        stroke-width: 7px;
      }
    </style>
  </defs>
  <path class="cls-3" d="M95.86,178.97l105.32-58.11c3.98-2.2,3.98-7.69,0-9.89l-104.14-57.39c-3.96-2.18-8.93.52-8.97,4.89l-1.18,115.51c-.05,4.42,4.96,7.21,8.97,5Z"/>
  <path class="cls-2" d="M53.31,179.24l105.32-58.11c3.98-2.2,3.98-7.69,0-9.89L54.49,53.85c-3.96-2.18-8.93.52-8.97,4.89l-1.18,115.51c-.05,4.42,4.96,7.21,8.97,5Z"/>
  <path class="cls-4" d="M164.9,22.1c35.27,17.86,59.08,53.48,58.5,94.21-.82,57.96-50.71,104.31-111.43,103.53S2.69,171.43,3.51,113.47c.56-39.74,24.19-74.02,58.57-91.4"/>
  <g>
    <path class="cls-1" d="M94.85,3.84h-16c-1.36,0-2.37.37-3.03,1.1-.66.73-.99,1.66-.99,2.78,0,1.01.27,1.84.81,2.5.54.66,1.42,1.11,2.62,1.34v3.84c-1.05,0-2.06-.2-3-.6-.95-.4-1.78-.96-2.49-1.66-.71-.7-1.27-1.52-1.67-2.46-.41-.93-.61-1.92-.61-2.95,0-1.15.19-2.2.56-3.15.38-.95.89-1.76,1.54-2.44.65-.68,1.42-1.2,2.3-1.57.89-.37,1.83-.56,2.82-.56h17.13v3.84ZM70.95,23.08h15.95c1.36,0,2.36-.37,3.03-1.1.66-.73.99-1.66.99-2.78,0-.98-.27-1.8-.81-2.46-.54-.66-1.42-1.11-2.62-1.34v-3.88c1.05,0,2.06.2,3,.6.95.4,1.78.96,2.49,1.66.71.71,1.27,1.52,1.69,2.46.42.94.63,1.92.63,2.96,0,1.15-.2,2.2-.59,3.15-.39.95-.91,1.76-1.56,2.44-.65.68-1.42,1.2-2.3,1.57-.89.37-1.83.56-2.82.56h-17.08v-3.84Z"/>
    <path class="cls-1" d="M105.02,4.96v21.96h-4.25V0h5.96l16,21.87V0h4.34v26.92h-5.74l-16.31-21.96Z"/>
    <path class="cls-1" d="M132.9,26.92V0h4.25v26.92h-4.25Z"/>
    <path class="cls-1" d="M142.98,26.92V0h17.53c1,0,1.93.21,2.8.63.87.42,1.64.99,2.3,1.73.66.73,1.19,1.6,1.58,2.61.39,1.01.59,2.08.59,3.23,0,1.04-.19,2.03-.57,2.98-.38.95-.9,1.79-1.56,2.52-.66.73-1.42,1.32-2.28,1.75-.86.43-1.79.65-2.78.65h-5.15v-3.84h4.61c.57,0,1.07-.13,1.49-.39.42-.26.77-.59,1.04-.99s.47-.85.59-1.34c.12-.49.18-.95.18-1.38,0-.46-.08-.94-.25-1.44-.17-.5-.39-.97-.68-1.4-.29-.43-.64-.78-1.06-1.06-.42-.27-.9-.41-1.45-.41h-12.7v23.08h-4.25Z"/>
  </g>
</svg>