<?xml version="1.0" encoding="UTF-8"?>
<svg id="Layer_1" data-name="Layer 1" xmlns="http://www.w3.org/2000/svg" viewBox="0 0 398 398">
  <defs>
    <style>
      .cls-1 {
        fill: #231f20;
      }

      .cls-2 {
        stroke-width: 3px;
      }

      .cls-2, .cls-3 {
        fill: none;
        stroke: #231f20;
        stroke-miterlimit: 10;
      }

      .cls-3 {
        stroke-width: 5px;
      }
    </style>
  </defs>
  <path class="cls-2" d="M291.37,192.19L96.02,79.4c-3.62-2.09-8.14.52-8.14,4.7v225.57c0,4.18,4.52,6.79,8.14,4.7l195.35-112.79c3.62-2.09,3.62-7.31,0-9.4Z"/>
  <path class="cls-3" d="M196,140.59l104.76-60.48c3.62-2.09,8.14.52,8.14,4.7v225.57c0,4.18-4.52,6.79-8.14,4.7l-195.35-112.79c-3.62-2.09-3.62-7.31,0-9.4l90.59-52.3"/>
  <circle class="cls-2" cx="199" cy="199" r="183.78"/>
  <circle class="cls-3" cx="199" cy="199" r="196.5"/>
  <g>
    <path class="cls-1" d="M180.08,188.29h-20.49c-1.74,0-3.03.49-3.88,1.48-.85.98-1.27,2.23-1.27,3.73,0,1.35.35,2.47,1.04,3.36.69.89,1.81,1.49,3.36,1.79v5.15c-1.35,0-2.63-.27-3.85-.81-1.22-.54-2.28-1.28-3.18-2.23-.91-.95-1.62-2.05-2.14-3.3-.52-1.25-.78-2.58-.78-3.97,0-1.54.24-2.95.72-4.23.48-1.27,1.14-2.36,1.97-3.27.83-.91,1.81-1.61,2.95-2.11,1.14-.5,2.34-.75,3.62-.75h21.94v5.15ZM149.45,214.11h20.44c1.74,0,3.03-.49,3.88-1.48.85-.98,1.27-2.23,1.27-3.73,0-1.31-.35-2.41-1.04-3.3-.69-.89-1.81-1.49-3.36-1.79v-5.21c1.35,0,2.63.27,3.85.81,1.22.54,2.28,1.28,3.18,2.23.91.95,1.63,2.05,2.17,3.3.54,1.25.81,2.58.81,3.97,0,1.54-.25,2.95-.75,4.23-.5,1.27-1.17,2.36-2,3.27-.83.91-1.81,1.61-2.95,2.11-1.14.5-2.34.75-3.62.75h-21.88v-5.15Z"/>
    <path class="cls-1" d="M193.09,189.8v29.47h-5.44v-36.13h7.64l20.49,29.35v-29.35h5.56v36.13h-7.35l-20.9-29.47Z"/>
    <path class="cls-1" d="M228.82,219.26v-36.13h5.44v36.13h-5.44Z"/>
    <path class="cls-1" d="M241.73,219.26v-36.13h22.46c1.27,0,2.47.28,3.59.84,1.12.56,2.1,1.33,2.95,2.32.85.98,1.52,2.15,2.03,3.5.5,1.35.75,2.8.75,4.34,0,1.39-.24,2.72-.72,3.99-.48,1.27-1.15,2.4-2,3.39-.85.98-1.82,1.77-2.92,2.34-1.1.58-2.29.87-3.56.87h-6.6v-5.15h5.91c.73,0,1.37-.17,1.91-.52.54-.35.98-.79,1.33-1.33.35-.54.6-1.14.75-1.79.15-.66.23-1.27.23-1.85,0-.62-.11-1.26-.32-1.94-.21-.67-.5-1.3-.87-1.88-.37-.58-.82-1.05-1.36-1.42-.54-.37-1.16-.55-1.85-.55h-16.27v30.97h-5.44Z"/>
  </g>
</svg>