<?xml version="1.0" encoding="UTF-8"?>
<svg id="Layer_2" data-name="Layer 2" xmlns="http://www.w3.org/2000/svg" viewBox="0 0 15.41 18.45">
  <defs>
    <style>
      .cls-1 {
        fill: none;
        stroke: #272425;
        stroke-linecap: round;
        stroke-linejoin: round;
        stroke-width: .5px;
      }

      .cls-2 {
        fill: #272425;
      }
    </style>
  </defs>
  <g id="BACKGROUND">
    <g>
      <path class="cls-1" d="M4.61,16.4L.65,11.92c-.54-.54-.54-1.41,0-1.94.54-.54,1.41-.54,1.94,0l1.54,1.54V1.62c0-.76.62-1.37,1.37-1.37s1.37.62,1.37,1.37v5.15c0-.76.62-1.37,1.37-1.37s1.37.62,1.37,1.37v1.35c0-.76.62-1.37,1.37-1.37s1.37.62,1.37,1.37v1.5c0-.76.62-1.37,1.37-1.37s1.37.62,1.37,1.37v3.11c0,.37-.07.73-.2,1.08l-1.12,2.91c-.13.34-.2.71-.2,1.08,0,.21-.17.39-.39.39h-7.52c-.19,0-.35-.14-.38-.33-.09-.54-.34-1.05-.71-1.47h0Z"/>
      <g>
        <g>
          <line class="cls-1" x1="15.16" y1="4.12" x2="11.06" y2="4.12"/>
          <polygon class="cls-2" points="12.05 3.28 11.2 4.12 12.05 4.97 11.33 4.97 10.48 4.12 11.33 3.28 12.05 3.28"/>
        </g>
        <g>
          <line class="cls-1" x1="9.19" y1="1.72" x2="13.29" y2="1.72"/>
          <polygon class="cls-2" points="12.3 2.56 13.14 1.72 12.3 .87 13.02 .87 13.86 1.72 13.02 2.56 12.3 2.56"/>
        </g>
      </g>
    </g>
  </g>
</svg>