<?xml version="1.0" encoding="UTF-8"?>
<svg id="Layer_1" data-name="Layer 1" xmlns="http://www.w3.org/2000/svg" viewBox="0 0 512 512">
  <defs>
    <style>
      .cls-1 {
        fill: none;
      }

      .cls-2 {
        fill-rule: evenodd;
      }
    </style>
  </defs>
  <rect class="cls-1" width="512" height="512"/>
  <path class="cls-2" d="M240.92,70.25c8.33-8.33,21.84-8.33,30.17,0l64,64c8.33,8.33,8.33,21.84,0,30.17-8.33,8.33-21.84,8.33-30.17,0l-27.58-27.58v183.16c0,11.78-9.55,21.33-21.33,21.33s-21.33-9.55-21.33-21.33v-183.16l-27.58,27.58c-8.33,8.33-21.84,8.33-30.17,0-8.33-8.33-8.33-21.84,0-30.17l64-64ZM127.32,277.33h51.88c11.78,0,21.33,9.55,21.33,21.33s-9.55,21.33-21.33,21.33h-51.2c-10.23,0-16.84.01-21.89.36-4.86.33-6.72.9-7.6,1.27-5.23,2.17-9.38,6.32-11.55,11.55-.37.89-.94,2.74-1.27,7.61-.34,5.05-.36,11.66-.36,21.89s.01,16.84.36,21.89c.33,4.86.9,6.72,1.27,7.61,2.17,5.23,6.32,9.38,11.55,11.55.89.37,2.74.93,7.6,1.27,5.06.35,11.66.36,21.89.36h256c10.23,0,16.84-.01,21.89-.36,4.86-.33,6.72-.9,7.61-1.27,5.23-2.17,9.38-6.32,11.55-11.55.37-.89.93-2.74,1.27-7.61.35-5.05.36-11.66.36-21.89s-.01-16.84-.36-21.89c-.33-4.86-.9-6.72-1.27-7.61-2.17-5.23-6.32-9.38-11.55-11.55-.89-.37-2.74-.93-7.61-1.27-5.05-.35-11.66-.36-21.89-.36h-51.2c-11.78,0-21.33-9.55-21.33-21.33s9.55-21.33,21.33-21.33h51.88c9.36,0,17.43,0,24.12.45,7.04.48,14.07,1.54,21.03,4.42,15.68,6.49,28.14,18.95,34.63,34.64,2.88,6.95,3.94,13.99,4.42,21.03.45,6.68.45,14.76.45,24.12v1.37c0,9.36,0,17.43-.45,24.12-.48,7.04-1.54,14.07-4.42,21.03-6.49,15.68-18.95,28.14-34.63,34.63-6.95,2.88-13.99,3.94-21.03,4.42-6.68.45-14.76.45-24.12.45H127.32c-9.36,0-17.43,0-24.11-.45-7.04-.48-14.07-1.54-21.03-4.42-15.68-6.49-28.14-18.95-34.64-34.63-2.88-6.95-3.94-13.99-4.42-21.03-.46-6.68-.46-14.76-.46-24.12v-1.37c0-9.36,0-17.43.46-24.12.48-7.04,1.54-14.07,4.42-21.03,6.5-15.68,18.95-28.14,34.64-34.63,6.95-2.88,13.99-3.94,21.03-4.42,6.68-.45,14.76-.45,24.11-.45h0Z"/>
</svg>