<?xml version="1.0" encoding="UTF-8"?>
<svg id="Layer_2" data-name="Layer 2" xmlns="http://www.w3.org/2000/svg" viewBox="0 0 8.35 7.52">
  <defs>
    <style>
      .cls-1 {
        fill-rule: evenodd;
      }
    </style>
  </defs>
  <g id="OBJECTS">
    <g>
      <path class="cls-1" d="M3.88.12c.16-.16.43-.16.59,0l1.25,1.25c.16.16.16.43,0,.59-.16.16-.43.16-.59,0l-.54-.54v3.58c0,.23-.19.42-.42.42s-.42-.19-.42-.42V1.43l-.54.54c-.16.16-.43.16-.59,0-.16-.16-.16-.43,0-.59L3.88.12Z"/>
      <path class="cls-1" d="M1.66,4.18h1.02c.23,0,.42.19.42.42s-.19.42-.42.42h-1c-.2,0-.33,0-.43,0-.1,0-.13.02-.15.02-.1.04-.18.12-.23.23,0,.02-.02.05-.02.15,0,.1,0,.23,0,.43s0,.33,0,.43c0,.1.02.13.02.15.04.1.12.18.23.23.02,0,.05.02.15.02.1,0,.23,0,.43,0h5.01c.2,0,.33,0,.43,0,.1,0,.13-.02.15-.02.1-.04.18-.12.23-.23,0-.02.02-.05.02-.15,0-.1,0-.23,0-.43s0-.33,0-.43c0-.1-.02-.13-.02-.15-.04-.1-.12-.18-.23-.23-.02,0-.05-.02-.15-.02-.1,0-.23,0-.43,0h-1c-.23,0-.42-.19-.42-.42s.19-.42.42-.42h1.02c.18,0,.34,0,.47,0,.14,0,.28.03.41.09.31.13.55.37.68.68.06.14.08.27.09.41,0,.13,0,.29,0,.47v.03c0,.18,0,.34,0,.47,0,.14-.03.28-.09.41-.13.31-.37.55-.68.68-.14.06-.27.08-.41.09-.13,0-.29,0-.47,0H1.66c-.18,0-.34,0-.47,0-.14,0-.28-.03-.41-.09-.31-.13-.55-.37-.68-.68-.06-.14-.08-.27-.09-.41C0,6.2,0,6.04,0,5.86v-.03c0-.18,0-.34,0-.47,0-.14.03-.28.09-.41.13-.31.37-.55.68-.68.14-.06.27-.08.41-.09.13,0,.29,0,.47,0h0Z"/>
    </g>
  </g>
</svg>