<?xml version="1.0" encoding="UTF-8"?>
<svg id="Layer_2" data-name="Layer 2" xmlns="http://www.w3.org/2000/svg" viewBox="0 0 15 12.96">
  <g id="BACKGROUND">
    <path d="M13.83,1.26C13.09.49,12.09.04,11.02,0c-.53-.02-1.06.06-1.56.24-.19.07-.38.16-.57.25-.25.14-.48.3-.7.48-.17.14-.33.3-.47.47l-.25.25c-.36-.49-.82-.91-1.36-1.2C5.46.15,4.72-.02,3.98,0,2.91.04,1.91.49,1.17,1.26.42,2.04,0,3.05,0,4.12c0,.57.13,1.09.41,1.64.25.49.59.94.95,1.42l.03.04c.07.1.16.2.25.32-.13.39-.03.83.27,1.14.22.22.5.33.79.33.1,0,.19-.01.28-.04-.09.36.01.76.3,1.05.22.22.5.33.79.33.1,0,.2-.01.3-.04-.08.36.02.75.3,1.03.21.21.49.33.79.33.11,0,.21-.02.32-.04-.07.36.03.74.3,1.02.21.21.49.33.79.33s.58-.12.79-.33l.71-.71c.12-.12.2-.25.26-.4.11.04.23.06.35.06.29,0,.57-.11.79-.33.28-.28.38-.66.3-1.01.1.03.21.05.32.05.3,0,.58-.12.79-.33.28-.28.38-.68.3-1.04.09.02.19.04.29.04.29,0,.57-.11.79-.33.16-.16.27-.37.31-.59h0c.29-.3.53-.57.7-.81l.03-.04c.36-.48.7-.94.95-1.42.28-.55.41-1.07.41-1.64,0-1.07-.42-2.08-1.17-2.86ZM2.71,8.68c-.2,0-.41-.08-.56-.23-.31-.31-.31-.82,0-1.13l.82-.82c.16-.16.36-.23.56-.23s.41.08.56.23c.31.31.31.82,0,1.13l-.82.82c-.16.16-.36.23-.56.23ZM3.52,9.79c-.31-.31-.31-.82,0-1.13l.81-.81c.15-.15.35-.23.56-.23s.41.08.56.23c.31.31.31.82,0,1.13l-.81.81c-.31.31-.82.31-1.13,0ZM5.48,11.34c-.21,0-.41-.08-.56-.23-.31-.31-.31-.82,0-1.13l.77-.77c.16-.16.36-.23.56-.23s.41.08.56.23c.31.31.31.82,0,1.13l-.71.71-.06.06c-.15.15-.35.23-.56.23ZM8.16,11.69l-.71.71c-.15.15-.35.23-.56.23s-.41-.08-.56-.23c-.31-.31-.31-.82,0-1.13l.71-.71c.16-.16.36-.23.56-.23s.41.08.56.23c.31.31.31.82,0,1.13ZM12.35,8.4c-.31.31-.82.31-1.13,0l-.02-.02-2.49-2.49h0c-.06-.01-.13,0-.17.05h0s-.06.11-.04.17h0s.05.05.05.05c0,0,0,0,0,0l2.44,2.44c.31.31.31.82,0,1.13-.31.31-.82.31-1.13,0l-.06-.06h0s-1.07-1.07-1.07-1.07l-1.24-1.24c-.06-.06-.16-.06-.23,0h0c-.06.06-.06.16,0,.23l.11.11,2.2,2.2c.31.31.32.82.01,1.13-.23.23-.57.29-.85.19.02-.31-.09-.63-.32-.87-.21-.21-.49-.33-.79-.33-.09,0-.18.01-.27.03.02-.09.03-.18.03-.27,0-.3-.12-.58-.33-.79-.21-.21-.49-.33-.79-.33-.09,0-.18.01-.27.03.09-.37,0-.77-.29-1.06h0c-.29-.29-.69-.39-1.06-.29.09-.37,0-.77-.29-1.06-.44-.44-1.15-.44-1.58,0l-.82.82s-.08.09-.11.13c-.06-.07-.11-.13-.15-.2l-.03-.04c-.7-.93-1.3-1.74-1.3-2.87,0-2.06,1.62-3.72,3.67-3.8.05,0,.09,0,.14,0,1.24,0,2.41.6,3.11,1.61l-1.66,1.66c-.23.23-.36.54-.36.87s.13.64.36.87c.23.23.54.36.87.36.33,0,.65-.13.89-.37l1.53-1.53s.02,0,.03,0l3.45,3.45c.15.15.24.36.24.57,0,.21-.08.41-.23.57ZM13.38,6.99l-.03.04c-.12.16-.28.35-.46.55-.05-.21-.15-.4-.31-.55l-3.2-3.2c.61-.01,1.2-.25,1.64-.69.07-.06.06-.17,0-.23,0,0,0,0,0,0-.06-.06-.16-.05-.22,0-.47.45-1.12.66-1.76.57-.06,0-.12-.02-.18-.03-.05-.01-.1,0-.14.03l-.02.02-1.6,1.6c-.18.18-.42.28-.68.27-.22,0-.44-.1-.6-.25-.18-.17-.28-.41-.28-.66,0-.25.1-.48.28-.66l1.61-1.61.54-.54.45-.45c.29-.25.62-.45.97-.59.11-.05.22-.09.33-.12.41-.13.85-.19,1.29-.18,2.05.07,3.67,1.74,3.67,3.8,0,1.13-.6,1.94-1.3,2.87Z"/>
  </g>
</svg>