<?xml version="1.0" encoding="UTF-8"?>
<svg id="Layer_2" data-name="Layer 2" xmlns="http://www.w3.org/2000/svg" viewBox="0 0 14.19 15.51">
  <defs>
    <style>
      .cls-1 {
        stroke: #000;
        stroke-miterlimit: 10;
        stroke-width: .53px;
      }

      .cls-2 {
        fill: none;
        stroke: #272425;
        stroke-linecap: round;
        stroke-linejoin: round;
        stroke-width: .5px;
      }
    </style>
  </defs>
  <g id="BACKGROUND">
    <g>
      <path class="cls-2" d="M13.88,13.46c-1.05.89-2.34,1.52-3.72,1.73-1.88.25-3.75-.17-5.31-1.25"/>
      <path class="cls-2" d="M2.47,11.25c-1.02-1.86-1.15-4.15-.4-6.16C2.99,2.72,4.99.89,7.58.39c2.29-.42,4.63.13,6.3,1.65"/>
      <path class="cls-2" d="M4.85,13.94c-.56.66-1.39,1.09-2.32,1.09s-1.73-.4-2.28-1.04"/>
      <path class="cls-2" d="M2.47,11.25c-.26,1.23-1.1,2.24-2.22,2.73"/>
    </g>
    <path class="cls-1" d="M8.59,8c-.05-.83-1.18-1.29-1.5-2.49-.05-.2-.09-.45.04-.61.16-.19.45-.25.69-.12,1.93.92,3.86,1.85,5.79,2.77.03.02.25.14.31.41.07.33-.18.57-.19.58-1.98.95-3.97,1.91-5.95,2.86-.18.09-.31.04-.39,0-.26-.13-.3-.55-.31-.67-.09-1.11,1.58-1.7,1.52-2.73Z"/>
  </g>
</svg>