<?xml version="1.0" encoding="UTF-8"?>
<svg id="Layer_2" data-name="Layer 2" xmlns="http://www.w3.org/2000/svg" viewBox="0 0 16.01 15.26">
  <defs>
    <style>
      .cls-1 {
        stroke-dasharray: 1.1 2.21;
      }

      .cls-1, .cls-2 {
        fill: none;
        stroke: #272425;
        stroke-linecap: round;
        stroke-linejoin: round;
        stroke-width: .5px;
      }

      .cls-3 {
        stroke: #000;
        stroke-miterlimit: 10;
        stroke-width: .53px;
      }
    </style>
  </defs>
  <g id="BACKGROUND">
    <g>
      <path class="cls-3" d="M7.18,7.56c-.05-.83-1.18-1.29-1.5-2.49-.05-.2-.09-.45.04-.61.16-.19.45-.25.69-.12,1.93.92,3.86,1.85,5.79,2.77.03.02.25.14.31.41.07.33-.18.57-.19.58-1.98.95-3.97,1.91-5.95,2.86-.18.09-.31.04-.39,0-.26-.13-.3-.55-.31-.67-.09-1.11,1.58-1.7,1.52-2.73Z"/>
      <g>
        <g>
          <path class="cls-2" d="M13.03,1.81c.13.1.26.21.38.32"/>
          <path class="cls-1" d="M14.81,3.84c1.48,2.58,1.2,5.92-.6,8.35"/>
          <path class="cls-2" d="M13.5,13.02c-.12.12-.24.23-.36.34"/>
        </g>
        <path class="cls-2" d="M13.51,2.21c-.34-.31-2.6-2.3-5.78-1.9-2.54.32-4.07,1.96-4.48,2.42-.44.48-1.64,1.85-1.88,4.03-.17,1.52.21,2.77.55,3.56.37.85.39,1.83-.09,2.62,0,0-.01.02-.02.03-.53.86-1.31,1.2-1.57,1.3.19.11.87.5,1.77.36.81-.13,1.34-.61,1.61-.92.11-.13.3-.15.45-.06.75.52,2.63,1.59,5.14,1.33,2.44-.25,4.02-1.63,4.47-2.12"/>
      </g>
    </g>
  </g>
</svg>