<?xml version="1.0" encoding="UTF-8"?>
<svg id="Layer_1" data-name="Layer 1" xmlns="http://www.w3.org/2000/svg" xmlns:xlink="http://www.w3.org/1999/xlink" viewBox="0 0 1080 1201.35">
  <defs>
    <style>
      .cls-1 {
        opacity: .75;
      }

      .cls-1, .cls-2 {
        fill: #ebebeb;
      }

      .cls-3 {
        font-size: 31.46px;
      }

      .cls-3, .cls-4 {
        font-family: Code-Pro-LC, 'Code Pro LC';
      }

      .cls-5 {
        letter-spacing: -.02em;
      }

      .cls-6 {
        letter-spacing: -.02em;
      }

      .cls-7 {
        fill: #263238;
      }

      .cls-8 {
        fill: #dedcef;
      }

      .cls-9 {
        fill: #cecece;
        opacity: .3;
      }

      .cls-10 {
        letter-spacing: -.03em;
      }

      .cls-11 {
        fill: #fff;
      }

      .cls-12 {
        fill: #434142;
      }

      .cls-13 {
        fill: none;
      }

      .cls-14 {
        fill: #17153e;
        opacity: .1;
      }

      .cls-15 {
        fill: #8e8e8e;
      }

      .cls-16 {
        letter-spacing: 0em;
      }

      .cls-17 {
        clip-path: url(#clippath-1);
      }

      .cls-18 {
        letter-spacing: -.02em;
      }

      .cls-19 {
        letter-spacing: 0em;
      }

      .cls-20 {
        fill: #333031;
      }

      .cls-21 {
        letter-spacing: -.02em;
      }

      .cls-22 {
        fill: #e5e5e4;
      }

      .cls-23 {
        fill: #515151;
      }

      .cls-4 {
        font-size: 44.37px;
      }

      .cls-24 {
        letter-spacing: -.02em;
      }

      .cls-25 {
        clip-path: url(#clippath);
      }

      .cls-26 {
        letter-spacing: .02em;
      }

      .cls-27 {
        letter-spacing: 0em;
      }

      .cls-28 {
        letter-spacing: 0em;
      }

      .cls-29 {
        fill: #26a4a2;
      }
    </style>
    <clipPath id="clippath">
      <rect class="cls-13" x="258.68" y="431.98" width="333.32" height="351.9"/>
    </clipPath>
    <clipPath id="clippath-1">
      <rect class="cls-13" x="475.31" y="180.49" width="333.32" height="351.9"/>
    </clipPath>
  </defs>
  <g>
    <g>
      <g>
        <g>
          <rect class="cls-11" x="258.68" y="431.98" width="333.32" height="351.9" rx="4.78" ry="4.78"/>
          <path class="cls-22" d="M263.11,431.98h323.58c2.93,0,5.31,2.38,5.31,5.31v346.6h-333.32v-347.47c0-2.45,1.99-4.43,4.43-4.43Z"/>
          <circle class="cls-29" cx="455.82" cy="642.1" r="37.4" transform="translate(-270.8 945.56) rotate(-77.3)"/>
          <g class="cls-25">
            <polygon class="cls-15" points="441.96 669.14 514.72 596.39 634.47 716.14 441.96 716.14 441.96 669.14"/>
            <polygon class="cls-11" points="517.08 605.12 523.74 624.11 529.51 641.74 558.35 660.43 567.23 679.96 597.09 693.97 619.89 708.66 517.08 605.12"/>
            <g>
              <polygon class="cls-15" points="258.68 652.09 357.84 552.92 521.05 716.14 258.68 716.14 258.68 652.09"/>
              <rect class="cls-9" x="258.68" y="716.14" width="333.32" height="67.75"/>
              <polygon class="cls-11" points="361.06 564.82 355.51 594.42 370.14 590.71 378.01 614.74 417.31 640.21 380.85 664.97 429.42 666.83 470.12 685.92 501.19 705.94 361.06 564.82"/>
            </g>
            <g>
              <polygon class="cls-23" points="321.03 783.88 301.94 783.88 311.48 736.69 321.03 689.5 330.57 736.69 340.11 783.88 321.03 783.88"/>
              <polygon class="cls-23" points="258.41 783.88 239.32 783.88 248.86 736.69 258.41 689.5 267.95 736.69 277.49 783.88 258.41 783.88"/>
              <path class="cls-20" d="M284.34,783.88h-10.57c-7.94,0-13.9-7.28-12.32-15.06l9.92-49.06,12.97-64.12,12.97,64.12,12.97,64.12h-25.93Z"/>
              <polygon class="cls-20" points="349.6 783.88 328.13 783.88 338.86 730.79 349.6 677.7 360.34 730.79 371.07 783.88 349.6 783.88"/>
              <polygon class="cls-23" points="376.86 783.88 363.89 783.88 370.37 751.82 376.86 719.76 383.34 751.82 389.82 783.88 376.86 783.88"/>
              <polygon class="cls-20" points="395.76 783.88 380.39 783.88 388.08 745.87 395.76 707.85 403.45 745.87 411.14 783.88 395.76 783.88"/>
              <polygon class="cls-23" points="414.73 783.88 403.32 783.88 409.03 755.67 414.73 727.46 420.44 755.67 426.14 783.88 414.73 783.88"/>
              <polygon class="cls-20" points="428.62 783.88 418.39 783.88 423.51 758.6 428.62 733.32 433.73 758.6 438.84 783.88 428.62 783.88"/>
            </g>
            <g>
              <polygon class="cls-23" points="592.1 783.88 611.19 783.88 601.65 736.69 592.1 689.5 582.56 736.69 573.02 783.88 592.1 783.88"/>
              <polygon class="cls-12" points="654.73 783.88 673.81 783.88 664.27 736.69 654.73 689.5 645.18 736.69 635.64 783.88 654.73 783.88"/>
              <polygon class="cls-20" points="628.79 783.88 654.73 783.88 641.76 719.76 628.79 655.64 615.83 719.76 602.86 783.88 628.79 783.88"/>
              <polygon class="cls-20" points="562.39 783.88 582.71 783.88 572.55 733.63 562.39 683.38 552.22 733.63 542.06 783.88 562.39 783.88"/>
              <polygon class="cls-23" points="536.27 783.88 549.24 783.88 542.76 751.82 536.27 719.76 529.79 751.82 523.31 783.88 536.27 783.88"/>
              <polygon class="cls-20" points="519.02 783.88 536.06 783.88 527.54 741.77 519.02 699.66 510.51 741.77 501.99 783.88 519.02 783.88"/>
              <polygon class="cls-23" points="498.4 783.88 509.81 783.88 504.1 755.67 498.4 727.46 492.69 755.67 486.99 783.88 498.4 783.88"/>
              <polygon class="cls-20" points="484.51 783.88 494.74 783.88 489.62 758.6 484.51 733.32 479.4 758.6 474.29 783.88 484.51 783.88"/>
            </g>
          </g>
          <g>
            <path class="cls-8" d="M429.42,799.05c0,2.25-1.83,4.08-4.08,4.08s-4.08-1.83-4.08-4.08,1.83-4.08,4.08-4.08,4.08,1.83,4.08,4.08Z"/>
            <circle class="cls-8" cx="440" cy="799.05" r="4.08"/>
          </g>
        </g>
        <g>
          <circle class="cls-15" cx="306.83" cy="483.21" r="33.71" transform="translate(-264.16 443.09) rotate(-53.57)"/>
          <g>
            <path class="cls-11" d="M321.17,481.12c0,7.92-6.42,14.34-14.34,14.34s-14.34-6.42-14.34-14.34,6.42-14.34,14.34-14.34,14.34,6.42,14.34,14.34Z"/>
            <path class="cls-11" d="M332.86,499.52c-2.94-3.7-8.1-4.62-12.24-2.34-4.09,2.26-8.79,3.54-13.79,3.54s-9.7-1.29-13.79-3.54c-4.14-2.29-9.3-1.36-12.24,2.34l-1.97,2.47c6.05,9,16.33,14.93,27.99,14.93s21.94-5.93,27.99-14.93l-1.97-2.47Z"/>
          </g>
        </g>
      </g>
      <path class="cls-11" d="M258.68,532.5s20.82-2.66,32.29,17c0,0,11.03-1.42,14.74,7.1,0,0,20.1-3.49,30.14,7.86h-77.17v-31.96Z"/>
      <path class="cls-11" d="M344.3,536.28c10.05-11.36,30.14-7.86,30.14-7.86,3.71-8.52,14.74-7.1,14.74-7.1,9.52-17.9,28.52-16.1,28.52-16.1,0,0,17.04-.05,22.12,20.66,0,0,18.68-4.12,21.84,10.4h-117.36Z"/>
    </g>
    <g>
      <path class="cls-2" d="M980.69,862c-6.93,3.52-14.51,6.02-22.62,7.26-20.97,3.25-41.24-2.37-57-14.14-15.42-11.47-26.55-28.79-29.74-49.29-6.41-41.49,21.97-80.33,63.46-86.74,41.46-6.45,80.3,21.96,86.74,63.46,5.17,33.38-12.25,65.03-40.84,79.45Z"/>
      <g>
        <path class="cls-11" d="M970.2,787.5c-1.09,12.72-12.29,22.15-25.02,21.06-12.72-1.09-22.15-12.29-21.06-25.02,1.09-12.72,12.29-22.15,25.02-21.06,12.72,1.09,22.15,12.29,21.06,25.02Z"/>
        <path class="cls-11" d="M981.51,852.5l-.82,9.5c-6.93,3.52-14.51,6.02-22.62,7.26-20.97,3.25-41.24-2.37-57-14.14l.81-9.47c1.88-21.93,21.23-38.28,43.23-36.39,22,1.89,38.27,21.3,36.39,43.23Z"/>
      </g>
    </g>
    <path class="cls-2" d="M850.07,100.4c-36.29,1.73-64.41,32.6-62.69,68.78,1.73,36.29,32.67,64.41,68.96,62.68,5.45-.26,10.83-1.2,15.9-2.81,1.59-.31,2.9-1.32,3.67-2.77.7-1.37.78-2.92.21-4.34-.19-1.3-.9-2.42-1.99-3.13-1.33-.91-3.18-1.13-4.99-.63-4.16,1.38-8.18,1.81-13.36,2.05-29.87,1.43-55.36-21.71-56.78-51.61-1.42-29.77,21.75-55.15,51.62-56.57,29.79-1.42,55.17,21.64,56.59,51.41.43,9.03-1.21,17.64-4.79,24.97-.51,1.49-4.22,7.71-9.19,9.2l-1.31.06c-1.68.08-2.12-.42-2.17-.47-.52-.95-1.18-2.67-1.32-3.56-1.1-6.48-1.27-26.6-1.25-26.84l-.11-2.41c-.94-19.66-16.89-34.93-35.55-34.04-18.85.9-33.43,17.63-32.49,37.29.95,19.87,17.06,35.32,35.91,34.42,8.43-.4,15.95-3.91,21.98-10.18l.14,3.01c.15,3.19,1.35,6.36,3.65,9.46,1.59,1.97,5.26,5.26,11.78,4.95,1.15-.05,2.57-.12,4.01-.61,6.48-2.2,11.99-7.13,16.36-14.66.15-.24.24-.43.27-.46l.22-.35c4.18-9.25,6.03-19.44,5.51-30.33-1.73-36.18-32.59-64.23-68.77-62.5ZM854.34,189.92c-12.36.59-22.52-9.42-23.16-22.83-.63-13.25,8.72-24.51,20.87-25.09,12.04-.58,22.75,9.94,23.38,22.97.63,13.17-8.84,24.35-21.09,24.94Z"/>
    <path class="cls-2" d="M157.85,767.87h-8.99c-5.69,0-10.19-4.5-10.19-10.19s4.5-10.19,10.19-10.19h12.53l5.88-34.05h-11.38c-5.45,0-10.14-4.69-10.14-10.19s4.69-10.19,10.14-10.19h14.92l3.87-23.29c.81-5.12,5.12-8.42,10.19-8.42,6.46,0,11,5.88,10.19,11.96l-3.49,19.75h30.7l3.92-23.29c.81-5.12,5.12-8.42,10.38-8.42,6.26,0,10.95,5.88,10,11.96l-3.35,19.75h9.04c5.45,0,10.14,4.5,10.14,10.19s-4.69,10.19-10.14,10.19h-12.53l-5.88,34.05h11.14c5.69,0,10.19,4.5,10.19,10.19s-4.5,10.19-10.19,10.19h-14.68l-4.11,24.05c-.77,4.93-5.07,8.42-10.19,8.42-6.46,0-11.14-5.83-10.19-11.91l3.73-20.56h-30.75l-4.11,24.05c-.77,4.35-4.5,8.42-10.33,8.42-6.31,0-11-5.26-9.99-11.91l3.49-20.56ZM212.89,747.5l5.88-34.05h-30.56l-5.88,34.05h30.56Z"/>
    <g>
      <g>
        <g>
          <rect class="cls-11" x="475.31" y="180.49" width="333.32" height="351.9" rx="4.78" ry="4.78"/>
          <path class="cls-22" d="M479.74,180.49h323.58c2.93,0,5.31,2.38,5.31,5.31v346.6h-333.32V184.92c0-2.45,1.99-4.43,4.43-4.43Z"/>
          <circle class="cls-29" cx="672.45" cy="390.61" r="37.4" transform="translate(143.53 960.7) rotate(-77.3)"/>
          <g class="cls-17">
            <polygon class="cls-15" points="658.59 417.65 731.35 344.89 851.1 464.64 658.59 464.64 658.59 417.65"/>
            <polygon class="cls-11" points="733.71 353.62 740.38 372.62 746.14 390.24 774.98 408.93 783.87 428.47 813.73 442.47 836.52 457.16 733.71 353.62"/>
            <g>
              <polygon class="cls-15" points="475.31 400.59 574.47 301.43 737.68 464.64 475.31 464.64 475.31 400.59"/>
              <rect class="cls-9" x="475.31" y="464.64" width="333.32" height="67.75"/>
              <polygon class="cls-11" points="577.69 313.32 572.14 342.93 586.78 339.21 594.64 363.24 633.94 388.71 597.48 413.48 646.05 415.34 686.75 434.42 717.82 454.45 577.69 313.32"/>
            </g>
            <g>
              <polygon class="cls-23" points="537.66 532.39 518.57 532.39 528.11 485.2 537.66 438 547.2 485.2 556.74 532.39 537.66 532.39"/>
              <polygon class="cls-23" points="475.04 532.39 455.95 532.39 465.49 485.2 475.04 438 484.58 485.2 494.12 532.39 475.04 532.39"/>
              <path class="cls-20" d="M500.97,532.39h-10.57c-7.94,0-13.9-7.28-12.32-15.06l9.92-49.06,12.97-64.12,12.97,64.12,12.97,64.12h-25.93Z"/>
              <polygon class="cls-20" points="566.23 532.39 544.76 532.39 555.49 479.3 566.23 426.21 576.97 479.3 587.7 532.39 566.23 532.39"/>
              <polygon class="cls-23" points="593.49 532.39 580.52 532.39 587 500.33 593.49 468.27 599.97 500.33 606.45 532.39 593.49 532.39"/>
              <polygon class="cls-20" points="612.4 532.39 597.02 532.39 604.71 494.37 612.4 456.35 620.08 494.37 627.77 532.39 612.4 532.39"/>
              <polygon class="cls-23" points="631.36 532.39 619.95 532.39 625.66 504.18 631.36 475.97 637.07 504.18 642.77 532.39 631.36 532.39"/>
              <polygon class="cls-20" points="645.25 532.39 635.02 532.39 640.14 507.11 645.25 481.83 650.36 507.11 655.47 532.39 645.25 532.39"/>
            </g>
            <g>
              <polygon class="cls-23" points="808.73 532.39 827.82 532.39 818.28 485.2 808.73 438 799.19 485.2 789.65 532.39 808.73 532.39"/>
              <polygon class="cls-12" points="871.36 532.39 890.44 532.39 880.9 485.2 871.36 438 861.81 485.2 852.27 532.39 871.36 532.39"/>
              <polygon class="cls-20" points="845.42 532.39 871.36 532.39 858.39 468.27 845.42 404.15 832.46 468.27 819.49 532.39 845.42 532.39"/>
              <polygon class="cls-20" points="779.02 532.39 799.34 532.39 789.18 482.13 779.02 431.88 768.85 482.13 758.69 532.39 779.02 532.39"/>
              <polygon class="cls-23" points="752.9 532.39 765.87 532.39 759.39 500.33 752.9 468.27 746.42 500.33 739.94 532.39 752.9 532.39"/>
              <polygon class="cls-20" points="735.65 532.39 752.69 532.39 744.17 490.28 735.65 448.16 727.14 490.28 718.62 532.39 735.65 532.39"/>
              <polygon class="cls-23" points="715.03 532.39 726.44 532.39 720.73 504.18 715.03 475.97 709.32 504.18 703.62 532.39 715.03 532.39"/>
              <polygon class="cls-20" points="701.14 532.39 711.37 532.39 706.25 507.11 701.14 481.83 696.03 507.11 690.92 532.39 701.14 532.39"/>
            </g>
          </g>
          <g>
            <path class="cls-8" d="M646.05,547.56c0,2.25-1.83,4.08-4.08,4.08s-4.08-1.83-4.08-4.08,1.83-4.08,4.08-4.08,4.08,1.83,4.08,4.08Z"/>
            <circle class="cls-8" cx="656.63" cy="547.56" r="4.08"/>
          </g>
        </g>
        <g>
          <circle class="cls-15" cx="523.46" cy="231.72" r="33.71" transform="translate(26.15 515.25) rotate(-53.57)"/>
          <g>
            <path class="cls-11" d="M537.8,229.62c0,7.92-6.42,14.34-14.34,14.34s-14.34-6.42-14.34-14.34,6.42-14.34,14.34-14.34,14.34,6.42,14.34,14.34Z"/>
            <path class="cls-11" d="M549.49,248.03c-2.94-3.7-8.1-4.62-12.24-2.34-4.09,2.26-8.79,3.54-13.79,3.54s-9.7-1.29-13.79-3.54c-4.14-2.29-9.3-1.36-12.24,2.34l-1.97,2.47c6.05,9,16.33,14.93,27.99,14.93s21.94-5.93,27.99-14.93l-1.97-2.47Z"/>
          </g>
        </g>
      </g>
      <path class="cls-11" d="M475.31,281s20.82-2.66,32.29,17c0,0,11.03-1.42,14.74,7.1,0,0,20.1-3.49,30.14,7.86h-77.17v-31.96Z"/>
      <path class="cls-11" d="M560.93,284.78c10.05-11.36,30.14-7.86,30.14-7.86,3.71-8.52,14.74-7.1,14.74-7.1,9.52-17.9,28.52-16.1,28.52-16.1,0,0,17.04-.05,22.12,20.66,0,0,18.68-4.12,21.84,10.4h-117.36Z"/>
    </g>
    <g>
      <g>
        <rect class="cls-15" x="648.88" y="601.46" width="253.8" height="179.9"/>
        <path class="cls-20" d="M893.3,566.47h-235.04c-5.18,0-9.38,4.36-9.38,9.74v25.25h253.8v-25.25c0-5.38-4.2-9.74-9.38-9.74Z"/>
        <g>
          <circle class="cls-11" cx="676.68" cy="583.97" r="3.3"/>
          <circle class="cls-11" cx="693.39" cy="583.97" r="3.3"/>
          <circle class="cls-11" cx="710.11" cy="583.97" r="3.3"/>
        </g>
      </g>
      <rect class="cls-23" x="671.54" y="620.12" width="208.48" height="112.1"/>
      <polygon class="cls-20" points="766.7 676.17 766.7 658.89 781.67 667.53 796.64 676.17 781.67 684.81 766.7 693.46 766.7 676.17"/>
      <g>
        <g>
          <rect class="cls-23" x="702.01" y="741.18" width="16.17" height="4.63"/>
          <rect class="cls-23" x="702.01" y="750.02" width="32.33" height="4.63"/>
          <rect class="cls-23" x="702.01" y="758.87" width="32.33" height="4.63"/>
          <rect class="cls-23" x="671.54" y="741.18" width="22.32" height="22.32"/>
        </g>
        <g>
          <rect class="cls-23" x="774.84" y="741.18" width="16.17" height="4.63"/>
          <rect class="cls-23" x="774.84" y="750.02" width="32.33" height="4.63"/>
          <rect class="cls-23" x="774.84" y="758.87" width="32.33" height="4.63"/>
          <rect class="cls-23" x="744.38" y="741.18" width="22.32" height="22.32"/>
        </g>
        <g>
          <rect class="cls-23" x="847.68" y="741.18" width="16.17" height="4.63"/>
          <rect class="cls-23" x="847.68" y="750.02" width="32.33" height="4.63"/>
          <rect class="cls-23" x="847.68" y="758.87" width="32.33" height="4.63"/>
          <rect class="cls-23" x="817.22" y="741.18" width="22.32" height="22.32"/>
        </g>
      </g>
    </g>
    <g>
      <path class="cls-2" d="M67.12,532.81c-20.36-36.7-7.12-82.95,29.58-103.31,36.7-20.36,82.95-7.12,103.31,29.58,20.36,36.7,7.12,82.95-29.58,103.31-36.7,20.36-82.95,7.12-103.31-29.58Z"/>
      <path class="cls-11" d="M173.48,494.87c-4.97,25.36-27.68,45.82-27.68,45.82,0,0-29.97-6.05-47.13-25.36-14.32-16.11-13.98-37.84-.63-46.22,19.14-12.02,34.43,22.86,34.43,22.86,0,0-4.59-37.8,18.03-37.21,15.76.42,27.11,18.95,22.98,40.1Z"/>
    </g>
    <g>
      <g>
        <rect class="cls-29" x="214.36" y="161.05" width="177.39" height="100.16" rx="1.02" ry="1.02"/>
        <path class="cls-29" d="M255,261.21l-27.7,28.42c-.84.86-2.3.27-2.3-.94v-27.48h30Z"/>
        <g>
          <rect class="cls-11" x="240" y="181.16" width="105.32" height="3.1"/>
          <rect class="cls-11" x="240" y="190.63" width="72.17" height="3.1"/>
          <rect class="cls-11" x="240" y="200.11" width="126.11" height="3.1"/>
          <rect class="cls-11" x="240" y="209.58" width="43.38" height="3.1"/>
          <rect class="cls-11" x="240" y="219.05" width="98.95" height="3.1"/>
          <rect class="cls-11" x="240" y="228.53" width="105.32" height="3.1"/>
          <rect class="cls-11" x="240" y="238" width="78.91" height="3.1"/>
        </g>
      </g>
      <g>
        <rect class="cls-20" x="249.36" y="292.77" width="177.39" height="73.29" rx="1.01" ry="1.01" transform="translate(676.1 658.83) rotate(180)"/>
        <path class="cls-20" d="M379.62,366.06l27.66,28.38c.85.88,2.34.27,2.34-.95v-27.43h-30Z"/>
        <g>
          <rect class="cls-11" x="276.71" y="308.32" width="95.5" height="3.19"/>
          <rect class="cls-11" x="276.71" y="318.07" width="121.57" height="3.19"/>
          <rect class="cls-11" x="276.71" y="327.82" width="88.36" height="3.19"/>
          <rect class="cls-11" x="276.71" y="337.57" width="111.12" height="3.19"/>
          <rect class="cls-11" x="276.71" y="347.33" width="72.87" height="3.19"/>
        </g>
      </g>
    </g>
    <g>
      <rect class="cls-1" x="545.93" y="668.07" width="27.77" height="82.78" rx="2.49" ry="2.49"/>
      <path class="cls-12" d="M563.64,676.11c.83,0,1.66.24,2.39.7,2.36,1.47,3.16,4.74,1.79,7.29-1.22,2.28-6.76,6.51-8.43,7.75-.08.06-.15.07-.2.07s-.13-.01-.2-.07c-1.67-1.24-7.21-5.47-8.43-7.75-1.37-2.56-.57-5.83,1.79-7.29.73-.46,1.56-.7,2.39-.7,1.47,0,2.85.71,3.77,1.96l.68.91.68-.91c.93-1.24,2.3-1.96,3.77-1.96M563.64,675.26c-1.69,0-3.35.82-4.45,2.3-1.1-1.48-2.76-2.3-4.45-2.3-.97,0-1.94.27-2.84.82-2.73,1.7-3.67,5.46-2.09,8.41,1.29,2.4,6.71,6.57,8.67,8.03.21.16.46.24.71.24s.5-.08.71-.24c1.96-1.46,7.39-5.63,8.67-8.03,1.58-2.94.64-6.71-2.09-8.41-.9-.56-1.88-.82-2.84-.82h0Z"/>
      <path class="cls-12" d="M559.17,701.19h0c.79,0,1.58.11,2.37.32,2.93.78,5.21,3.11,5.95,6.09.52,2.09.3,4.17-.62,6.03-.21.42-.26.89-.14,1.33l.81,3.01-2.9-.78c-.16-.04-.32-.06-.48-.06-.31,0-.63.08-.91.23-1.27.69-2.64,1.04-4.07,1.04-.7,0-1.42-.09-2.12-.26-2.62-.64-5.5-3.46-6.17-6.04-.69-2.69-.15-5.45,1.5-7.58,1.64-2.12,4.12-3.34,6.79-3.34M559.17,700.28c-6.07,0-10.8,5.7-9.17,12.05.76,2.94,3.89,5.98,6.83,6.69.8.19,1.58.28,2.34.28,1.63,0,3.16-.42,4.5-1.15.15-.08.32-.13.48-.13.08,0,.16.01.24.03l4,1.08s.04,0,.06,0c.15,0,.28-.15.23-.31l-1.1-4.12c-.06-.23-.03-.48.08-.7.96-1.94,1.29-4.24.69-6.65-.81-3.26-3.35-5.88-6.59-6.74-.88-.24-1.76-.35-2.6-.35h0Z"/>
      <path class="cls-12" d="M558.77,743.23l10.25-17.24h-19.66l7.13,6.88h0l2.28,10.36ZM557.61,732.89l8.99-4.94-7.35,12.37-1.64-7.43ZM565.91,727.09l-8.83,4.85-5.03-4.85h13.86Z"/>
    </g>
    <g>
      <rect class="cls-1" x="765.98" y="401.62" width="27.77" height="82.78" rx="2.49" ry="2.49"/>
      <path class="cls-12" d="M783.69,409.66c.83,0,1.66.24,2.39.7,2.36,1.47,3.16,4.74,1.79,7.29-1.22,2.28-6.76,6.51-8.43,7.75-.08.06-.15.07-.2.07s-.13-.01-.2-.07c-1.67-1.24-7.21-5.47-8.43-7.75-1.37-2.56-.57-5.83,1.79-7.29.73-.46,1.56-.7,2.39-.7,1.47,0,2.85.71,3.77,1.96l.68.91.68-.91c.93-1.24,2.3-1.96,3.77-1.96M783.69,408.81c-1.69,0-3.35.82-4.45,2.3-1.1-1.48-2.76-2.3-4.45-2.3-.97,0-1.94.27-2.84.82-2.73,1.7-3.67,5.46-2.09,8.41,1.29,2.4,6.71,6.57,8.67,8.03.21.16.46.24.71.24s.5-.08.71-.24c1.96-1.46,7.39-5.63,8.67-8.03,1.58-2.94.64-6.71-2.09-8.41-.9-.56-1.88-.82-2.84-.82h0Z"/>
      <path class="cls-12" d="M779.22,434.74h0c.79,0,1.58.11,2.37.32,2.93.78,5.21,3.11,5.95,6.09.52,2.09.3,4.17-.62,6.03-.21.42-.26.89-.14,1.33l.81,3.01-2.9-.78c-.16-.04-.32-.06-.48-.06-.31,0-.63.08-.91.23-1.27.69-2.64,1.04-4.07,1.04-.7,0-1.42-.09-2.12-.26-2.62-.64-5.5-3.46-6.17-6.04-.69-2.69-.15-5.45,1.5-7.58,1.64-2.12,4.12-3.34,6.79-3.34M779.22,433.83c-6.07,0-10.8,5.7-9.17,12.05.76,2.94,3.89,5.98,6.83,6.69.8.19,1.58.28,2.34.28,1.63,0,3.16-.42,4.5-1.15.15-.08.32-.13.48-.13.08,0,.16.01.24.03l4,1.08s.04,0,.06,0c.15,0,.28-.15.23-.31l-1.1-4.12c-.06-.23-.03-.48.08-.7.96-1.94,1.29-4.24.69-6.65-.81-3.26-3.35-5.88-6.59-6.74-.88-.24-1.76-.35-2.6-.35h0Z"/>
      <path class="cls-12" d="M778.83,476.79l10.25-17.24h-19.66l7.13,6.88h0l2.28,10.36ZM777.66,466.44l8.99-4.94-7.35,12.37-1.64-7.43ZM785.97,460.64l-8.83,4.85-5.03-4.85h13.86Z"/>
    </g>
    <g>
      <g>
        <path class="cls-7" d="M188.18,757.65c-.12-1.79-.18-3.57-.18-5.3h1.97c0,1.68.06,3.42.18,5.17l-1.96.13Z"/>
        <path class="cls-7" d="M391.26,909.91h-.34v-1.97h.36c3.31,0,6.71-.08,10.09-.24l.09,1.97c-3.41.16-6.84.24-10.2.24ZM377.74,909.49c-3.5-.22-7.03-.53-10.5-.91l.22-1.96c3.44.39,6.94.69,10.41.91l-.12,1.96ZM414.6,908.66l-.21-1.96c3.44-.37,6.93-.83,10.36-1.36l.3,1.94c-3.47.54-6.98,1-10.45,1.38ZM354.19,906.72c-3.42-.59-6.9-1.28-10.34-2.05l.43-1.92c3.41.77,6.86,1.45,10.25,2.04l-.34,1.94ZM438.01,904.87l-.41-1.92c3.4-.73,6.81-1.56,10.16-2.44l.5,1.9c-3.38.9-6.83,1.73-10.25,2.46ZM331.08,901.41c-3.35-.96-6.74-2.02-10.06-3.15l.63-1.86c3.29,1.12,6.65,2.17,9.97,3.12l-.54,1.89ZM460.9,898.68l-.61-1.87c3.25-1.06,6.57-2.22,9.87-3.45l.69,1.84c-3.32,1.24-6.67,2.41-9.95,3.47ZM308.66,893.66c-3.24-1.31-6.49-2.72-9.68-4.19l.82-1.79c3.16,1.46,6.39,2.85,9.59,4.15l-.74,1.82ZM483.07,890.27l-.78-1.8c3.19-1.38,6.36-2.87,9.43-4.43l.89,1.76c-3.1,1.57-6.31,3.08-9.53,4.48ZM287.17,883.61c-3.11-1.66-6.21-3.4-9.19-5.18l1-1.69c2.96,1.76,6.02,3.48,9.11,5.13l-.93,1.74ZM504.11,879.42l-1.01-1.68c2.97-1.79,5.93-3.69,8.79-5.65l1.11,1.62c-2.9,1.98-5.89,3.91-8.89,5.71ZM266.85,871.38c-2.92-1.97-5.82-4.02-8.61-6.1l1.17-1.58c2.76,2.06,5.63,4.09,8.53,6.05l-1.1,1.63ZM523.6,865.9l-1.22-1.54c2.71-2.15,5.41-4.4,8.01-6.69l1.3,1.47c-2.62,2.31-5.35,4.58-8.09,6.75ZM247.9,857.11c-2.7-2.27-5.36-4.61-7.91-6.98l1.34-1.44c2.53,2.34,5.17,4.67,7.84,6.91l-1.26,1.51ZM541.31,850.16l-1.39-1.4c2.41-2.39,4.85-4.93,7.25-7.52l1.44,1.33c-2.41,2.62-4.87,5.17-7.3,7.59ZM230.58,840.87c-2.43-2.55-4.81-5.18-7.08-7.82l1.49-1.28c2.25,2.62,4.61,5.22,7.01,7.75l-1.42,1.36ZM557.28,832.66l-1.51-1.26c2.2-2.64,4.4-5.39,6.54-8.16l1.56,1.2c-2.15,2.79-4.37,5.55-6.59,8.22ZM215.26,822.75c-2.12-2.84-4.15-5.75-6.05-8.65l1.64-1.08c1.88,2.87,3.89,5.75,5.99,8.56l-1.58,1.17ZM571.71,813.88l-1.6-1.14c2.01-2.83,4-5.7,5.95-8.62l1.63,1.1c-1.96,2.93-3.96,5.82-5.98,8.66ZM202.42,802.77c-1.71-3.14-3.29-6.33-4.7-9.47l1.79-.81c1.4,3.1,2.96,6.24,4.64,9.34l-1.73.94ZM584.84,794.18l-1.66-1.04c1.85-2.94,3.67-5.92,5.48-8.93l1.68,1.01c-1.81,3.03-3.64,6.02-5.5,8.97ZM192.91,780.98c-1.12-3.43-2.07-6.87-2.81-10.21l1.92-.42c.72,3.28,1.65,6.66,2.76,10.02l-1.87.61ZM596.98,773.86l-1.71-.97c1.73-3.02,3.43-6.07,5.13-9.15l1.72.95c-1.7,3.08-3.41,6.14-5.14,9.17ZM608.37,753.12l-1.74-.92c1.64-3.07,3.26-6.17,4.88-9.29l1.75.91c-1.63,3.12-3.25,6.22-4.89,9.3ZM619.28,732.13l-1.75-.89c1.58-3.11,3.16-6.23,4.74-9.37l1.76.89c-1.58,3.14-3.16,6.26-4.75,9.37ZM629.91,711.02l-1.76-.88,4.69-9.4,1.76.88-4.7,9.4ZM640.48,689.88l-1.76-.88c1.57-3.12,3.14-6.25,4.73-9.38l1.76.89c-1.59,3.13-3.16,6.26-4.73,9.37ZM651.17,668.81l-1.75-.9c1.6-3.11,3.21-6.22,4.84-9.33l1.74.91c-1.62,3.1-3.24,6.21-4.83,9.32ZM662.15,647.91l-1.73-.93c1.65-3.07,3.32-6.14,5.01-9.2l1.72.95c-1.68,3.06-3.35,6.12-5,9.19ZM673.54,627.31l-1.7-.97c1.73-3.03,3.48-6.06,5.26-9.07l1.69,1c-1.77,3.01-3.52,6.02-5.25,9.04ZM685.52,607.07l-1.67-1.03c1.83-2.97,3.68-5.93,5.57-8.88l1.66,1.06c-1.88,2.94-3.73,5.89-5.55,8.85ZM698.23,587.29l-1.63-1.1c1.96-2.91,3.94-5.8,5.96-8.67l1.61,1.13c-2.01,2.86-3.99,5.74-5.93,8.63ZM711.83,568.04l-1.58-1.17c2.09-2.81,4.22-5.6,6.38-8.37l1.55,1.21c-2.16,2.75-4.27,5.53-6.35,8.33ZM726.39,549.52l-1.51-1.25c2.24-2.69,4.51-5.36,6.83-8l1.48,1.3c-2.31,2.63-4.57,5.28-6.8,7.96ZM741.98,531.87l-1.43-1.35c2.4-2.55,4.83-5.07,7.31-7.56l1.39,1.39c-2.47,2.48-4.89,4.99-7.27,7.52ZM758.65,515.24l-1.34-1.44c2.55-2.38,5.15-4.74,7.8-7.06l1.3,1.48c-2.63,2.31-5.21,4.65-7.75,7.02ZM776.38,499.78l-1.24-1.53c2.74-2.22,5.52-4.41,8.27-6.51l1.19,1.56c-2.73,2.08-5.5,4.26-8.22,6.47ZM795.15,485.6l-1.13-1.61c2.85-2,5.78-3.98,8.71-5.9l1.08,1.65c-2.91,1.9-5.83,3.88-8.66,5.86ZM814.89,472.8l-1.01-1.69c3.01-1.8,6.07-3.57,9.12-5.26l.96,1.72c-3.03,1.68-6.08,3.44-9.07,5.23Z"/>
        <path class="cls-7" d="M836.04,461.16l-.89-1.76c1.56-.79,3.13-1.56,4.71-2.33l.86,1.77c-1.58.77-3.14,1.54-4.69,2.32Z"/>
      </g>
      <g>
        <polygon class="cls-29" points="811.53 443.01 797.17 482.46 827.32 458.91 942.6 417.1 811.53 443.01"/>
        <polygon class="cls-14" points="811.53 443.01 797.17 482.46 827.32 458.91 942.6 417.1 811.53 443.01"/>
        <polygon class="cls-7" points="831.19 468.1 797.17 482.46 827.32 458.91 831.19 468.1"/>
        <polygon class="cls-29" points="827.32 458.91 942.6 417.1 848.05 509.37 827.32 458.91"/>
        <polygon class="cls-29" points="811.53 443.01 763.63 412.08 942.6 417.1 811.53 443.01"/>
      </g>
    </g>
  </g>
  <g>
    <text class="cls-4" transform="translate(245.1 1016.78) scale(1.07 1)"><tspan x="0" y="0">Nothing </tspan><tspan class="cls-27" x="187.97" y="0">t</tspan><tspan x="202.88" y="0">o see </tspan><tspan class="cls-27" x="337.44" y="0">h</tspan><tspan x="365.83" y="0">e</tspan><tspan class="cls-18" x="395.11" y="0">r</tspan><tspan class="cls-16" x="413.04" y="0">e... </tspan><tspan class="cls-5" x="481.18" y="0">y</tspan><tspan class="cls-16" x="505.09" y="0">et!</tspan></text>
    <text class="cls-3" transform="translate(106.58 1093.16)"><tspan class="cls-10" x="0" y="0">F</tspan><tspan class="cls-19" x="15.54" y="0">ollow ac</tspan><tspan class="cls-6" x="149.98" y="0">c</tspan><tspan x="170.08" y="0">oun</tspan><tspan class="cls-26" x="232.55" y="0">t</tspan><tspan x="243.88" y="0">s or explo</tspan><tspan class="cls-21" x="399.62" y="0">r</tspan><tspan x="412.32" y="0">e </tspan><tspan class="cls-6" x="440.92" y="0">c</tspan><tspan x="461.02" y="0">ontent </tspan><tspan class="cls-28" x="573.85" y="0">t</tspan><tspan x="584.42" y="0">o fill up </tspan><tspan class="cls-24" x="706.59" y="0">y</tspan><tspan x="723.55" y="0">our </tspan><tspan class="cls-6" x="786.68" y="0">f</tspan><tspan x="797.22" y="0">eed.</tspan></text>
  </g>
</svg>