<svg width="639" height="619" viewBox="0 0 639 619" fill="none" xmlns="http://www.w3.org/2000/svg">
<path d="M488.608 2.00105C487.008 3.06772 473.675 22.8011 459.008 45.8677C437.675 79.3344 432.208 88.8011 432.208 92.4011C432.208 99.3344 438.475 103.601 445.141 101.201C448.075 100.268 452.875 93.8677 466.208 72.9344C499.008 21.4677 504.208 12.9344 504.208 9.73439C504.208 5.73439 498.608 0.00105263 494.608 0.00105263C492.875 0.00105263 490.208 0.934386 488.608 2.00105Z" fill="black"/>
<path d="M264.608 8.2676C260.608 10.2676 257.541 18.5343 257.541 28.0009C257.541 55.0676 278.208 116.401 306.208 172.134L312.208 183.868L319.808 181.068C330.341 177.201 352.341 176.934 362.875 180.534C380.741 186.534 395.808 198.934 404.075 214.534C410.075 225.868 412.208 234.534 412.208 248.001C412.208 268.534 406.208 283.201 391.808 297.868L382.741 307.201L391.808 320.534C406.208 341.601 429.008 371.601 444.075 389.201C460.341 408.401 474.608 421.734 487.941 430.668C502.741 440.668 511.941 441.068 516.608 432.001C518.608 428.134 519.008 425.068 518.475 413.334C516.341 360.401 459.808 237.201 389.141 131.334C346.875 68.0009 305.008 21.0676 280.875 9.8676C273.675 6.40094 269.275 6.00094 264.608 8.2676Z" fill="black"/>
<path d="M231.941 37.7344C221.541 54.5344 217.275 64.9344 198.208 120.668C189.941 144.801 181.275 169.468 178.875 175.334C166.341 206.668 146.608 239.601 128.875 258.401L118.608 269.334L165.008 349.601C190.475 393.868 211.808 430.668 212.341 431.468C213.141 432.401 216.341 432.134 222.875 430.534C239.675 426.268 255.008 424.668 279.541 424.801C308.341 424.934 323.008 426.801 372.875 436.668C393.408 440.668 416.875 445.334 424.875 446.801C440.741 449.734 477.541 451.868 477.541 449.868C477.541 449.201 473.808 445.868 469.408 442.668C423.541 409.201 345.808 298.534 292.208 190.001C261.008 127.068 240.741 71.7344 237.941 42.4011C237.541 37.3344 236.741 33.0677 236.341 32.6677C235.808 32.4011 233.808 34.6677 231.941 37.7344Z" fill="#136BE1"/>
<path d="M543.541 126.001C520.075 139.467 499.808 151.867 498.608 153.467C497.275 155.067 496.208 157.734 496.208 159.601C496.208 163.867 501.808 169.334 506.341 169.334C510.608 169.334 592.475 122.801 597.275 117.734C603.275 111.201 599.275 101.334 590.475 101.334C587.275 101.334 575.141 107.734 543.541 126.001Z" fill="black"/>
<path d="M570.875 236.934C535.541 238.534 529.808 239.068 526.875 241.201C522.475 244.401 521.675 251.601 525.408 256.134C528.341 259.868 523.541 259.734 583.541 257.334C628.741 255.601 633.141 255.068 636.341 251.868C639.941 248.268 639.675 241.201 635.808 237.601C632.075 234.134 631.675 234.134 570.875 236.934Z" fill="black"/>
<path d="M83.6436 280.538C39.1155 306.306 30.8749 312.096 21.1885 324.401C-2.95498 354.946 -6.85842 397.507 11.5022 432.684C19.5983 448.174 37.9589 466.125 53.7172 473.652C60.5121 476.982 70.1984 480.601 75.403 481.759C94.9203 486.392 122.678 483.641 139.304 475.39C142.774 473.652 162.58 462.361 183.543 450.345C211.012 434.421 221.421 427.762 220.987 426.17C220.409 424.143 129.039 264.904 125.425 259.547C123.979 257.521 118.485 260.416 83.6436 280.538Z" fill="black"/>
<path d="M158.467 454.935C142.333 464.402 125.133 473.602 120.067 475.602L111 479.069L111.933 483.869C114.067 495.869 125 525.469 133.133 541.202C144.2 562.669 156.2 579.469 172.867 596.935C189.667 614.535 196.333 618.135 211.8 618.135C220.6 618.135 223.8 617.469 229.933 614.669C245.533 607.335 254.867 594.535 256.067 578.402C257.267 564.669 254.333 557.335 241.133 540.802C226.2 522.135 220.6 513.869 211.933 497.202C204.067 482.135 196.733 463.469 192.733 448.135C191.267 442.669 189.667 438.135 189 438.002C188.333 437.869 174.6 445.469 158.467 454.935Z" fill="black"/>
</svg>
