<svg width="53" height="54" viewBox="0 0 53 54" fill="none" xmlns="http://www.w3.org/2000/svg">
<mask id="mask0_85_72" style="mask-type:luminance" maskUnits="userSpaceOnUse" x="0" y="0" width="53" height="54">
<path d="M0.328125 0.765625H52.9375V53.3698H0.328125V0.765625Z" fill="white"/>
</mask>
<g mask="url(#mask0_85_72)">
<path d="M26.6302 53.3696C12.125 53.3696 0.328125 41.5675 0.328125 27.0623C0.328125 12.5623 12.125 0.760254 26.6302 0.760254C41.1354 0.760254 52.9323 12.5571 52.9323 27.0623C52.9323 41.5675 41.1354 53.3696 26.6302 53.3696ZM26.6302 3.26546C13.5052 3.26546 2.82812 13.9425 2.82812 27.0623C2.82812 40.1873 13.5052 50.8644 26.6302 50.8644C39.7552 50.8644 50.4271 40.1873 50.4271 27.0623C50.4271 13.9425 39.7552 3.26546 26.6302 3.26546Z" fill="black"/>
</g>
<path d="M8.03125 43.8905L43.4583 8.46338L45.2292 10.2342L9.80208 45.6613L8.03125 43.8905Z" fill="black"/>
</svg>
