<svg width="78" height="86" viewBox="0 0 78 86" fill="none" xmlns="http://www.w3.org/2000/svg">
<mask id="mask0_237_330" style="mask-type:luminance" maskUnits="userSpaceOnUse" x="0" y="24" width="78" height="62">
<path d="M0.9375 24.3073H77.9375V85.7396H0.9375V24.3073Z" fill="white"/>
</mask>
<g mask="url(#mask0_237_330)">
<path d="M5.38542 85.7865H73.6458C76.099 85.7865 78.0885 83.7917 78.0885 81.3385V24.3125H0.9375V81.3385C0.9375 83.7917 2.92708 85.7865 5.38542 85.7865Z" fill="white"/>
</g>
<mask id="mask1_237_330" style="mask-type:luminance" maskUnits="userSpaceOnUse" x="0" y="8" width="78" height="17">
<path d="M0.9375 8.61462H77.9375V24.3282H0.9375V8.61462Z" fill="white"/>
</mask>
<g mask="url(#mask1_237_330)">
<path d="M0.9375 13.0781V24.3125H78.0885V13.0781C78.0885 10.625 76.099 8.63544 73.6458 8.63544H5.38542C2.92708 8.63544 0.9375 10.625 0.9375 13.0781Z" fill="#E60012"/>
</g>
<mask id="mask2_237_330" style="mask-type:luminance" maskUnits="userSpaceOnUse" x="22" y="0" width="6" height="18">
<path d="M22.6667 0.739624H28V17.6667H22.6667V0.739624Z" fill="white"/>
</mask>
<g mask="url(#mask2_237_330)">
<path d="M23.9479 0.739624C25.9948 0.739624 27.6511 2.39587 27.6511 4.44275V13.1094C27.6511 15.1563 25.9948 16.8125 23.9479 16.8125V0.739624Z" fill="white"/>
</g>
<mask id="mask3_237_330" style="mask-type:luminance" maskUnits="userSpaceOnUse" x="53" y="0" width="6" height="18">
<path d="M53.3333 0.739624H58.6666V17.6667H53.3333V0.739624Z" fill="white"/>
</mask>
<g mask="url(#mask3_237_330)">
<path d="M54.5312 0.739624C56.5781 0.739624 58.2344 2.39587 58.2344 4.44275V13.1094C58.2344 15.1563 56.5781 16.8125 54.5312 16.8125V0.739624Z" fill="white"/>
</g>
</svg>
