<svg width="48" height="48" viewBox="0 0 48 48" fill="none" xmlns="http://www.w3.org/2000/svg">
<path d="M24 18.8056C26.1 18.8056 28.08 19.6247 29.56 21.1031C31.04 22.6014 31.86 24.5792 31.86 26.6569C31.84 28.8345 30.96 30.7923 29.54 32.2107C28.12 33.6292 26.16 34.5082 24 34.5082C21.9 34.5082 19.94 33.6891 18.44 32.2107C16.96 30.7124 16.14 28.7546 16.14 26.6569C16.12 24.5792 16.94 22.6214 18.42 21.1231C19.92 19.6247 21.9 18.8056 24 18.8056ZM24 21.8023C22.7 21.8023 21.48 22.3018 20.54 23.2407C19.62 24.1597 19.12 25.3783 19.14 26.6369V26.6569C19.14 27.9555 19.64 29.1741 20.56 30.0931C21.48 31.0121 22.7 31.5115 24 31.5115C26.68 31.5115 28.84 29.3339 28.86 26.6569C28.86 25.3584 28.36 24.1397 27.44 23.2207C26.52 22.3018 25.3 21.8023 24 21.8023ZM35.22 18.3262C36.22 18.3262 37.04 19.1453 37.04 20.1442C37.04 21.143 36.22 21.9422 35.22 21.9422C34.22 21.9422 33.42 21.143 33.42 20.1442C33.42 19.1453 34.22 18.3262 35.22 18.3262Z" fill="#136BE1"/>
<path opacity="0.4" d="M34.88 12.4728L34.68 12.0333C34.14 10.8946 33.52 9.57603 33.14 8.81687C32.22 7.01887 30.64 6.01998 28.7 6H19.28C17.34 6.01998 15.78 7.01887 14.86 8.81687C14.46 9.61598 13.78 11.0544 13.22 12.2331L13.1 12.4728C13.04 12.6326 12.88 12.7125 12.72 12.7125C7.9 12.7125 4 16.6282 4 21.4229V33.2897C4 38.0844 7.9 42 12.72 42H35.28C40.08 42 44 38.0844 44 33.2897V21.4229C44 16.6282 40.08 12.7125 35.28 12.7125C35.1 12.7125 34.96 12.6127 34.88 12.4728Z" fill="#136BE1"/>
</svg>
