<svg width="49" height="49" viewBox="0 0 49 49" fill="none" xmlns="http://www.w3.org/2000/svg">
<mask id="mask0_309_349" style="mask-type:luminance" maskUnits="userSpaceOnUse" x="0" y="0" width="49" height="49">
<path d="M0.21875 0.369873H48.2188V48.3699H0.21875V0.369873Z" fill="white"/>
</mask>
<g mask="url(#mask0_309_349)">
<path d="M48.2188 24.3699C48.2188 26.7136 47.8854 28.9792 47.2552 31.1251C44.9531 38.9845 38.7396 45.172 30.8698 47.4324C28.7552 48.0417 26.526 48.3699 24.2188 48.3699C10.9635 48.3699 0.21875 37.6199 0.21875 24.3699C0.21875 11.1147 10.9635 0.369873 24.2188 0.369873C37.474 0.369873 48.2188 11.1147 48.2188 24.3699Z" fill="#FF3636"/>
</g>
<path d="M47.2552 31.125C44.9531 38.9844 38.7396 45.1719 30.8698 47.4323L14.0625 30.6302L30.4115 14.2812L47.2552 31.125Z" fill="#C63434"/>
<path d="M34.3541 18.1979L30.4218 14.2656L24.2187 20.4635L18.0208 14.2656L14.0833 18.1979L20.2864 24.401L14.0833 30.599L18.0208 34.5365L24.2187 28.3333L30.4218 34.5365L34.3541 30.599L28.1562 24.401L34.3541 18.1979Z" fill="white"/>
</svg>
