<svg width="52" height="46" viewBox="0 0 52 46" fill="none" xmlns="http://www.w3.org/2000/svg">
<mask id="mask0_4_8922" style="mask-type:luminance" maskUnits="userSpaceOnUse" x="0" y="0" width="52" height="46">
<path d="M0.166504 0.359436H51.1665V45.1303H0.166504V0.359436Z" fill="white"/>
</mask>
<g mask="url(#mask0_4_8922)">
<path d="M51.4009 20.099V22.6407C51.4009 22.75 51.3332 22.8698 51.3175 22.9896C50.953 26.6511 49.505 30.1146 47.1561 32.948C44.078 36.7552 40.13 39.2657 35.5155 40.8334C32.505 41.8542 29.3436 42.375 26.1613 42.3698C23.4894 42.3386 20.828 42.1146 18.1821 41.7084C17.7446 41.6302 17.2915 41.7084 16.9061 41.9375C14.0832 43.6407 10.9478 44.7344 7.68213 45.1563C6.58317 45.2969 5.48421 45.3542 4.38005 45.3386C4.01025 45.3282 3.6613 45.1875 3.38525 44.9375C3.11442 44.6875 2.94255 44.3438 2.90088 43.9792C2.85921 43.6146 2.94775 43.25 3.15609 42.9375C3.29671 42.7136 3.45296 42.4896 3.63525 42.2813C5.08317 40.474 6.31234 38.5 7.2915 36.3959C7.35921 36.3021 7.38525 36.1771 7.36963 36.0625C7.34359 35.9427 7.27067 35.8386 7.17171 35.7761C5.39046 34.25 3.86963 32.4427 2.67692 30.4323C1.6665 28.7188 0.952962 26.8594 0.557129 24.9167C0.406088 24.1667 0.296712 23.3802 0.166504 22.6407V20.099C0.202963 19.9532 0.234213 19.8125 0.260254 19.6615C0.567546 16.6459 1.62484 13.7448 3.33317 11.2344C5.21338 8.50525 7.65609 6.21358 10.505 4.52087C13.2498 2.85421 16.2655 1.67192 19.4113 1.03129C24.328 -0.0155848 29.4321 0.1615 34.2655 1.54171C36.9998 2.30733 39.5936 3.50525 41.953 5.07817C44.5728 6.80212 46.7967 9.05212 48.4946 11.6875C49.6978 13.5417 50.5571 15.6042 50.9998 17.7709C51.1561 18.5469 51.2707 19.323 51.4009 20.099Z" fill="#9DB2B8"/>
</g>
</svg>
