<svg width="65" height="65" viewBox="0 0 65 65" fill="none" xmlns="http://www.w3.org/2000/svg">
<path d="M44.584 21.9111C44.4955 21.5882 44.2767 21.3226 43.9642 21.1611C44.0319 20.4372 43.933 19.5414 43.7663 18.807C43.6205 18.2028 43.3913 17.5309 43.0424 16.8226C42.6778 16.1299 42.2299 15.3851 41.5944 14.708C40.9903 13.9997 40.2142 13.3591 39.334 12.7914C31.6882 7.94239 21.1309 13.6768 21.9538 21.1664C21.6465 21.3226 21.4278 21.5934 21.3392 21.9111C19.5319 21.9424 18.0736 23.2914 18.0736 24.9476C18.0736 26.6091 19.5319 27.958 21.3392 27.9893C21.4851 28.5153 21.9799 28.9111 22.5944 28.9111C23.3288 28.9111 23.9226 28.3695 23.9226 27.7028V22.2028C23.9226 21.8226 23.7194 21.4945 23.4174 21.2705C23.7507 19.3799 24.7299 17.3799 26.1101 16.1403C28.1361 14.1664 31.6517 13.0257 35.5163 13.8851C37.0007 14.3278 38.4642 15.0726 39.683 16.2653C41.0372 17.4841 42.1413 19.3122 42.5007 21.2757C41.7194 21.8539 42.0007 22.3538 42.0007 27.7028C42.0007 28.1195 42.2455 28.4736 42.5997 28.6872V29.1507C42.5997 29.4476 42.5163 29.7393 42.3549 29.9893C40.6257 32.6768 40.5111 32.9528 37.9017 33.7914C37.0788 34.0518 36.1517 34.1664 35.2142 34.3955C34.3549 33.5414 32.8288 34.1039 32.8288 35.2445C32.8288 36.6872 35.0788 37.0153 35.5163 35.5726C36.1465 35.4216 36.7976 35.333 37.4122 35.1403C40.7819 34.1195 41.8809 33.5101 43.6674 30.1091C43.834 29.7861 43.9226 29.432 43.9226 29.0674V28.7653C44.2559 28.6091 44.4903 28.3278 44.584 27.9893C46.3913 27.9528 47.8444 26.6091 47.8444 24.9476C47.8444 23.2914 46.3913 21.9476 44.584 21.9111Z" fill="#100F0D"/>
<path d="M32.9642 41.5675C34.0475 40.0466 34.985 38.7446 35.9121 37.4269C36.9903 35.8852 38.0788 35.3852 39.7871 35.9633C41.959 36.6977 44.11 37.5154 46.209 38.4269C48.0111 39.2133 49.0267 40.6144 48.9121 42.6977C48.8548 43.7237 48.9121 44.7498 48.8965 45.7758C48.86 48.6091 47.5736 49.9216 44.7715 49.9373C41.1569 49.9581 37.5371 49.9425 33.9225 49.9425C29.7194 49.9425 25.5163 49.9529 21.308 49.9373C18.3028 49.9269 17.0371 48.6404 17.0215 45.6508C17.0163 44.6716 17.0684 43.6925 17.0111 42.7185C16.8757 40.5519 17.9903 39.1612 19.834 38.3644C21.933 37.4581 24.0944 36.6664 26.2663 35.9477C28.1205 35.3331 28.6986 35.6039 29.8444 37.2133C30.834 38.5987 31.8288 39.9841 32.9642 41.5675Z" fill="#100F0D"/>
<path d="M40.6256 23.5152C40.4277 26.0673 39.6204 29.3277 36.9485 31.8381C34.6777 33.9683 31.2194 34.0204 28.985 31.8433C25.8912 28.8173 24.9173 24.9787 25.3964 20.8329C25.6464 18.6662 26.9694 16.9579 29.1933 16.2287C32.4954 15.1506 35.6881 15.0464 38.5996 17.3537C40.2975 18.6975 40.6881 20.5464 40.6256 23.5152Z" fill="#100F0D"/>
<circle cx="32.5" cy="32.5" r="31" stroke="black" stroke-width="3"/>
</svg>
