<svg width="45" height="39" viewBox="0 0 45 39" fill="none" xmlns="http://www.w3.org/2000/svg">
<path d="M31.4792 27.3802C31.8958 27.6146 32.4323 27.474 32.6719 27.0573C32.9115 26.6354 32.7708 26.1094 32.3542 25.8698L24.75 21.4896V11.8698C24.75 11.3854 24.3594 11 23.875 11C23.3906 11 23 11.3854 23 11.8698V22.5L31.4792 27.3802Z" fill="#040606"/>
<path d="M15.849 19.2602H9.97396C9.97396 10.6091 17.0052 3.59351 25.6875 3.59351C34.3646 3.59351 41.401 10.6091 41.401 19.2602C41.401 27.9164 34.3646 34.9321 25.6875 34.9321C23.9479 34.9321 22.224 34.6404 20.5781 34.0779C19.6354 33.755 18.6094 34.255 18.2865 35.1925C17.9635 36.13 18.4635 37.1508 19.4063 37.4737C29.4948 40.9321 40.4844 35.5831 43.9531 25.5258C47.4219 15.4685 42.0573 4.51018 31.9688 1.05185C21.8802 -2.40649 10.8906 2.94247 7.42188 12.9998C6.72917 15.0154 6.36979 17.13 6.36979 19.2602H0.494792C0.218749 19.2602 0 19.4789 0 19.755C0 19.88 0.046875 19.9998 0.130208 20.0935L7.8125 28.3539C7.99479 28.5518 8.30729 28.5623 8.51042 28.3748C8.51562 28.3696 8.52604 28.3591 8.53125 28.3539L16.2135 20.0935C16.401 19.8904 16.3906 19.5779 16.1875 19.3956C16.099 19.3123 15.9792 19.2602 15.849 19.2602Z" fill="#040606"/>
</svg>
