<svg width="683" height="299" viewBox="0 0 683 299" fill="none" xmlns="http://www.w3.org/2000/svg">
<path d="M650.667 0.133362L618.667 0.13336L618.4 62L618 123.867L554.4 62L490.667 2.14477e-05L490.667 53.3334L490.667 106.8L341.333 106.8L192 106.8L192 53.3333L192 8.39259e-06L128.4 62L64.6667 123.867L64.2667 62L64 0.133336L32 0.133335L-5.82819e-09 0.133333L-6.5334e-06 149.467L-1.3061e-05 298.8L32 298.8L64 298.8L64.2667 236.933L64.6667 175.067L128.267 236.933L192 298.933L192 245.6L192 192.133L341.333 192.133L490.667 192.133L490.667 245.6L490.667 298.933L554.4 236.933L618 175.067L618.4 236.933L618.667 298.8L650.667 298.8L682.667 298.8L682.667 149.467L682.667 0.133363L650.667 0.133362Z" fill="black"/>
<line x1="68" y1="5.5" x2="616" y2="5.49995" stroke="black" stroke-width="5" stroke-dasharray="10 10"/>
<line x1="67" y1="296.5" x2="615" y2="296.5" stroke="black" stroke-width="5" stroke-dasharray="10 10"/>
</svg>
