<svg width="21" height="21" viewBox="0 0 21 21" fill="none" xmlns="http://www.w3.org/2000/svg">
<circle cx="10" cy="11" r="9" fill="white"/>
<path d="M16.7552 6.5625L16.4688 6.84375L14.1615 4.53646L14.4479 4.25C14.7344 3.96354 15.1979 3.96354 15.4844 4.25L16.7552 5.52083C17.0417 5.80729 17.0417 6.27083 16.7552 6.5625ZM7.94271 15.375L5.63021 13.0677L13.9271 4.77083L16.2344 7.07813L7.94271 15.375ZM4.11458 16.8906L5.3125 13.3854L7.61979 15.6927L4.11458 16.8906ZM10.5052 0C4.70312 0 0 4.70312 0 10.5052C0 16.3021 4.70312 21.0052 10.5052 21.0052C16.3021 21.0052 21.0052 16.3021 21.0052 10.5052C21.0052 4.70312 16.3021 0 10.5052 0Z" fill="#100F0D"/>
</svg>
