<svg width="114" height="130" viewBox="0 0 114 130" fill="none" xmlns="http://www.w3.org/2000/svg">
<path d="M53.5259 22.9167C60.5832 27.4115 65.4998 34.8958 66.3592 43.4531C69.1353 44.7344 72.3436 45.5885 75.7707 45.5885C88.1717 45.5885 98.2238 35.5365 98.2238 23.1302C98.2238 10.724 88.1717 0.671875 75.7707 0.671875C63.578 0.885416 53.5259 10.724 53.5259 22.9167ZM38.7655 68.6875C51.1717 68.6875 61.2238 58.6354 61.2238 46.2292C61.2238 33.8281 51.1717 23.7708 38.7655 23.7708C26.3592 23.7708 16.3071 33.8281 16.3071 46.2292C16.3071 58.6354 26.3592 68.6875 38.7655 68.6875ZM48.1769 70.1875H29.1405C13.3123 70.1875 0.479004 83.0208 0.479004 98.849V122.589L1.979 123.016C16.9478 127.724 30.2082 129.219 40.9061 129.219C61.8644 129.219 74.0571 123.229 74.9113 122.802L76.4113 121.948H76.6248V98.849C76.8384 83.0208 64.005 70.1875 48.1769 70.1875ZM85.1769 47.0885H66.3592C66.1457 54.5729 62.9373 61.4167 57.8019 66.3385C71.9165 70.6146 82.1873 83.4479 82.1873 98.849V105.906C100.792 105.266 111.489 99.9167 112.13 99.7031L113.625 98.849H113.838V75.75C113.838 59.9219 101.005 47.0885 85.1769 47.0885Z" fill="white"/>
</svg>
