<svg width="500" height="500" viewBox="0 0 500 500" fill="none" xmlns="http://www.w3.org/2000/svg">
<g filter="url(#filter0_d_540_11)">
<circle cx="250" cy="246" r="245.968" fill="#C20000" fill-opacity="0.3" shape-rendering="crispEdges"/>
</g>
<circle cx="250" cy="246" r="216.488" fill="#C20000" fill-opacity="0.3"/>
<circle cx="250" cy="246" r="183.324" fill="#C20000" fill-opacity="0.3"/>
<g filter="url(#filter1_d_540_11)">
<path d="M250 130.847L346.729 167.401V258.787C346.729 299.91 309.88 341.034 250 359.311C190.12 341.034 153.271 304.479 153.271 258.787V167.401L250 130.847Z" fill="white"/>
<path d="M250 130.847L346.729 167.401V258.787C346.729 299.91 309.88 341.034 250 359.311C190.12 341.034 153.271 304.479 153.271 258.787V167.401L250 130.847Z" stroke="#FF5B5B" stroke-width="21.96" stroke-linecap="round" stroke-linejoin="round"/>
</g>
<path d="M280.4 213.757L217.757 276.4M217.757 213.757L280.4 276.4" stroke="#FF4444" stroke-width="15" stroke-linecap="round" stroke-linejoin="round"/>
<defs>
<filter id="filter0_d_540_11" x="0.0322266" y="0.0324707" width="499.935" height="499.935" filterUnits="userSpaceOnUse" color-interpolation-filters="sRGB">
<feFlood flood-opacity="0" result="BackgroundImageFix"/>
<feColorMatrix in="SourceAlpha" type="matrix" values="0 0 0 0 0 0 0 0 0 0 0 0 0 0 0 0 0 0 127 0" result="hardAlpha"/>
<feOffset dy="4"/>
<feGaussianBlur stdDeviation="2"/>
<feComposite in2="hardAlpha" operator="out"/>
<feColorMatrix type="matrix" values="0 0 0 0 0 0 0 0 0 0 0 0 0 0 0 0 0 0 0.25 0"/>
<feBlend mode="normal" in2="BackgroundImageFix" result="effect1_dropShadow_540_11"/>
<feBlend mode="normal" in="SourceGraphic" in2="effect1_dropShadow_540_11" result="shape"/>
</filter>
<filter id="filter1_d_540_11" x="138.291" y="119.867" width="223.417" height="258.424" filterUnits="userSpaceOnUse" color-interpolation-filters="sRGB">
<feFlood flood-opacity="0" result="BackgroundImageFix"/>
<feColorMatrix in="SourceAlpha" type="matrix" values="0 0 0 0 0 0 0 0 0 0 0 0 0 0 0 0 0 0 127 0" result="hardAlpha"/>
<feOffset dy="4"/>
<feGaussianBlur stdDeviation="2"/>
<feComposite in2="hardAlpha" operator="out"/>
<feColorMatrix type="matrix" values="0 0 0 0 0 0 0 0 0 0 0 0 0 0 0 0 0 0 0.25 0"/>
<feBlend mode="normal" in2="BackgroundImageFix" result="effect1_dropShadow_540_11"/>
<feBlend mode="normal" in="SourceGraphic" in2="effect1_dropShadow_540_11" result="shape"/>
</filter>
</defs>
</svg>
