<svg width="60" height="60" viewBox="0 0 60 60" fill="none" xmlns="http://www.w3.org/2000/svg">
<mask id="mask0_87_74" style="mask-type:luminance" maskUnits="userSpaceOnUse" x="0" y="0" width="60" height="60">
<path d="M0.104126 0.557129H59.0156V59.4738H0.104126V0.557129Z" fill="white"/>
</mask>
<g mask="url(#mask0_87_74)">
<path d="M29.5573 0.557129C28.5937 0.557129 27.6302 0.604004 26.6718 0.702962C25.7135 0.796712 24.7604 0.937337 23.8125 1.12484C22.8645 1.31234 21.9323 1.54671 21.0104 1.82796C20.0833 2.10921 19.177 2.43213 18.2864 2.80192C17.3958 3.17171 16.526 3.58317 15.6718 4.0363C14.8229 4.49463 13.9948 4.98942 13.1927 5.52588C12.3906 6.05713 11.6198 6.63525 10.8698 7.24463C10.125 7.85921 9.41142 8.50505 8.72913 9.18734C8.04683 9.86963 7.401 10.5832 6.78642 11.328C6.17704 12.0728 5.60413 12.8488 5.06767 13.6509C4.53121 14.453 4.03642 15.2811 3.57808 16.13C3.12496 16.979 2.7135 17.854 2.34371 18.7446C1.97392 19.6353 1.651 20.5415 1.36975 21.4634C1.0885 22.3905 0.854126 23.3228 0.666626 24.2707C0.479126 25.2134 0.3385 26.1665 0.244751 27.13C0.151 28.0884 0.104126 29.0519 0.104126 30.0155C0.104126 30.979 0.151 31.9425 0.244751 32.9061C0.3385 33.8644 0.479126 34.8175 0.666626 35.7655C0.854126 36.7082 1.0885 37.6457 1.36975 38.5675C1.651 39.4894 1.97392 40.3957 2.34371 41.2915C2.7135 42.1821 3.12496 43.0519 3.57808 43.9009C4.03642 44.755 4.53121 45.578 5.06767 46.38C5.60413 47.1821 6.17704 47.9582 6.78642 48.703C7.401 49.4478 8.04683 50.1665 8.72913 50.8436C9.41142 51.5259 10.125 52.1769 10.8698 52.7863C11.6198 53.4009 12.3906 53.9738 13.1927 54.5103C13.9948 55.0467 14.8229 55.5415 15.6718 55.9946C16.526 56.453 17.3958 56.8644 18.2864 57.2342C19.177 57.5988 20.0833 57.9269 21.0104 58.203C21.9323 58.4842 22.8645 58.7186 23.8125 58.9061C24.7604 59.0936 25.7135 59.2394 26.6718 59.3332C27.6302 59.4269 28.5937 59.4738 29.5573 59.4738C30.526 59.4738 31.4843 59.4269 32.4479 59.3332C33.4062 59.2394 34.3593 59.0936 35.3073 58.9061C36.25 58.7186 37.1875 58.4842 38.1093 58.203C39.0312 57.9269 39.9427 57.5988 40.8333 57.2342C41.7239 56.8644 42.5937 56.453 43.4479 55.9946C44.2968 55.5415 45.125 55.0467 45.927 54.5103C46.7291 53.9738 47.5 53.4009 48.2448 52.7863C48.9948 52.1769 49.7083 51.5259 50.3906 50.8436C51.0729 50.1665 51.7187 49.4478 52.3281 48.703C52.9427 47.9582 53.5156 47.1821 54.052 46.38C54.5885 45.578 55.0833 44.755 55.5364 43.9009C55.9948 43.0519 56.4062 42.1821 56.776 41.2915C57.1458 40.3957 57.4687 39.4894 57.75 38.5675C58.026 37.6457 58.2604 36.7082 58.4531 35.7655C58.6406 34.8175 58.7812 33.8644 58.875 32.9061C58.9687 31.9425 59.0156 30.979 59.0156 30.0155C59.0156 29.0519 58.9687 28.0884 58.8698 27.13C58.776 26.1717 58.6354 25.2186 58.4427 24.2707C58.2552 23.328 58.0208 22.3905 57.7395 21.4686C57.4583 20.5467 57.1354 19.6405 56.7656 18.7498C56.3958 17.8592 55.9843 16.9894 55.5312 16.1353C55.0729 15.2863 54.5781 14.4582 54.0416 13.6561C53.5052 12.8592 52.9323 12.0832 52.3177 11.3384C51.7083 10.5936 51.0625 9.88004 50.3802 9.19775C49.6979 8.51546 48.9843 7.86963 48.2395 7.25505C47.4948 6.64567 46.7187 6.06754 45.9166 5.53109C45.1145 4.99984 44.2916 4.49984 43.4375 4.04671C42.5885 3.59359 41.7187 3.18213 40.8281 2.81234C39.9375 2.44255 39.0312 2.11442 38.1041 1.83317C37.1823 1.55192 36.25 1.31755 35.302 1.13005C34.3593 0.942546 33.4062 0.80192 32.4479 0.702962C31.4843 0.609212 30.526 0.562337 29.5573 0.557129ZM29.5573 55.5467C28.7239 55.5467 27.8906 55.505 27.0573 55.4217C26.2239 55.3436 25.401 55.2186 24.5781 55.0571C23.7604 54.8905 22.9479 54.6873 22.1458 54.4478C21.3489 54.203 20.5625 53.9217 19.7916 53.604C19.0156 53.2811 18.2604 52.9269 17.526 52.5311C16.7864 52.1353 16.0729 51.7082 15.375 51.2446C14.6823 50.7811 14.0104 50.2811 13.3645 49.7498C12.7187 49.2186 12.0989 48.6613 11.5052 48.0675C10.9166 47.479 10.3541 46.8592 9.82288 46.2134C9.29163 45.5675 8.79683 44.8957 8.33329 44.1978C7.86975 43.505 7.43746 42.7863 7.04163 42.0519C6.651 41.3123 6.29163 40.5571 5.97392 39.7863C5.651 39.0155 5.36975 38.229 5.13017 37.4269C4.88538 36.6248 4.68225 35.8175 4.52079 34.9946C4.35933 34.1769 4.23433 33.3488 4.151 32.5207C4.07288 31.6873 4.03121 30.854 4.03121 30.0155C4.03121 29.1821 4.07288 28.3488 4.151 27.5155C4.23433 26.6821 4.35933 25.854 4.52079 25.0363C4.68225 24.2134 4.88538 23.4061 5.13017 22.604C5.36975 21.8071 5.651 21.0207 5.97392 20.2446C6.29163 19.4738 6.651 18.7186 7.04163 17.9842C7.43746 17.2446 7.86975 16.5259 8.33329 15.8332C8.79683 15.1353 9.29163 14.4686 9.82288 13.8228C10.3541 13.1717 10.9166 12.5571 11.5052 11.9634C12.0989 11.3748 12.7187 10.8123 13.3645 10.2811C14.0104 9.74984 14.6823 9.25505 15.375 8.7915C16.0729 8.32275 16.7864 7.89567 17.526 7.49984C18.2604 7.10921 19.0156 6.74984 19.7916 6.43213C20.5625 6.10921 21.3489 5.82796 22.1458 5.58838C22.9479 5.34359 23.7604 5.14046 24.5781 4.979C25.401 4.81234 26.2239 4.69255 27.0573 4.60921C27.8906 4.52588 28.7239 4.48421 29.5573 4.48421C30.3958 4.48421 31.2291 4.52588 32.0625 4.60921C32.8958 4.69255 33.7187 4.81234 34.5416 4.979C35.3593 5.14046 36.1718 5.34359 36.9687 5.58838C37.7708 5.82796 38.5573 6.10921 39.3281 6.43213C40.0989 6.74984 40.8541 7.10921 41.5937 7.49984C42.3333 7.89567 43.0468 8.32275 43.7448 8.7915C44.4375 9.25505 45.1093 9.74984 45.7552 10.2811C46.401 10.8123 47.0208 11.3748 47.6093 11.9634C48.2031 12.5571 48.7656 13.1717 49.2916 13.8228C49.8229 14.4686 50.3229 15.1353 50.7864 15.8332C51.25 16.5259 51.6823 17.2446 52.0729 17.9842C52.4687 18.7186 52.8281 19.4738 53.1458 20.2446C53.4635 21.0207 53.7448 21.8071 53.9895 22.604C54.2343 23.4061 54.4375 24.2134 54.5989 25.0363C54.7604 25.854 54.8854 26.6821 54.9635 27.5155C55.0468 28.3488 55.0885 29.1821 55.0885 30.0155C55.0885 30.854 55.0468 31.6873 54.9635 32.5155C54.8802 33.3488 54.7552 34.1769 54.5937 34.9946C54.4323 35.8123 54.2239 36.6248 53.9843 37.4217C53.7395 38.2238 53.4583 39.0103 53.1354 39.7811C52.8177 40.5519 52.4583 41.3071 52.0677 42.0467C51.6718 42.7811 51.2395 43.4998 50.776 44.1925C50.3125 44.8905 49.8177 45.5571 49.2864 46.203C48.7552 46.8488 48.1927 47.4686 47.6041 48.0623C47.0104 48.6509 46.3958 49.2134 45.7448 49.7446C45.0989 50.2707 44.4323 50.7707 43.7343 51.2342C43.0416 51.6978 42.3229 52.13 41.5885 52.5207C40.8489 52.9165 40.0989 53.2759 39.3229 53.5936C38.552 53.9165 37.7656 54.1978 36.9687 54.4425C36.1666 54.6821 35.3593 54.8853 34.5364 55.0519C33.7187 55.2134 32.8906 55.3384 32.0625 55.4217C31.2291 55.505 30.3958 55.5467 29.5573 55.5467Z" fill="black"/>
</g>
<path d="M29.5573 8.4165C29.1718 8.4165 28.7916 8.45296 28.4114 8.53109C28.0312 8.604 27.6614 8.71859 27.3073 8.86442C26.9479 9.01546 26.6093 9.19254 26.2864 9.4113C25.9687 9.62484 25.6666 9.86963 25.3958 10.1405C25.1198 10.4165 24.8802 10.7134 24.6614 11.0363C24.4479 11.354 24.2656 11.6978 24.1198 12.0519C23.9687 12.4113 23.8593 12.7759 23.7812 13.1561C23.7083 13.5363 23.6666 13.9217 23.6666 14.3071V30.0155C23.6666 30.4009 23.7031 30.7863 23.7812 31.1665C23.8541 31.5467 23.9687 31.9113 24.1145 32.2707C24.2656 32.63 24.4479 32.9686 24.6614 33.2915C24.875 33.6092 25.1198 33.9113 25.3958 34.1821C25.6666 34.4582 25.9635 34.6978 26.2864 34.9165C26.6093 35.13 26.9479 35.3123 27.302 35.4582C27.6614 35.6092 28.0312 35.7186 28.4114 35.7967C28.7916 35.8696 29.1718 35.9061 29.5573 35.9061C29.9479 35.9061 30.3281 35.8696 30.7083 35.7967C31.0885 35.7186 31.4583 35.6092 31.8125 35.4582C32.1718 35.3123 32.5104 35.13 32.8333 34.9165C33.1562 34.6978 33.4531 34.4582 33.7239 34.1821C34 33.9113 34.2448 33.6092 34.4583 33.2915C34.6718 32.9686 34.8541 32.63 35 32.2707C35.151 31.9113 35.2604 31.5467 35.3385 31.1665C35.4114 30.7863 35.4531 30.4009 35.4531 30.0155V14.3071C35.4479 13.9217 35.4114 13.5363 35.3385 13.1561C35.2604 12.7759 35.151 12.4113 35 12.0519C34.8541 11.6978 34.6718 11.354 34.4583 11.0363C34.2395 10.7134 33.9948 10.4165 33.7239 10.1405C33.4479 9.86963 33.151 9.62484 32.8333 9.4113C32.5104 9.19254 32.1718 9.01546 31.8125 8.86442C31.4531 8.71859 31.0885 8.604 30.7083 8.53109C30.3281 8.45296 29.9479 8.4165 29.5573 8.4165ZM31.5208 30.0155C31.5208 30.2759 31.4739 30.5259 31.375 30.7707C31.276 31.0103 31.1302 31.2186 30.9479 31.4061C30.7656 31.5884 30.552 31.729 30.3125 31.8332C30.0677 31.9321 29.8177 31.979 29.5573 31.979C29.2968 31.979 29.0468 31.9321 28.8073 31.8332C28.5677 31.729 28.3541 31.5884 28.1718 31.4061C27.9843 31.2186 27.8437 31.0103 27.7448 30.7707C27.6458 30.5259 27.5937 30.2759 27.5937 30.0155V14.3071C27.5937 14.0467 27.6458 13.7967 27.7448 13.5519C27.8437 13.3123 27.9843 13.104 28.1718 12.9165C28.3541 12.7342 28.5677 12.5936 28.8073 12.4894C29.0468 12.3905 29.2968 12.3436 29.5573 12.3436C29.8177 12.3436 30.0677 12.3905 30.3125 12.4894C30.552 12.5936 30.7656 12.7342 30.9479 12.9165C31.1302 13.104 31.276 13.3123 31.375 13.5519C31.4739 13.7967 31.5208 14.0467 31.5208 14.3071V30.0155Z" fill="black"/>
<path d="M29.5573 39.8335C29.1718 39.8335 28.7916 39.8752 28.4114 39.9481C28.0312 40.0262 27.6614 40.1356 27.302 40.2866C26.9479 40.4325 26.6093 40.6147 26.2864 40.8283C25.9635 41.0418 25.6666 41.2866 25.3958 41.5627C25.1198 41.8335 24.875 42.1304 24.6614 42.4533C24.4479 42.7762 24.2656 43.1147 24.1145 43.4741C23.9687 43.8283 23.8541 44.1981 23.7812 44.5783C23.7031 44.9585 23.6666 45.3387 23.6666 45.7293C23.6666 46.1147 23.7031 46.495 23.7812 46.8752C23.8541 47.2554 23.9687 47.6252 24.1145 47.9845C24.2656 48.3387 24.4479 48.6772 24.6614 49.0002C24.875 49.3231 25.1198 49.62 25.3958 49.896C25.6666 50.1668 25.9635 50.4116 26.2864 50.6252C26.6093 50.8387 26.9479 51.021 27.302 51.172C27.6614 51.3179 28.0312 51.4325 28.4114 51.5054C28.7916 51.5835 29.1718 51.62 29.5573 51.62C29.9479 51.62 30.3281 51.5835 30.7083 51.5054C31.0885 51.4325 31.4583 51.3179 31.8125 51.172C32.1718 51.021 32.5104 50.8387 32.8333 50.6252C33.1562 50.4116 33.4531 50.1668 33.7239 49.896C34 49.62 34.2448 49.3231 34.4583 49.0002C34.6718 48.6772 34.8541 48.3387 35 47.9845C35.151 47.6252 35.2604 47.2554 35.3385 46.8752C35.4114 46.495 35.4531 46.1147 35.4531 45.7293C35.4479 45.3387 35.4114 44.9585 35.3385 44.5783C35.2604 44.1981 35.151 43.8335 35 43.4741C34.8541 43.1147 34.6718 42.7762 34.4583 42.4585C34.2395 42.1356 33.9948 41.8387 33.7239 41.5627C33.4479 41.2918 33.151 41.047 32.8333 40.8335C32.5104 40.6147 32.1718 40.4325 31.8125 40.2866C31.4531 40.1356 31.0885 40.0262 30.7083 39.9481C30.3281 39.8752 29.9479 39.8387 29.5573 39.8335ZM29.5573 47.6929C29.2968 47.6929 29.0468 47.6408 28.8073 47.5418C28.5677 47.4429 28.3541 47.3022 28.1718 47.1147C27.9843 46.9325 27.8437 46.7189 27.7448 46.4793C27.6458 46.2397 27.5937 45.9897 27.5937 45.7293C27.5937 45.4689 27.6458 45.2189 27.7448 44.9741C27.8437 44.7345 27.9843 44.521 28.1718 44.3387C28.3541 44.1564 28.5677 44.0106 28.8073 43.9116C29.0468 43.8127 29.2968 43.7658 29.5573 43.7658C29.8177 43.7658 30.0677 43.8127 30.3125 43.9116C30.552 44.0106 30.7656 44.1564 30.9479 44.3387C31.1302 44.521 31.276 44.7345 31.375 44.9741C31.4739 45.2189 31.5208 45.4689 31.5208 45.7293C31.5208 45.9897 31.4739 46.2397 31.375 46.4793C31.276 46.7189 31.1302 46.9325 30.9479 47.1147C30.7656 47.3022 30.552 47.4429 30.3125 47.5418C30.0677 47.6408 29.8177 47.6929 29.5573 47.6929Z" fill="black"/>
</svg>
