<svg width="48" height="48" viewBox="0 0 48 48" fill="none" xmlns="http://www.w3.org/2000/svg">
<path opacity="0.4" d="M32.6656 44H15.3324C8.55379 44 4 39.2458 4 32.1686V15.8334C4 8.75623 8.55379 4 15.3324 4H32.6676C39.4462 4 44 8.75623 44 15.8334V32.1686C44 39.2458 39.4462 44 32.6656 44Z" fill="#136BE1"/>
<path d="M30.8567 26.1791C31.3007 25.5971 32.9487 23.7771 35.0787 25.0731C36.4367 25.8891 37.5787 26.9931 38.8007 28.1751C39.2667 28.6271 39.6007 29.1431 39.8207 29.6931C40.4867 31.3571 40.1407 33.3571 39.4287 35.0051C38.5847 36.9671 36.9687 38.4491 34.9327 39.0971C34.0287 39.3871 33.0807 39.5111 32.1347 39.5111H15.3727C13.7047 39.5111 12.2287 39.1231 11.0187 38.3951C10.2607 37.9391 10.1267 36.8891 10.6887 36.2051C11.6287 35.0651 12.5567 33.9211 13.4927 32.7671C15.2767 30.5591 16.4787 29.9191 17.8147 30.4811C18.3567 30.7131 18.9007 31.0631 19.4607 31.4311C20.9527 32.4191 23.0267 33.7751 25.7587 32.3031C27.6387 31.2751 28.7247 29.5111 29.6727 27.9831C30.0607 27.3611 30.4287 26.7411 30.8567 26.1791ZM17.5199 12.3779C20.2599 12.3779 22.4899 14.6099 22.4899 17.3499C22.4899 20.0899 20.2599 22.3199 17.5199 22.3199C14.7779 22.3199 12.5499 20.0899 12.5499 17.3499C12.5499 14.6099 14.7779 12.3779 17.5199 12.3779Z" fill="#136BE1"/>
</svg>
