<svg width="58" height="52" viewBox="0 0 58 52" fill="none" xmlns="http://www.w3.org/2000/svg">
<path d="M51.6615 25.6096C51.6615 39.6825 40.2552 51.0888 26.1823 51.0888C12.1094 51.0888 0.703125 39.6669 0.703125 25.6096C0.703125 11.5471 12.1094 0.125244 26.1771 0.125244C27.875 0.125244 29.5573 0.291911 31.2188 0.625244C32.8802 0.958578 34.4948 1.45337 36.0573 2.11483C37.625 2.77108 39.1042 3.57837 40.5104 4.53149C41.9115 5.48983 43.2031 6.57316 44.3906 7.7867L40.5885 11.5888C38.7135 9.6565 36.5365 8.1617 34.0573 7.10441C31.5781 6.04712 28.9948 5.51587 26.3021 5.50545C15.2604 5.43774 6.16146 14.4065 6.07812 25.4586C6.07292 26.1669 6.10417 26.8805 6.17708 27.5888C6.24479 28.2971 6.35417 29.0002 6.5 29.6982C6.64583 30.3961 6.82813 31.0836 7.04688 31.7607C7.26563 32.4377 7.52083 33.1044 7.80729 33.7555C8.09896 34.4065 8.42188 35.0419 8.77604 35.6565C9.13542 36.2763 9.52083 36.87 9.94271 37.4482C10.3646 38.0211 10.8125 38.5732 11.2917 39.0992C11.7708 39.6305 12.276 40.1305 12.8073 40.6044C13.3385 41.0784 13.8958 41.5211 14.474 41.9377C15.0521 42.3492 15.651 42.7346 16.2708 43.0836C16.8906 43.4377 17.526 43.7555 18.1823 44.0367C18.8333 44.3232 19.5 44.568 20.1823 44.7815C20.8594 44.995 21.5521 45.1721 22.25 45.3075C22.9479 45.4482 23.651 45.5523 24.3594 45.6148C25.0729 45.6773 25.7813 45.7034 26.4948 45.693C27.2083 45.6825 27.9167 45.6357 28.625 45.5471C29.3281 45.4638 30.0313 45.3388 30.724 45.1773C31.4167 45.0159 32.099 44.818 32.776 44.5836C33.4479 44.3492 34.1042 44.0836 34.75 43.7763C35.3958 43.4742 36.0208 43.1357 36.6302 42.7659C37.2396 42.3961 37.8229 41.995 38.3906 41.5627C38.9583 41.1305 39.5 40.6669 40.0156 40.1773C40.5312 39.6877 41.0208 39.1721 41.4844 38.6305C41.9427 38.0836 42.375 37.5211 42.7812 36.9325C43.1823 36.344 43.5521 35.7346 43.8854 35.1096C44.224 34.4794 44.526 33.8388 44.7969 33.1773C45.0677 32.5159 45.2969 31.844 45.4948 31.1617C45.6927 30.4742 45.8542 29.7815 45.9792 29.0836C46.099 28.3805 46.1875 27.6721 46.2344 26.9638C46.2865 26.2502 46.2969 25.5419 46.2656 24.8284C46.2396 24.1148 46.1771 23.4065 46.0729 22.7034C45.974 21.995 45.8333 21.3023 45.6562 20.6096L49.9219 16.344C51.0833 19.3232 51.6615 22.4117 51.6615 25.6096ZM27.4479 26.5523L21.349 20.4482C20.9948 20.0992 20.6146 19.7815 20.2031 19.5055C19.7865 19.2294 19.3542 19.0002 18.8958 18.8075C18.4323 18.62 17.9635 18.4742 17.474 18.3752C16.9896 18.2815 16.4948 18.2346 16 18.2346C15.5 18.2346 15.0104 18.2815 14.5208 18.3752C14.0365 18.4742 13.5625 18.62 13.1042 18.8075C12.6458 19.0002 12.2083 19.2294 11.7917 19.5055C11.3802 19.7815 11 20.0992 10.6458 20.4482L22.0938 31.9013L26.2708 36.0784C26.4271 36.2346 26.6094 36.3544 26.8125 36.4377C27.0156 36.5263 27.224 36.568 27.4479 36.568C27.6667 36.568 27.875 36.5263 28.0781 36.4377C28.2813 36.3544 28.4635 36.2346 28.6198 36.0784L32.7969 31.9013L57.7031 6.98983C57.349 6.64087 56.9688 6.32316 56.5573 6.04712C56.1406 5.77108 55.7083 5.54191 55.2448 5.3492C54.7865 5.1617 54.3125 5.01587 53.8281 4.92212C53.3385 4.82316 52.849 4.77629 52.349 4.77629C51.8542 4.77629 51.3646 4.82316 50.875 4.92212C50.3854 5.01587 49.9167 5.1617 49.4531 5.3492C48.9948 5.54191 48.5573 5.77108 48.1458 6.04712C47.7344 6.32316 47.349 6.64087 47 6.98983L27.4479 26.5523Z" fill="#00BF15"/>
</svg>
