<svg width="133" height="133" viewBox="0 0 133 133" fill="none" xmlns="http://www.w3.org/2000/svg">
<mask id="mask0_19_8" style="mask-type:luminance" maskUnits="userSpaceOnUse" x="0" y="0" width="133" height="133">
<path d="M0.682373 0.651062H132.682V132.651H0.682373V0.651062Z" fill="white"/>
</mask>
<g mask="url(#mask0_19_8)">
<path d="M66.6876 0.651062C30.2345 0.651062 0.682373 30.2031 0.682373 66.6563C0.682373 103.115 30.2345 132.667 66.6876 132.667C103.146 132.667 132.698 103.115 132.698 66.6563C132.698 30.2031 103.146 0.651062 66.6876 0.651062ZM105.073 68.5261C103.188 70.4063 100.412 70.8438 98.1147 69.8386V94.875C98.1147 100.083 93.8907 104.302 88.6876 104.302H44.6928C39.4845 104.302 35.2657 100.083 35.2657 94.875V69.8386C32.9636 70.8438 30.1876 70.4063 28.3074 68.5261C25.8542 66.0677 25.8542 62.0886 28.3074 59.6354L62.2449 25.6979C64.698 23.2448 68.6772 23.2448 71.1303 25.6979L105.073 59.6354C107.526 62.0886 107.526 66.0677 105.073 68.5261Z" fill="white"/>
</g>
<path d="M74.5469 69.7344H58.8333C57.099 69.7344 55.6875 71.1458 55.6875 72.8802V91.7344C55.6875 93.4688 57.099 94.875 58.8333 94.875H74.5469C76.2813 94.875 77.6875 93.4688 77.6875 91.7344V72.8802C77.6875 71.1458 76.2813 69.7344 74.5469 69.7344Z" fill="white"/>
</svg>
