<svg width="50" height="53" viewBox="0 0 50 53" fill="none" xmlns="http://www.w3.org/2000/svg">
<mask id="mask0_16_12" style="mask-type:luminance" maskUnits="userSpaceOnUse" x="11" y="0" width="39" height="53">
<path d="M11.6665 0.927124H49.1665V52.6667H11.6665V0.927124Z" fill="white"/>
</mask>
<g mask="url(#mask0_16_12)">
<path d="M47.4894 30.3178C47.5988 29.4793 49.1457 28.2397 49.1925 27.3959C49.2863 25.8595 47.2082 22.8595 45.7863 22.2813C43.5207 21.3647 32.0207 21.797 32.0207 21.797C30.9009 19.8282 34.0259 14.9793 34.8853 12.8855C36.1457 9.8126 35.9373 5.73968 34.3384 3.65114C32.3905 1.09384 28.8123 0.92197 28.7342 2.0678C28.203 10.3647 26.6144 12.6668 24.4894 14.3022C23.2134 15.2918 22.0936 16.1511 21.505 17.6563C17.88 26.8855 15.1978 29.0209 13.6613 29.0209H12.6353V50.0001L23.38 51.9949C23.38 51.9949 36.7186 53.2605 40.9165 51.9949C42.2342 51.5991 44.5155 49.6147 45.0571 48.3438C45.3644 47.6095 44.9373 45.8803 45.3019 45.1772C45.8384 44.1303 48.104 42.823 48.104 41.4011C48.0988 40.3907 46.9217 38.6355 47.005 37.6251C47.0884 36.6147 49.1978 35.2293 49.1978 34.2136C49.1925 33.1511 47.3488 31.3751 47.4894 30.3178Z" fill="#9DB2B8"/>
</g>
<mask id="mask1_16_12" style="mask-type:luminance" maskUnits="userSpaceOnUse" x="0" y="27" width="12" height="26">
<path d="M0.166504 27.3334H11.6665V52.6667H0.166504V27.3334Z" fill="white"/>
</mask>
<g mask="url(#mask1_16_12)">
<path d="M10.5885 49.4844C10.5885 50.6146 9.67708 51.5313 8.54688 51.5313H2.40625C1.27604 51.5313 0.359375 50.6146 0.359375 49.4844V30.0417C0.359375 28.9115 1.27604 27.9948 2.40625 27.9948H8.54688C9.67708 27.9948 10.5885 28.9115 10.5885 30.0417V49.4844Z" fill="#9DB2B8"/>
</g>
</svg>
