<svg width="25" height="35" viewBox="0 0 25 35" fill="none" xmlns="http://www.w3.org/2000/svg">
<path fill-rule="evenodd" clip-rule="evenodd" d="M12.2083 0C18.9531 0 24.4219 5.46354 24.4219 12.2083C24.4219 14.5573 23.7604 16.75 22.6094 18.6094C21.2344 20.8906 19.8594 23.1667 18.4844 25.4479C16.8073 28.1719 15.4479 30.375 13.776 33.099C12.2969 35.5052 12.1979 35.5625 10.7135 33.1458C9.04688 30.4375 7.64062 28.1562 5.97396 25.4479C4.60417 23.1927 3.22917 20.9375 1.85417 18.6875C0.682291 16.8073 0 14.5885 0 12.2083C0 5.46354 5.46354 0 12.2083 0ZM12.2083 6.11979C15.2344 6.11979 17.6823 8.57292 17.6823 11.5938C17.6823 14.6198 15.2344 17.0677 12.2083 17.0677C9.1875 17.0677 6.73438 14.6198 6.73438 11.5938C6.73438 8.57292 9.1875 6.11979 12.2083 6.11979Z" fill="#00BF63"/>
</svg>
