<svg width="27" height="27" viewBox="0 0 27 27" fill="none" xmlns="http://www.w3.org/2000/svg">
<path d="M14.7864 0.755249V3.224H21.8021L15.9792 9.04171C12.0989 6.02608 6.46874 6.29171 2.90103 9.85421C-0.958344 13.7136 -0.958344 20 2.90103 23.8594C4.83332 25.7917 7.36978 26.7552 9.90624 26.7552C12.4427 26.7552 14.9792 25.7917 16.9114 23.8594C18.7812 21.9896 19.8125 19.5 19.8125 16.8594C19.8125 14.6302 19.0677 12.5209 17.7239 10.7917L23.5364 4.97921V11.9896H26.0104V0.755249H14.7864ZM15.1667 22.1146C12.2656 25.0105 7.55207 25.0105 4.65103 22.1146C1.74999 19.2136 1.74999 14.5 4.65103 11.599C6.10416 10.1511 8.0052 9.42712 9.91145 9.42712C11.8125 9.42712 13.7187 10.1511 15.1667 11.599C16.5729 13.0052 17.3489 14.8698 17.3489 16.8542C17.3489 18.8438 16.5729 20.7084 15.1667 22.1146Z" fill="black"/>
</svg>
