<svg width="48" height="53" viewBox="0 0 48 53" fill="none" xmlns="http://www.w3.org/2000/svg">
<mask id="mask0_86_73" style="mask-type:luminance" maskUnits="userSpaceOnUse" x="17" y="46" width="15" height="7">
<path d="M17 46.6665H31.6667V52.7186H17V46.6665Z" fill="white"/>
</mask>
<g mask="url(#mask0_86_73)">
<path d="M23.8281 50.3382C21.9427 50.3382 20.25 49.2184 19.4896 47.4788L17.3281 48.432C18.4635 51.0309 21.0104 52.7184 23.8281 52.7184C26.6875 52.7184 29.2448 51.0101 30.3594 48.359L28.1823 47.4268C27.4375 49.1976 25.7292 50.3382 23.8281 50.3382Z" fill="#231F20"/>
</g>
<mask id="mask1_86_73" style="mask-type:luminance" maskUnits="userSpaceOnUse" x="0" y="0" width="48" height="47">
<path d="M0.15625 0.109375H47.5V46.6667H0.15625V0.109375Z" fill="white"/>
</mask>
<g mask="url(#mask1_86_73)">
<path d="M47.0365 42.2812L40.7969 37.0365C40.5261 36.8073 40.3698 36.4844 40.3698 36.125V21.7448C40.3698 17.1458 38.5521 12.8594 35.2448 9.68229C33.3021 7.81771 30.9896 6.49479 28.4948 5.76042C28.5469 5.39583 28.5677 5.02604 28.5365 4.64063C28.3594 2.60417 26.875 0.875 24.9167 0.4375C23.4844 0.109375 22.0052 0.447918 20.875 1.35938C19.75 2.27083 19.1042 3.625 19.1042 5.07813C19.1042 5.32292 19.1459 5.54167 19.1771 5.77083C12.2761 7.84896 7.2865 14.4063 7.2865 22.1875V36.1146C7.2865 36.474 7.13025 36.8073 6.85942 37.026L0.619832 42.2708C0.348999 42.5 0.192749 42.8333 0.192749 43.1823V44.375C0.192749 45.0365 0.724 45.5729 1.38025 45.5729H46.2761C46.9323 45.5729 47.4636 45.0365 47.4636 44.375V43.1823C47.4532 42.8333 47.2969 42.5 47.0365 42.2812ZM21.4584 5.07813C21.4584 4.34375 21.7813 3.67708 22.3386 3.21354C22.9115 2.75 23.6302 2.58333 24.3907 2.75C25.3334 2.97396 26.0834 3.84375 26.1771 4.83854C26.1875 4.97396 26.1667 5.10938 26.1563 5.24479C25.125 5.09896 24.0886 5.04688 23.0157 5.08854C22.4948 5.10938 21.974 5.16146 21.4688 5.24479C21.4792 5.18229 21.4584 5.13021 21.4584 5.07813ZM3.21879 43.1927L8.36462 38.8646C9.17712 38.1823 9.64587 37.1875 9.64587 36.1146V22.1875C9.64587 14.2917 15.573 7.82813 23.1407 7.46875C27.073 7.28125 30.7813 8.6875 33.6094 11.401C36.4375 14.125 38 17.7917 38 21.7448V36.1146C38 37.1771 38.4688 38.1823 39.2761 38.8646L44.4271 43.1927H3.21879Z" fill="#231F20"/>
</g>
</svg>
