<svg width="50" height="50" viewBox="0 0 50 50" fill="none" xmlns="http://www.w3.org/2000/svg">
<path d="M24.5469 0C11.0104 0 0 11.0104 0 24.5469C0 38.0833 11.0104 49.0938 24.5469 49.0938C38.0833 49.0938 49.0938 38.0833 49.0938 24.5469C49.0938 11.0104 38.0833 0 24.5469 0ZM38.8438 20.5469L36.6198 33.5C36.4948 34.2396 35.8542 34.776 35.1094 34.776H13.9844C13.2396 34.776 12.599 34.2396 12.474 33.5L10.25 20.5469C10.151 19.9792 10.3802 19.4063 10.8385 19.0573C11.3021 18.7135 11.9167 18.6562 12.4323 18.9062L18.3542 21.7917L23.2083 13.0625C23.7448 12.0833 25.349 12.0833 25.8906 13.0625L30.7396 21.7917L36.6615 18.9062C37.1771 18.6562 37.7917 18.7135 38.2552 19.0573C38.7135 19.4063 38.9427 19.9792 38.8438 20.5469Z" fill="black"/>
</svg>
