<svg width="50" height="50" viewBox="0 0 50 50" fill="none" xmlns="http://www.w3.org/2000/svg">
<path d="M1.04708 20.1434C3.70268 8.47229 10.2539 0 16.622 0C17.1335 0 17.6445 0.0547115 18.1423 0.162892C18.4246 0.223822 18.6715 0.427749 18.8243 0.723691C18.9766 1.0215 19.0196 1.38334 18.9422 1.72156L17.6313 7.48374C17.5048 8.04019 17.0682 8.41633 16.6144 8.39084L16.5102 8.38836C14.1485 8.38836 9.83247 12.738 7.6322 22.4052C7.54518 22.7888 7.46271 23.1811 7.38328 23.5902C9.85321 22.0881 12.7997 21.7406 15.468 22.6539C21.4875 24.7236 25.0138 32.4244 23.3311 39.8204C21.9671 45.8133 17.481 50 12.4218 50C11.3912 50 10.3622 49.8253 9.36297 49.4815C5.39348 48.118 2.40903 44.0681 0.959048 38.0802C-0.349781 32.678 -0.316898 26.1406 1.04708 20.1434Z" fill="white"/>
<path d="M42.8727 0.0012207C43.3832 0.0012207 43.8946 0.0546889 44.392 0.16287C44.6738 0.222555 44.9212 0.427726 45.0734 0.723669C45.2257 1.02148 45.2687 1.38332 45.1918 1.72154L43.8805 7.48372C43.754 8.04016 43.3255 8.41631 42.8636 8.39082L42.7604 8.38833C40.3987 8.38833 36.0821 12.7379 33.8819 22.4052C33.7944 22.7913 33.7119 23.1836 33.633 23.5902C36.1039 22.0881 39.0494 21.7406 41.7176 22.6539C47.7361 24.7236 51.2634 32.4243 49.5797 39.8204C48.2157 45.8133 43.7297 50 38.6705 50C37.6399 50 36.6108 49.8253 35.6111 49.4815C31.6421 48.118 28.6577 44.0681 27.2072 38.0802C25.8989 32.678 25.9313 26.1399 27.2957 20.1421C29.9529 8.47227 36.5031 0.0012207 42.8727 0.0012207Z" fill="white"/>
</svg>
