<svg width="46" height="41" viewBox="0 0 46 41" fill="none" xmlns="http://www.w3.org/2000/svg">
<mask id="mask0_87_85" style="mask-type:luminance" maskUnits="userSpaceOnUse" x="0" y="0" width="46" height="41">
<path d="M0 0H45.8125V40.9115H0V0Z" fill="white"/>
</mask>
<g mask="url(#mask0_87_85)">
<path d="M45.0312 18.8802C43.2031 18.8698 41.4219 18.5573 39.6875 17.9427V3.93229C39.6875 3.41146 39.5937 2.90625 39.401 2.42708C39.2031 1.94271 38.9271 1.52083 38.5729 1.15104C38.2135 0.781251 37.8021 0.5 37.3333 0.296875C36.8646 0.098959 36.3802 0 35.875 0H3.82811C3.32291 0 2.83332 0.098959 2.36978 0.296875C1.90103 0.5 1.48957 0.781251 1.1302 1.15104C0.770824 1.52083 0.494783 1.94271 0.302073 2.42708C0.109365 2.90625 0.0104065 3.41146 0.0104065 3.93229V24.3906C0.0104065 24.9115 0.109365 25.4115 0.302073 25.8958C0.494783 26.375 0.770824 26.8021 1.1302 27.1719C1.48957 27.5365 1.90103 27.8229 2.36978 28.0208C2.83332 28.224 3.32291 28.3229 3.82811 28.3229H24.4531C24.9948 37.4583 34.776 40.8385 34.875 40.8698C35.0312 40.9271 35.1927 40.9271 35.3489 40.8698C35.4531 40.8385 45.7917 37.2656 45.7917 27.5365V19.6667C45.7917 19.4531 45.7187 19.2656 45.5677 19.1146C45.4219 18.9583 45.2396 18.8802 45.0312 18.8802ZM1.53645 3.93229C1.53645 3.61979 1.59895 3.31771 1.71353 3.03125C1.82812 2.73958 1.99478 2.48437 2.20832 2.26563C2.42707 2.04167 2.67186 1.875 2.95311 1.75521C3.23436 1.63542 3.52603 1.57292 3.82811 1.57292H35.875C36.1771 1.57292 36.4687 1.63542 36.75 1.75521C37.0312 1.875 37.276 2.04167 37.4896 2.26563C37.7031 2.48437 37.8698 2.73958 37.9896 3.03125C38.1042 3.31771 38.1614 3.61979 38.1614 3.93229V4.71875H1.53645V3.93229ZM25.1927 18.8802C24.9792 18.8802 24.8021 18.9583 24.651 19.1146C24.5052 19.2656 24.4271 19.4531 24.4271 19.6667V26.75H3.82811C3.52603 26.75 3.23436 26.6875 2.95311 26.5677C2.67186 26.4479 2.42707 26.276 2.20832 26.0573C1.99478 25.8333 1.82812 25.5781 1.71353 25.2917C1.59895 25 1.53645 24.7031 1.53645 24.3906V12.5885H38.1614V17.3385C37.25 16.9375 36.3854 16.4531 35.5625 15.8854C35.2604 15.6667 34.9635 15.6667 34.6614 15.8854C31.7864 17.8229 28.6302 18.8229 25.1927 18.8802ZM40.9948 25.7344L34.125 32.8125C33.9739 32.9688 33.7969 33.0417 33.5833 33.0417C33.375 33.0417 33.1927 32.9688 33.0417 32.8125L29.2292 28.8802C29.0781 28.724 29.0052 28.5417 29.0052 28.3229C29.0052 28.1042 29.0833 27.9219 29.2292 27.7656C29.3802 27.6146 29.5573 27.5365 29.7708 27.5365C29.9792 27.5365 30.1614 27.6094 30.3125 27.7656L33.5833 31.1458L39.9114 24.6146C40.0625 24.4635 40.2396 24.3854 40.4531 24.3854C40.6614 24.3854 40.8437 24.4635 40.9896 24.6198C41.1406 24.7708 41.2135 24.9583 41.2187 25.1771C41.2187 25.3958 41.1406 25.5781 40.9948 25.7344ZM13.7448 16.5208V22.8125C13.7448 23.0313 13.6719 23.2187 13.5208 23.3698C13.375 23.526 13.1927 23.599 12.9844 23.6042H5.35416C5.14062 23.599 4.96353 23.526 4.81249 23.3698C4.66666 23.2187 4.58853 23.0313 4.58853 22.8125V16.5208C4.58853 16.3021 4.66666 16.1198 4.81249 15.9635C4.96353 15.8125 5.14062 15.7344 5.35416 15.7344H12.9844C13.1927 15.7344 13.375 15.8125 13.5208 15.9635C13.6719 16.1198 13.7448 16.3021 13.7448 16.5208Z" fill="black"/>
</g>
</svg>
