<svg width="51" height="51" viewBox="0 0 51 51" fill="none" xmlns="http://www.w3.org/2000/svg">
<circle cx="25" cy="26" r="18" fill="white"/>
<mask id="mask0_56_22" style="mask-type:luminance" maskUnits="userSpaceOnUse" x="0" y="0" width="51" height="51">
<path d="M0 0H50.8698V51H0V0Z" fill="white"/>
</mask>
<g mask="url(#mask0_56_22)">
<mask id="mask1_56_22" style="mask-type:luminance" maskUnits="userSpaceOnUse" x="0" y="0" width="51" height="51">
<path d="M0 7V43.849C0 47.7135 3.13021 50.849 7 50.849H43.8438C47.7083 50.849 50.8438 47.7135 50.8438 43.849V7C50.8438 3.13542 47.7083 0 43.8438 0H7C3.13021 0 0 3.13542 0 7Z" fill="white"/>
</mask>
<g mask="url(#mask1_56_22)">
<path d="M25.474 -0.015625C11.3958 -0.015625 -0.015625 11.401 -0.015625 25.4792C-0.015625 39.5573 11.3958 50.9688 25.474 50.9688C39.5521 50.9688 50.9688 39.5573 50.9688 25.4792C50.9688 11.3958 39.5521 -0.015625 25.474 -0.015625ZM18.8438 13.8333L24.2292 8.44271C24.5833 8.08854 25.0469 7.91667 25.5052 7.91667C25.5104 7.91667 25.5156 7.91667 25.5208 7.91667C25.526 7.91667 25.5313 7.91667 25.5313 7.91667C25.9948 7.91667 26.4583 8.08854 26.8125 8.44271L32.1979 13.8333C32.9063 14.5365 32.9063 15.6823 32.1979 16.3854C31.849 16.7396 31.3854 16.9167 30.9219 16.9167C30.4583 16.9167 30 16.7396 29.6458 16.3854L27.2656 14.0052V23.6719C27.2656 24.6719 26.4583 25.4792 25.4583 25.4792C24.4635 25.4792 23.6563 24.6719 23.6563 23.6719V14.125L21.3958 16.3854C21.0417 16.7396 20.5781 16.9167 20.1198 16.9167C19.6563 16.9167 19.1927 16.7396 18.8438 16.3854C18.1354 15.6823 18.1354 14.5365 18.8438 13.8333ZM39.3385 35.5573C39.3385 37.9948 36.9479 39.9063 33.901 39.9063H17.0521C14 39.9063 11.6146 37.9948 11.6146 35.5573V23.8333C11.6146 21.3958 14 19.4844 17.0521 19.4844H19.3281C19.5833 19.5313 19.849 19.5573 20.1198 19.5573C20.3854 19.5573 20.6458 19.5313 20.9063 19.4844H21.0104V23.0104H17.0521C15.8177 23.0104 15.1406 23.625 15.1406 23.8333V35.5573C15.1406 35.7604 15.8177 36.3802 17.0521 36.3802H33.901C35.1354 36.3802 35.8125 35.7604 35.8125 35.5573V23.8333C35.8125 23.625 35.1354 23.0104 33.901 23.0104H29.9115V19.4844H30.151C30.4063 19.5313 30.6615 19.5573 30.9219 19.5573C31.1927 19.5573 31.4531 19.5313 31.7135 19.4844H33.901C36.9531 19.4844 39.3385 21.3958 39.3385 23.8333V35.5573Z" fill="black"/>
</g>
</g>
</svg>
