<svg width="53" height="53" viewBox="0 0 53 53" fill="none" xmlns="http://www.w3.org/2000/svg">
<mask id="mask0_4_15192" style="mask-type:luminance" maskUnits="userSpaceOnUse" x="0" y="0" width="53" height="53">
<path d="M0.25 0.588623H52.25V52.5886H0.25V0.588623Z" fill="white"/>
</mask>
<g mask="url(#mask0_4_15192)">
<path d="M26.4063 0.572998C11.9479 0.572998 0.234375 12.2865 0.234375 26.7449C0.234375 41.198 11.9479 52.9167 26.4063 52.9167C40.8594 52.9167 52.5781 41.198 52.5781 26.7449C52.5781 12.2865 40.8594 0.572998 26.4063 0.572998ZM19.5938 14.7865L25.1302 9.25529C25.4896 8.89071 25.9635 8.71362 26.4375 8.71362C26.4427 8.71362 26.4479 8.71362 26.4531 8.71362C26.4583 8.71362 26.4583 8.71362 26.4635 8.71362C26.9375 8.71362 27.4115 8.89071 27.776 9.25529L33.3073 14.7865C34.0313 15.5105 34.0313 16.6876 33.3073 17.4063C32.9479 17.7709 32.4687 17.9532 31.9948 17.9532C31.5208 17.9532 31.0469 17.7709 30.6875 17.4063L28.2396 14.9636V24.8907C28.2396 25.9167 27.4115 26.7449 26.3906 26.7449C25.3646 26.7449 24.5365 25.9167 24.5365 24.8907V15.0886L22.2135 17.4063C21.8542 17.7709 21.3802 17.9532 20.9063 17.9532C20.4323 17.9532 19.9583 17.7709 19.5938 17.4063C18.8698 16.6876 18.8698 15.5105 19.5938 14.7865ZM40.6406 37.0938C40.6406 39.5938 38.1875 41.5522 35.0521 41.5522H17.7552C14.625 41.5522 12.1719 39.5938 12.1719 37.0938V25.0522C12.1719 22.5522 14.625 20.5938 17.7552 20.5938H20.0938C20.3594 20.6407 20.6302 20.6667 20.9063 20.6667C21.1771 20.6667 21.4479 20.6407 21.7135 20.5938H21.8177V24.2136H17.7552C16.4896 24.2136 15.7917 24.8438 15.7917 25.0522V37.0938C15.7917 37.3022 16.4896 37.9324 17.7552 37.9324H35.0573C36.3229 37.9324 37.0208 37.3022 37.0208 37.0938V25.0522C37.0208 24.8438 36.3229 24.2136 35.0573 24.2136H30.9583V20.5938H31.2083C31.4635 20.6355 31.7292 20.6667 31.9948 20.6667C32.2708 20.6667 32.5417 20.6407 32.8125 20.5938H35.0573C38.1875 20.5938 40.6406 22.5522 40.6406 25.0522V37.0938Z" fill="#270A11"/>
</g>
</svg>
