<svg width="133" height="133" viewBox="0 0 133 133" fill="none" xmlns="http://www.w3.org/2000/svg">
<mask id="mask0_25_11" style="mask-type:luminance" maskUnits="userSpaceOnUse" x="0" y="0" width="133" height="133">
<path d="M0.692627 0.651062H132.693V132.651H0.692627V0.651062Z" fill="white"/>
</mask>
<g mask="url(#mask0_25_11)">
<path d="M66.7031 43.4375C79.5156 43.4375 89.9219 53.8437 89.9219 66.6563C89.9219 79.474 79.5156 89.875 66.7031 89.875C53.8906 89.875 43.4844 79.474 43.4844 66.6563C43.4844 53.8437 53.8906 43.4375 66.7031 43.4375Z" stroke="#1D2021" stroke-width="36.464" stroke-miterlimit="10"/>
</g>
<path d="M107.073 118.318C135.604 96.0209 140.656 54.8177 118.359 26.2865L112.083 31.1927C112.167 31.2917 112.245 31.3959 112.328 31.4948C117.365 37.9427 116.385 47.1771 110.219 52.4375C112.042 58.0209 112.745 63.8542 112.375 69.6042C114.385 70.5834 116.208 72.0261 117.682 73.9063C122.854 80.5261 121.682 90.0886 115.062 95.2657C110.766 98.6198 105.234 99.3073 100.464 97.5677C98.776 99.4063 96.9167 101.135 94.8854 102.719C92.724 104.411 90.4531 105.875 88.1094 107.12C88.6823 112.198 86.6823 117.443 82.3594 120.823C75.7396 125.995 66.1771 124.823 61.0052 118.203C59.4375 116.203 58.4583 113.932 58.026 111.599C52.5313 110.536 47.2188 108.474 42.3854 105.448C35.7969 110.161 26.599 108.88 21.5573 102.432C21.4792 102.328 21.401 102.229 21.3229 102.125L15.0469 107.031C37.3385 135.563 78.5417 140.615 107.073 118.318Z" fill="#F1F1F1"/>
<mask id="mask1_25_11" style="mask-type:luminance" maskUnits="userSpaceOnUse" x="14" y="24" width="119" height="109">
<path d="M14 24.3334H132.693V132.651H14V24.3334Z" fill="white"/>
</mask>
<g mask="url(#mask1_25_11)">
<path d="M107.073 118.318C135.604 96.0209 140.656 54.8177 118.359 26.2865L112.083 31.1928C112.167 31.2917 112.245 31.3959 112.328 31.4948C117.365 37.9428 116.385 47.1771 110.219 52.4375C112.042 58.0209 112.745 63.8542 112.375 69.6042C114.385 70.5834 116.208 72.0261 117.682 73.9063C122.854 80.5261 121.682 90.0886 115.063 95.2657C110.766 98.6198 105.234 99.3073 100.464 97.5678C98.7761 99.4063 96.9167 101.135 94.8854 102.719C92.724 104.412 90.4532 105.875 88.1094 107.12C88.6823 112.198 86.6823 117.443 82.3594 120.823C75.7396 125.995 66.1771 124.823 61.0052 118.203C59.4375 116.203 58.4584 113.932 58.0261 111.599C52.5313 110.537 47.2188 108.474 42.3854 105.448C35.7969 110.162 26.599 108.88 21.5573 102.432C21.4792 102.328 21.4011 102.229 21.3229 102.125L15.0469 107.031C37.3386 135.563 78.5417 140.615 107.073 118.318Z" stroke="#F1F1F1" stroke-width="0.0665401" stroke-miterlimit="10"/>
</g>
<mask id="mask2_25_11" style="mask-type:luminance" maskUnits="userSpaceOnUse" x="0" y="0" width="120" height="109">
<path d="M0.692627 0.651062H119.333V108.333H0.692627V0.651062Z" fill="white"/>
</mask>
<g mask="url(#mask2_25_11)">
<path d="M23.4584 81.6771C21.4897 76.0104 20.6824 70.0781 21.0001 64.2188C18.8386 63.2344 16.8751 61.7344 15.3126 59.7344C10.1355 53.1146 11.3074 43.5521 17.9271 38.375C22.2501 35 27.823 34.3281 32.6146 36.1042C34.3855 34.1354 36.3542 32.2865 38.5209 30.5938C40.5521 29.0104 42.6771 27.6198 44.8698 26.4271C44.3334 21.3802 46.3334 16.1771 50.6303 12.8229C57.25 7.64584 66.8125 8.81771 71.9896 15.4375C73.4584 17.3229 74.4167 19.4427 74.8803 21.6302C80.823 22.7031 86.5626 24.9531 91.7292 28.3229C98.198 23.875 107.057 25.0833 112.083 31.1927L118.359 26.2864C96.0625 -2.2448 54.8594 -7.29687 26.3334 15C-2.19786 37.2969 -7.24993 78.5 15.047 107.031L21.323 102.125C16.6095 95.7709 17.573 86.8802 23.4584 81.6771Z" fill="#F1F1F1" stroke="#F1F1F1" stroke-width="0.0665401" stroke-miterlimit="10"/>
</g>
<path d="M57.3074 54.6354C63.823 49.5365 73.672 50.776 78.9011 57.125L88.1147 49.9271C83.2136 43.3177 84.448 33.9739 90.9688 28.8802C91.2188 28.6823 91.4688 28.5 91.7292 28.3229C86.5626 24.9531 80.823 22.7031 74.8803 21.6302C76.0574 27.1406 74.1095 33.0937 69.3699 36.7969C62.7449 41.974 53.1824 40.8021 48.0105 34.1771C46.1928 31.8542 45.1615 29.1615 44.8699 26.4271C42.6772 27.6198 40.5522 29.0104 38.5209 30.5938C36.3543 32.2865 34.3855 34.1354 32.6147 36.1042C35.1615 37.0521 37.4897 38.6979 39.2865 40.9948C44.4636 47.6146 43.2918 57.1771 36.6668 62.3542C32.047 65.9635 25.9949 66.4844 21.0001 64.2188C20.6824 70.0781 21.4897 76.0104 23.4584 81.6771C23.6876 81.4688 23.9272 81.2708 24.1772 81.0729C30.698 75.9792 40.0678 77.0365 45.2918 83.3906L54.9272 75.8594C49.9376 69.526 50.7866 59.7292 57.3074 54.6354Z" fill="#F1F1F1" stroke="#F1F1F1" stroke-width="0.0665401" stroke-miterlimit="10"/>
<path d="M100.464 97.5677C97.8802 96.625 95.5208 94.974 93.7031 92.6459C88.526 86.0261 89.7031 76.4636 96.3229 71.2865C101.062 67.5834 107.307 67.1302 112.375 69.6042C112.745 63.8542 112.042 58.0209 110.219 52.4375C110.052 52.5781 109.88 52.7188 109.708 52.8542C103.083 58.0313 93.5208 56.8542 88.3489 50.2344C88.2708 50.1354 88.1927 50.0313 88.1146 49.9271L86.6146 51.099L80.8542 55.599L78.901 57.125C78.9792 57.2292 79.0625 57.3282 79.1406 57.4323C84.3177 64.0521 83.1458 73.6146 76.5208 78.7865C69.901 83.9636 60.3385 82.7917 55.1667 76.1667C55.0833 76.0678 55.0052 75.9636 54.9323 75.8594L45.2917 83.3907C45.375 83.4896 45.4583 83.5938 45.5365 83.6928C50.7083 90.3178 49.5365 99.875 42.9167 105.052C42.7448 105.188 42.5677 105.318 42.3854 105.448C47.2188 108.474 52.5313 110.537 58.026 111.599C57.0365 106.203 59 100.453 63.6198 96.8438C70.2448 91.6667 79.8073 92.8438 84.9792 99.4636C86.776 101.76 87.8073 104.417 88.1094 107.12C90.4531 105.875 92.724 104.411 94.8854 102.719C96.9167 101.135 98.776 99.4063 100.464 97.5677Z" fill="#F1F1F1" stroke="#F1F1F1" stroke-width="0.0665401" stroke-miterlimit="10"/>
<mask id="mask3_25_11" style="mask-type:luminance" maskUnits="userSpaceOnUse" x="0" y="23" width="54" height="55">
<path d="M0.692627 23H53.9999V77.6667H0.692627V23Z" fill="white"/>
</mask>
<g mask="url(#mask3_25_11)">
<path d="M39.2865 40.9947C44.4584 47.6145 43.2865 57.1822 36.6667 62.3541C30.0521 67.526 20.4792 66.3489 15.3126 59.7343C10.1407 53.1197 11.3126 43.5468 17.9271 38.3749C24.5469 33.2031 34.1146 34.3802 39.2865 40.9947Z" stroke="#1D2021" stroke-width="0.798482" stroke-miterlimit="10"/>
</g>
<path d="M117.682 73.9062C122.849 80.526 121.677 90.0937 115.062 95.2656C108.443 100.437 98.875 99.2604 93.7031 92.6458C88.5312 86.0312 89.7083 76.4583 96.3229 71.2864C102.937 66.1146 112.51 67.2917 117.682 73.9062Z" stroke="#1D2021" stroke-width="0.798482" stroke-miterlimit="10"/>
<mask id="mask4_25_11" style="mask-type:luminance" maskUnits="userSpaceOnUse" x="32" y="0" width="56" height="53">
<path d="M32.6667 0.651062H87.3334V52.3334H32.6667V0.651062Z" fill="white"/>
</mask>
<g mask="url(#mask4_25_11)">
<path d="M71.9896 15.4375C77.1562 22.0573 75.9844 31.625 69.3698 36.7969C62.75 41.9688 53.1823 40.7969 48.0104 34.1771C42.8385 27.5626 44.0156 17.9896 50.6302 12.823C57.2448 7.65109 66.8177 8.82296 71.9896 15.4375Z" stroke="#1D2021" stroke-width="0.798482" stroke-miterlimit="10"/>
</g>
<path d="M21.5574 102.432C16.3855 95.8125 17.5573 86.25 24.1771 81.0729C30.7969 75.9011 40.3594 77.0729 45.5365 83.6927C50.7084 90.3177 49.5365 99.875 42.9167 105.052C36.2969 110.224 26.7344 109.052 21.5574 102.432Z" stroke="#1D2021" stroke-width="0.798482" stroke-miterlimit="10"/>
<path d="M54.6875 75.9896C49.5104 69.3698 50.6822 59.8073 57.3072 54.6354C63.927 49.4584 73.4895 50.6302 78.6614 57.25C83.8385 63.875 82.6666 73.4375 76.0416 78.6094C69.4218 83.7865 59.8593 82.6094 54.6875 75.9896Z" stroke="#1D2021" stroke-width="0.798482" stroke-miterlimit="10"/>
<path d="M88.349 50.2344C83.1719 43.6146 84.349 34.0521 90.9688 28.8802C97.5886 23.7031 107.151 24.875 112.328 31.4948C117.5 38.1198 116.328 47.6823 109.708 52.8542C103.083 58.0313 93.5209 56.8542 88.349 50.2344Z" stroke="#1D2021" stroke-width="0.798482" stroke-miterlimit="10"/>
<mask id="mask5_25_11" style="mask-type:luminance" maskUnits="userSpaceOnUse" x="46" y="81" width="55" height="52">
<path d="M46 81.6667H100.667V132.651H46V81.6667Z" fill="white"/>
</mask>
<g mask="url(#mask5_25_11)">
<path d="M84.9791 99.4635C90.151 106.078 88.9791 115.651 82.3594 120.823C75.7448 125.99 66.1719 124.818 61.0052 118.203C55.8333 111.583 57.0052 102.016 63.6198 96.8438C70.2396 91.6719 79.8073 92.8438 84.9791 99.4635Z" stroke="#1D2021" stroke-width="0.798482" stroke-miterlimit="10"/>
</g>
<mask id="mask6_25_11" style="mask-type:luminance" maskUnits="userSpaceOnUse" x="0" y="0" width="132" height="132">
<path d="M0 0H132V132H0V0Z" fill="white"/>
</mask>
<g mask="url(#mask6_25_11)">
<path d="M117.667 25.6354C95.3699 -2.89581 54.1668 -7.94787 25.6408 14.349C-2.89049 36.6459 -7.94256 77.849 14.3543 106.38C36.646 134.912 77.8543 139.964 106.38 117.667C134.912 95.3698 139.964 54.1667 117.667 25.6354Z" stroke="#1D2021" stroke-width="0.798482" stroke-miterlimit="10"/>
</g>
<path d="M83.7292 53.0833C84.2656 53.7656 84.1406 54.7552 83.4584 55.2864C82.7761 55.8229 81.7917 55.7031 81.2552 55.0156C80.724 54.3333 80.8438 53.3489 81.5261 52.8125C82.2084 52.2812 83.1979 52.401 83.7292 53.0833Z" fill="#1D2021"/>
<path d="M70.5105 46.7709C70.4063 47.6302 69.625 48.2448 68.7605 48.1355C67.9011 48.0313 67.2917 47.25 67.3959 46.3855C67.5 45.5261 68.2813 44.9167 69.1459 45.0209C70.0052 45.125 70.6198 45.9063 70.5105 46.7709Z" fill="#1D2021"/>
<path d="M55.3334 49.9011C55.8647 50.5834 55.7449 51.5729 55.0626 52.1042C54.3803 52.6406 53.3907 52.5209 52.8595 51.8334C52.323 51.1511 52.448 50.1667 53.1303 49.6302C53.8126 49.099 54.797 49.2188 55.3334 49.9011Z" fill="#1D2021"/>
<path d="M46.8125 62.849C47.6771 62.9532 48.2865 63.7396 48.1823 64.599C48.0782 65.4584 47.2917 66.073 46.4323 65.9688C45.573 65.8594 44.9584 65.0782 45.0625 64.2188C45.1719 63.3542 45.9532 62.7448 46.8125 62.849Z" fill="#1D2021"/>
<path d="M52.151 78.2969C52.6822 78.9792 52.5624 79.9688 51.8801 80.5052C51.1978 81.0365 50.2083 80.9167 49.677 80.2344C49.1406 79.5521 49.2603 78.5625 49.9478 78.026C50.6301 77.4948 51.6145 77.6146 52.151 78.2969Z" fill="#1D2021"/>
<path d="M62.8959 86.5469C63.0001 85.6875 63.7813 85.0729 64.6459 85.1771C65.5053 85.2865 66.1147 86.0677 66.0105 86.9271C65.9063 87.7917 65.1199 88.4011 64.2605 88.2969C63.4011 88.1927 62.7865 87.4063 62.8959 86.5469Z" fill="#1D2021"/>
<path d="M80.5468 81.4792C81.0833 82.1667 80.9583 83.151 80.276 83.6875C79.5937 84.2187 78.6041 84.0989 78.0729 83.4167C77.5364 82.7344 77.6614 81.7448 78.3437 81.2135C79.026 80.6771 80.0156 80.7969 80.5468 81.4792Z" fill="#1D2021"/>
<path d="M86.5938 70.4688C85.7292 70.3646 85.1198 69.5781 85.224 68.7188C85.3282 67.8594 86.1146 67.2448 86.974 67.349C87.8334 67.4583 88.448 68.2396 88.3438 69.099C88.2344 69.9636 87.4532 70.5729 86.5938 70.4688Z" fill="#1D2021"/>
</svg>
