<svg width="90" height="105" viewBox="0 0 90 105" fill="none" xmlns="http://www.w3.org/2000/svg">
<path d="M49.7396 21H38.9427C37.8698 21 37 21.8698 37 22.9427C37 24.0208 37.8698 24.8906 38.9427 24.8906H49.7448C50.8177 24.8906 51.6875 24.0208 51.6875 22.9427C51.6875 21.8698 50.8125 21 49.7396 21Z" fill="#270A11"/>
<path d="M77.5 42.6667H69.5365C67.5885 42.6667 66 41.0833 66 39.1354V36.5365C66 34.5885 67.5885 33 69.5365 33H77.5C79.4479 33 81.0313 34.5885 81.0313 36.5365V39.1354C81.0365 41.0833 79.4479 42.6667 77.5 42.6667ZM69.8906 38.7865H77.1563V36.8854H69.8906V38.7865Z" fill="#270A11"/>
<path d="M12.4115 83.8281C9.42708 83.8281 7 81.401 7 78.4167C7 75.4271 9.42708 73 12.4115 73C15.3958 73 17.8229 75.4271 17.8229 78.4167C17.8229 81.401 15.3958 83.8281 12.4115 83.8281ZM12.4115 76.8854C11.5677 76.8854 10.8802 77.5729 10.8802 78.4167C10.8802 79.2552 11.5677 79.9427 12.4115 79.9427C13.2552 79.9427 13.9427 79.2552 13.9427 78.4167C13.9427 77.5729 13.2552 76.8854 12.4115 76.8854Z" fill="#270A11"/>
<mask id="mask0_328_373" style="mask-type:luminance" maskUnits="userSpaceOnUse" x="0" y="14" width="90" height="77">
<path d="M0 14.8022H90V90.8022H0V14.8022Z" fill="white"/>
</mask>
<g mask="url(#mask0_328_373)">
<path d="M81.3747 27.3074H62.5934L60.182 19.1407C59.5518 17.0209 57.4059 15.5417 54.9476 15.5417H34.932C32.4736 15.5417 30.3226 17.0157 29.6976 19.1407L27.2861 27.3022H22.2966V24.2813C22.2966 22.5001 20.8434 21.0574 19.0674 21.0574H11.234C9.44759 21.0574 8.00488 22.5053 8.00488 24.2813V27.349C3.65593 27.6251 0.192383 31.2032 0.192383 35.6199V81.5938C0.192383 86.1772 3.91634 89.9063 8.50488 89.9063H81.3747C85.9632 89.9063 89.6872 86.1772 89.6872 81.5938V35.6199C89.6872 31.0313 85.9632 27.3074 81.3747 27.3074ZM33.4268 20.2397C33.5466 19.8386 34.1403 19.422 34.9372 19.422H54.9476C55.7445 19.422 56.3382 19.8386 56.458 20.2345L58.5413 27.3022H31.3434L33.4268 20.2397ZM11.8799 24.9428H18.4111V27.3074H11.8799V24.9428ZM8.50488 31.1876H81.3747C83.8174 31.1876 85.807 33.1772 85.807 35.6199V44.2761H63.557C59.2966 38.422 52.4059 34.599 44.6247 34.599C36.8434 34.599 29.958 38.422 25.6872 44.2761H4.07259V35.6199C4.07259 33.1772 6.06217 31.1876 8.50488 31.1876ZM44.6299 38.4845C55.4111 38.4845 64.1872 47.2553 64.1872 58.0417C64.1872 68.823 55.4111 77.599 44.6299 77.599C33.8434 77.599 25.0726 68.823 25.0726 58.0417C25.0726 47.2553 33.8434 38.4845 44.6299 38.4845ZM81.3747 86.0209H8.50488C6.06217 86.0209 4.07259 84.0365 4.07259 81.5938V48.1563H23.4007C21.9945 51.1667 21.1872 54.5053 21.1872 58.0417C21.1872 70.9636 31.7028 81.4793 44.6299 81.4793C57.557 81.4793 68.0674 70.9636 68.0674 58.0417C68.0674 54.5053 67.2653 51.1667 65.8591 48.1563H85.807V81.5938C85.807 84.0365 83.8174 86.0209 81.3747 86.0209Z" fill="#270A11"/>
</g>
<path d="M44.6305 75.9063C34.7764 75.9063 26.7607 67.8906 26.7607 58.0417C26.7607 48.1875 34.7816 40.1719 44.6305 40.1719C54.4847 40.1719 62.4951 48.1927 62.4951 58.0417C62.4951 67.8906 54.4795 75.9063 44.6305 75.9063ZM44.6305 44.0573C36.917 44.0573 30.6462 50.3281 30.6462 58.0417C30.6462 65.75 36.917 72.026 44.6305 72.026C52.3389 72.026 58.6149 65.75 58.6149 58.0417C58.6149 50.3281 52.3389 44.0573 44.6305 44.0573Z" fill="#270A11"/>
<path d="M33.4788 59.9792C32.4059 59.9792 31.5361 59.1095 31.5361 58.0365C31.5361 50.8178 37.4059 44.948 44.6247 44.948C45.6976 44.948 46.5674 45.8178 46.5674 46.8907C46.5674 47.9636 45.6976 48.8334 44.6247 48.8334C39.5465 48.8334 35.4163 52.9636 35.4163 58.0417C35.4163 59.1095 34.5518 59.9792 33.4788 59.9792Z" fill="#270A11"/>
<mask id="mask1_328_373" style="mask-type:luminance" maskUnits="userSpaceOnUse" x="41" y="0" width="6" height="10">
<path d="M41.625 0H46.9583V9.46875H41.625V0Z" fill="white"/>
</mask>
<g mask="url(#mask1_328_373)">
<path d="M44.724 9.28125C43.651 9.28125 42.7812 8.41146 42.7812 7.33333V1.94271C42.7812 0.869791 43.651 0 44.724 0C45.8021 0 46.6719 0.869791 46.6719 1.94271V7.33854C46.6667 8.41146 45.7917 9.28125 44.724 9.28125Z" fill="#270A11"/>
</g>
<path d="M35.1982 12.2397C34.6982 12.2397 34.2035 12.0522 33.8232 11.6668L30.0107 7.85433C29.2555 7.09912 29.2555 5.86995 30.0107 5.11475C30.7712 4.35433 32.0003 4.35433 32.7555 5.11475L36.568 8.92725C37.3285 9.68245 37.3285 10.9116 36.568 11.6668C36.193 12.0522 35.693 12.2397 35.1982 12.2397Z" fill="#270A11"/>
<path d="M54.6826 12.2397C54.1826 12.2397 53.6878 12.0522 53.3076 11.6668C52.5524 10.9116 52.5524 9.68245 53.3076 8.92725L57.1201 5.11475C57.8753 4.35433 59.1045 4.35433 59.8649 5.11475C60.6201 5.86995 60.6201 7.09912 59.8649 7.85433L56.0524 11.6668C55.6774 12.0522 55.1826 12.2397 54.6826 12.2397Z" fill="#270A11"/>
<mask id="mask2_328_373" style="mask-type:luminance" maskUnits="userSpaceOnUse" x="41" y="96" width="6" height="10">
<path d="M41.625 96.1357H46.9583V105H41.625V96.1357Z" fill="white"/>
</mask>
<g mask="url(#mask2_328_373)">
<path d="M44.724 105.448C43.651 105.448 42.7812 104.578 42.7812 103.506V98.1097C42.7812 97.0368 43.651 96.167 44.724 96.167C45.8021 96.167 46.6719 97.0368 46.6719 98.1097V103.511C46.6667 104.584 45.7917 105.448 44.724 105.448Z" fill="#270A11"/>
</g>
<path d="M31.3799 100.911C30.8799 100.911 30.3851 100.719 30.0049 100.339C29.2497 99.5833 29.2497 98.3542 30.0049 97.5937L33.8174 93.7812C34.5778 93.026 35.807 93.026 36.5622 93.7812C37.3174 94.5417 37.3174 95.7708 36.5622 96.526L32.7497 100.339C32.3747 100.714 31.8799 100.911 31.3799 100.911Z" fill="#270A11"/>
<path d="M58.5 100.911C58 100.911 57.5052 100.719 57.125 100.339L53.3125 96.526C52.5573 95.7708 52.5573 94.5417 53.3125 93.7812C54.0677 93.026 55.2969 93.026 56.0573 93.7812L59.8698 97.5937C60.625 98.3542 60.625 99.5833 59.8698 100.339C59.4948 100.714 58.9948 100.911 58.5 100.911Z" fill="#270A11"/>
</svg>
