<svg width="149" height="147" viewBox="0 0 149 147" fill="none" xmlns="http://www.w3.org/2000/svg">
<mask id="mask0_20_9" style="mask-type:luminance" maskUnits="userSpaceOnUse" x="13" y="0" width="136" height="130">
<path d="M13.6667 0.53125H148.037V130H13.6667V0.53125Z" fill="white"/>
</mask>
<g mask="url(#mask0_20_9)">
<path d="M148.031 69.3542C148.031 31.4063 117.042 0.53125 78.9584 0.53125C49.6095 0.53125 24.4792 18.8698 14.4949 44.6458C16.9115 44.7083 19.2501 45.5833 21.099 47.1406L24.7449 50.2135C32.6667 27.9948 53.9793 12.0417 78.9584 12.0417C110.677 12.0417 136.479 37.75 136.479 69.3542C136.479 90.8698 124.516 109.651 106.87 119.448L108.818 121.094C111.375 123.25 112.646 126.359 112.568 129.458C133.703 117.677 148.031 95.1511 148.031 69.3542Z" fill="black"/>
</g>
<mask id="mask1_20_9" style="mask-type:luminance" maskUnits="userSpaceOnUse" x="0" y="49" width="108" height="98">
<path d="M0.046875 49.1979H107.99V146.531H0.046875V49.1979Z" fill="white"/>
</mask>
<g mask="url(#mask1_20_9)">
<path d="M105.839 124.609L91.0417 112.135C90.3385 111.547 89.4115 110.76 87.4583 110.76C85.3698 110.76 82.1198 111.656 76.724 114.625C75.3802 115.37 73.8958 115.781 72.4323 115.781C71.1562 115.781 69.8854 115.469 68.7292 114.802C55.4635 107.198 43.6875 97.2709 33.9635 85.4948C32.1302 83.2813 31.8542 80.3125 32.8125 77.6094C36.7813 66.3959 34.3594 64.3542 32.9063 63.125L18.1146 50.6563C16.9844 49.7032 15.6094 49.2396 14.2396 49.2396C12.5313 49.2396 10.8385 49.9584 9.65104 51.3594L3.32813 58.8021C0.41146 62.2344 -3.23958 72.4115 5.64584 86.5313C23.2917 110.12 46.1198 129.37 72.3906 142.797H72.3958C78.3021 145.531 83.0781 146.531 86.9115 146.531C94.3646 146.531 98.2969 142.755 100.219 140.49L106.542 133.042C108.682 130.521 108.37 126.745 105.839 124.609Z" fill="black"/>
</g>
<path d="M64.5157 66.8646C63.7918 66.1511 62.9324 65.5469 61.9689 65.0625C61.0939 64.6302 60.1668 64.2605 59.2084 63.9636C58.3074 63.6875 57.3647 63.4427 56.4116 63.2396C55.5157 63.0469 54.6355 62.8594 53.7866 62.6823C52.448 62.4063 51.323 62.1094 50.4532 61.8021C49.6928 61.5313 49.1043 61.2396 48.6876 60.9271C48.3907 60.698 48.1876 60.4688 48.0887 60.2448C47.9637 59.948 47.8959 59.5677 47.8959 59.1094C47.8959 58.1459 48.2397 57.474 49.0105 56.9271C49.9637 56.2448 51.5262 55.8959 53.6512 55.8959C54.6824 55.8959 55.5887 56.0052 56.3595 56.224C57.0887 56.4323 57.7084 56.7136 58.2084 57.0573C58.6876 57.3907 59.0626 57.7657 59.3543 58.2136C59.6616 58.6771 59.8855 59.1875 60.0209 59.724C60.2553 60.6563 61.0939 61.3073 62.0574 61.3073H64.0834C64.6876 61.3073 65.2657 61.0469 65.6616 60.5938C66.0626 60.1355 66.2449 59.5365 66.1616 58.9375C65.9689 57.4792 65.5001 56.1459 64.7814 54.974C64.0626 53.8073 63.1147 52.8021 61.9584 51.9948C60.8439 51.2084 59.5418 50.6094 58.0887 50.2032C56.6824 49.8125 55.1251 49.6146 53.4637 49.6146C51.7918 49.6146 50.2293 49.8334 48.8126 50.2552C47.3595 50.698 46.0782 51.3334 45.0105 52.1511C43.8959 53 43.0157 54.0469 42.4012 55.2448C41.7762 56.4688 41.4637 57.8177 41.4637 59.2657C41.4637 60.5938 41.7032 61.7969 42.172 62.8438C42.6564 63.9115 43.4012 64.8646 44.3907 65.6719C45.2866 66.4115 46.4168 67.0521 47.7397 67.5886C48.9741 68.0834 50.4532 68.5209 52.1407 68.8959H52.1512L52.1564 68.9011H52.1668C54.0157 69.2917 55.573 69.6719 56.8022 70.0365C57.9116 70.3698 58.7918 70.7344 59.422 71.125C59.8751 71.4063 60.1876 71.7084 60.3439 72.0157C60.5262 72.3698 60.6199 72.8698 60.6199 73.5C60.6199 74.0677 60.5053 74.5469 60.2814 74.974C60.047 75.4115 59.7084 75.7865 59.2449 76.1146C58.7293 76.4792 58.0678 76.7709 57.2918 76.9792C56.4428 77.2032 55.4584 77.3125 54.3647 77.3125C53.2709 77.3125 52.2345 77.224 51.2814 77.0365C50.4376 76.875 49.6876 76.599 49.047 76.2188C48.4584 75.8698 47.9741 75.4063 47.5626 74.7969C47.1564 74.198 46.8699 73.3907 46.7084 72.4011C46.5418 71.3855 45.672 70.6459 44.6407 70.6459H42.5574C41.9793 70.6459 41.422 70.8855 41.0262 71.3073C40.6303 71.7292 40.4272 72.2969 40.4637 72.8698C40.5678 74.4844 40.948 75.9688 41.5939 77.2865C42.2605 78.6511 43.2345 79.8282 44.4793 80.7865C45.6824 81.7084 47.1564 82.4167 48.8647 82.9011C50.5001 83.3594 52.4116 83.5938 54.547 83.5938C56.2501 83.5938 57.8647 83.3542 59.3439 82.875C60.8543 82.3855 62.1928 81.6823 63.3126 80.7813C64.4584 79.8542 65.3751 78.7292 66.0262 77.4427C66.6876 76.1302 67.0262 74.6771 67.0262 73.1302C67.0262 71.7761 66.7918 70.5625 66.3334 69.5209C65.8855 68.5052 65.2762 67.6094 64.5157 66.8646Z" fill="black"/>
<path d="M92.7657 66.5157C92.7657 68.3177 92.5209 69.9271 92.0365 71.2969C91.573 72.6198 90.922 73.7396 90.1042 74.6302C89.297 75.5 88.3334 76.1667 87.2292 76.6146C86.0938 77.0782 84.823 77.3125 83.4532 77.3125C82.0834 77.3125 80.8126 77.0782 79.672 76.6146C78.573 76.1667 77.6147 75.5 76.8178 74.6355C76.0053 73.7448 75.3595 72.625 74.8907 71.2969C74.4115 69.9271 74.1667 68.3177 74.1667 66.5157C74.1667 64.7188 74.4115 63.1302 74.8959 61.7865C75.3699 60.4948 76.0209 59.3959 76.8386 58.5365C77.6407 57.6875 78.6095 57.0313 79.7188 56.5834C80.8542 56.1302 82.1407 55.8959 83.5313 55.8959C84.8855 55.8959 86.1459 56.125 87.2709 56.573C88.3542 57.0052 89.3074 57.6563 90.099 58.5052C90.9115 59.3646 91.5626 60.4636 92.0313 61.7605C92.5157 63.1042 92.7657 64.7032 92.7657 66.5157ZM94.7813 54.3282C93.3803 52.823 91.6876 51.6407 89.7449 50.8282C87.823 50.0261 85.7188 49.6146 83.4792 49.6146C81.2188 49.6146 79.1042 50.0261 77.1928 50.8334C75.2709 51.6407 73.5834 52.8125 72.172 54.3073C70.7761 55.7917 69.672 57.5938 68.9011 59.6719C68.1459 61.7136 67.7605 64.0209 67.7605 66.5157C67.7605 68.9896 68.1355 71.2865 68.8855 73.3438C69.6459 75.4323 70.7292 77.2552 72.1147 78.7657C73.5105 80.2917 75.198 81.4896 77.1303 82.3334C79.0574 83.1719 81.1928 83.5938 83.4792 83.5938C85.7657 83.5938 87.8959 83.1719 89.8178 82.3282C91.7397 81.4896 93.422 80.2813 94.823 78.75C96.2032 77.2292 97.2865 75.4011 98.047 73.3177C98.7917 71.2552 99.172 68.9688 99.172 66.5157C99.172 64.0365 98.7865 61.7448 98.0261 59.698C97.2605 57.6302 96.1667 55.823 94.7813 54.3282Z" fill="black"/>
<path d="M125.542 69.5209C125.094 68.5 124.484 67.6094 123.724 66.8646C122.995 66.1511 122.141 65.5469 121.172 65.0625C120.297 64.6302 119.375 64.2605 118.417 63.9636C117.516 63.6875 116.573 63.4427 115.62 63.2396C114.724 63.0469 113.839 62.8594 112.995 62.6823C111.656 62.4063 110.531 62.1094 109.656 61.8021C108.901 61.5313 108.307 61.2396 107.896 60.9271C107.599 60.698 107.396 60.4688 107.297 60.2396C107.167 59.948 107.104 59.5677 107.104 59.1094C107.104 58.1459 107.448 57.474 108.214 56.9271C109.172 56.2448 110.734 55.8959 112.859 55.8959C113.885 55.8959 114.797 56.0052 115.563 56.224C116.292 56.4323 116.917 56.7136 117.417 57.0573C117.896 57.3907 118.266 57.7657 118.563 58.2136C118.87 58.6771 119.094 59.1875 119.229 59.724C119.464 60.6563 120.297 61.3073 121.266 61.3073H123.292C123.896 61.3073 124.474 61.0469 124.87 60.5886C125.271 60.1355 125.448 59.5365 125.37 58.9375C125.172 57.4792 124.708 56.1459 123.984 54.974C123.266 53.8073 122.318 52.8021 121.167 51.9948C120.052 51.2136 118.75 50.6094 117.292 50.2032C115.885 49.8125 114.333 49.6146 112.672 49.6146C111 49.6146 109.432 49.8334 108.021 50.2552C106.563 50.698 105.281 51.3334 104.214 52.1511C103.099 53.0052 102.224 54.0469 101.609 55.25C100.984 56.4688 100.667 57.8177 100.667 59.2657C100.667 60.5938 100.906 61.7969 101.38 62.8438C101.865 63.9115 102.609 64.8646 103.594 65.6719C104.495 66.4115 105.625 67.0521 106.948 67.5886C108.182 68.0834 109.661 68.5209 111.349 68.8959H111.359L111.37 68.9011C113.219 69.2917 114.781 69.6719 116.01 70.0417C117.115 70.3698 117.995 70.7344 118.625 71.125C119.083 71.4063 119.396 71.7084 119.552 72.0157C119.734 72.3698 119.823 72.8698 119.823 73.5C119.823 74.0677 119.714 74.5469 119.49 74.974C119.255 75.4115 118.917 75.7865 118.453 76.1146C117.932 76.4792 117.276 76.7709 116.495 76.9792C115.651 77.2032 114.667 77.3125 113.568 77.3125C112.479 77.3125 111.443 77.224 110.49 77.0365C109.646 76.875 108.891 76.599 108.255 76.2188C107.667 75.8698 107.182 75.4063 106.771 74.7969C106.365 74.198 106.078 73.3907 105.917 72.4011C105.75 71.3855 104.88 70.6459 103.849 70.6459H101.766C101.188 70.6459 100.63 70.8855 100.234 71.3073C99.8386 71.7292 99.6354 72.2969 99.6719 72.8698C99.7761 74.4844 100.156 75.9688 100.802 77.2865C101.469 78.6511 102.438 79.8282 103.688 80.7865C104.885 81.7084 106.359 82.4167 108.073 82.9011C109.708 83.3594 111.62 83.5938 113.755 83.5938C115.458 83.5938 117.073 83.3542 118.552 82.875C120.063 82.3855 121.401 81.6823 122.516 80.7813C123.667 79.8542 124.578 78.7292 125.229 77.4427C125.896 76.1302 126.234 74.6771 126.234 73.1302C126.234 71.7761 126 70.5625 125.542 69.5209Z" fill="black"/>
</svg>
