<svg width="108" height="108" viewBox="0 0 108 108" fill="none" xmlns="http://www.w3.org/2000/svg">
<mask id="mask0_4_20733" style="mask-type:luminance" maskUnits="userSpaceOnUse" x="0" y="0" width="108" height="108">
<path d="M0.463623 0.583496H107.464V107.583H0.463623V0.583496Z" fill="white"/>
</mask>
<g mask="url(#mask0_4_20733)">
<path d="M85.6043 48.2293C68.4689 38.0522 39.8179 36.9845 23.4845 42.0679C20.8075 42.8752 18.1304 41.2658 17.3283 38.8543C16.5262 36.1772 18.1304 33.5002 20.5418 32.6981C39.5522 27.0731 70.8804 28.146 90.6929 39.9272C93.1043 41.2658 93.9064 44.4793 92.5679 46.8908C91.2293 48.7658 88.0158 49.5679 85.6043 48.2293ZM85.0731 63.2241C83.7293 65.0991 81.3231 65.9012 79.4481 64.5627C64.9897 55.7241 43.0314 53.047 26.1616 58.4012C24.021 58.9377 21.6095 57.8647 21.0783 55.7241C20.5418 53.5835 21.6095 51.172 23.7554 50.6356C43.3022 44.745 67.396 47.6929 84.0002 57.8647C85.6043 58.672 86.4116 61.3491 85.0731 63.2241ZM78.646 77.9481C77.5731 79.5575 75.6981 80.0887 74.0939 79.021C61.5054 71.2554 45.7085 69.6512 26.9689 73.9325C25.0939 74.4689 23.4845 73.1304 22.9481 71.521C22.4168 69.6512 23.7554 68.0418 25.3595 67.5054C45.7085 62.9533 63.3804 64.8283 77.3075 73.396C79.1825 74.1981 79.4481 76.3439 78.646 77.9481ZM54.0106 0.567871C46.9793 0.567871 40.0158 1.95329 33.5158 4.646C27.021 7.3335 21.1147 11.2814 16.146 16.2502C6.09912 26.297 0.458496 39.9168 0.458496 54.12C0.458496 68.3231 6.09912 81.9429 16.146 91.9845C21.1147 96.9585 27.021 100.901 33.5158 103.594C40.0158 106.287 46.9793 107.672 54.0106 107.672C68.2137 107.672 81.8335 102.026 91.8752 91.9845C101.922 81.9429 107.563 68.3231 107.563 54.12C107.563 47.0887 106.177 40.1252 103.485 33.6252C100.797 27.1304 96.8491 21.2241 91.8752 16.2502C86.9064 11.2814 81.0002 7.3335 74.5054 4.646C68.0054 1.95329 61.0418 0.567871 54.0106 0.567871Z" fill="#51B056"/>
</g>
</svg>
