<svg width="500" height="500" viewBox="0 0 500 500" fill="none" xmlns="http://www.w3.org/2000/svg">
<g filter="url(#filter0_d_587_2)">
<circle cx="250" cy="246" r="245.968" fill="#66BB6A"/>
</g>
<circle cx="250" cy="246" r="216.488" fill="#81C784"/>
<circle cx="250" cy="246" r="183.324" fill="#A5D6A7"/>
<g filter="url(#filter1_d_587_2)">
<path d="M250 130.847L346.729 167.401V258.787C346.729 299.91 309.88 341.034 250 359.311C190.12 341.034 153.271 304.479 153.271 258.787V167.401L250 130.847Z" fill="white"/>
<path d="M250 130.847L346.729 167.401V258.787C346.729 299.91 309.88 341.034 250 359.311C190.12 341.034 153.271 304.479 153.271 258.787V167.401L250 130.847Z" stroke="#43A047" stroke-width="21.96" stroke-linecap="round" stroke-linejoin="round"/>
</g>
<path d="M208.591 243.314L241.801 276.204" stroke="#43A047" stroke-width="15" stroke-linecap="round"/>
<path d="M291.409 215.796L242.479 275.559" stroke="#43A047" stroke-width="15" stroke-linecap="round"/>
<defs>
<filter id="filter0_d_587_2" x="0.0322266" y="0.0324707" width="499.935" height="499.935" filterUnits="userSpaceOnUse" color-interpolation-filters="sRGB">
<feFlood flood-opacity="0" result="BackgroundImageFix"/>
<feColorMatrix in="SourceAlpha" type="matrix" values="0 0 0 0 0 0 0 0 0 0 0 0 0 0 0 0 0 0 127 0" result="hardAlpha"/>
<feOffset dy="4"/>
<feGaussianBlur stdDeviation="2"/>
<feComposite in2="hardAlpha" operator="out"/>
<feColorMatrix type="matrix" values="0 0 0 0 0 0 0 0 0 0 0 0 0 0 0 0 0 0 0.25 0"/>
<feBlend mode="normal" in2="BackgroundImageFix" result="effect1_dropShadow_587_2"/>
<feBlend mode="normal" in="SourceGraphic" in2="effect1_dropShadow_587_2" result="shape"/>
</filter>
<filter id="filter1_d_587_2" x="138.291" y="119.867" width="223.417" height="258.424" filterUnits="userSpaceOnUse" color-interpolation-filters="sRGB">
<feFlood flood-opacity="0" result="BackgroundImageFix"/>
<feColorMatrix in="SourceAlpha" type="matrix" values="0 0 0 0 0 0 0 0 0 0 0 0 0 0 0 0 0 0 127 0" result="hardAlpha"/>
<feOffset dy="4"/>
<feGaussianBlur stdDeviation="2"/>
<feComposite in2="hardAlpha" operator="out"/>
<feColorMatrix type="matrix" values="0 0 0 0 0 0 0 0 0 0 0 0 0 0 0 0 0 0 0.25 0"/>
<feBlend mode="normal" in2="BackgroundImageFix" result="effect1_dropShadow_587_2"/>
<feBlend mode="normal" in="SourceGraphic" in2="effect1_dropShadow_587_2" result="shape"/>
</filter>
</defs>
</svg>
