<svg width="21" height="21" viewBox="0 0 21 21" fill="none" xmlns="http://www.w3.org/2000/svg">
<mask id="mask0_255_334" style="mask-type:luminance" maskUnits="userSpaceOnUse" x="0" y="0" width="21" height="21">
<path d="M0.890625 0.739746H20.8906V20.7397H0.890625V0.739746Z" fill="white"/>
</mask>
<g mask="url(#mask0_255_334)">
<path d="M21.0469 10.8179C21.0469 11.4793 20.9844 12.1356 20.8542 12.7866C20.724 13.4325 20.5312 14.0627 20.2812 14.6772C20.026 15.2866 19.7135 15.87 19.349 16.4168C18.9792 16.9689 18.5625 17.4793 18.0938 17.9429C17.625 18.4116 17.1198 18.8335 16.5677 19.1981C16.0156 19.5679 15.4375 19.8752 14.8229 20.1304C14.2135 20.3856 13.5833 20.5731 12.9323 20.7033C12.2865 20.8335 11.6302 20.896 10.9688 20.896C10.3073 20.896 9.65104 20.8335 9 20.7033C8.35417 20.5731 7.72396 20.3856 7.10938 20.1304C6.5 19.8752 5.91667 19.5679 5.36979 19.1981C4.81771 18.8335 4.30729 18.4116 3.84375 17.9429C3.375 17.4793 2.95833 16.9689 2.58854 16.4168C2.21875 15.87 1.91146 15.2866 1.65625 14.6772C1.40625 14.0627 1.21354 13.4325 1.08333 12.7866C0.953125 12.1356 0.890625 11.4793 0.890625 10.8179C0.890625 10.1564 0.953125 9.50016 1.08333 8.85433C1.21354 8.20329 1.40625 7.57308 1.65625 6.9637C1.91146 6.34912 2.21875 5.771 2.58854 5.21891C2.95833 4.66683 3.375 4.16162 3.84375 3.69287C4.30729 3.22412 4.81771 2.80745 5.36979 2.43766C5.91667 2.07308 6.5 1.76058 7.10938 1.50537C7.72396 1.25537 8.35417 1.06266 9 0.932454C9.65104 0.807454 10.3073 0.739746 10.9688 0.739746C11.6302 0.739746 12.2865 0.807454 12.9323 0.932454C13.5833 1.06266 14.2135 1.25537 14.8229 1.50537C15.4375 1.76058 16.0156 2.07308 16.5677 2.43766C17.1198 2.80745 17.625 3.22412 18.0938 3.69287C18.5625 4.16162 18.9792 4.66683 19.349 5.21891C19.7135 5.771 20.026 6.34912 20.2812 6.9637C20.5312 7.57308 20.724 8.20329 20.8542 8.85433C20.9844 9.50016 21.0469 10.1564 21.0469 10.8179Z" fill="white"/>
</g>
<path d="M15.3125 8.63037C15.3073 8.05746 15.1927 7.51058 14.9688 6.98454C14.7448 6.45329 14.4323 5.98975 14.026 5.5887C13.6198 5.18766 13.151 4.87516 12.6198 4.66162C12.0937 4.44287 11.5417 4.3335 10.9688 4.3335C10.3958 4.3335 9.84375 4.44287 9.31771 4.66162C8.78646 4.87516 8.31771 5.18766 7.91146 5.5887C7.50521 5.98975 7.19271 6.45329 6.96875 6.98454C6.74479 7.51058 6.63021 8.05746 6.625 8.63037C6.625 9.42725 6.82813 10.1668 7.23438 10.8543L10.9688 17.3543L14.7031 10.8543C15.1094 10.1668 15.3125 9.42725 15.3125 8.63037ZM10.9688 6.59391C11.2396 6.59391 11.5 6.646 11.75 6.74495C12 6.84912 12.2187 7.00016 12.4115 7.18766C12.599 7.38037 12.75 7.59912 12.8542 7.84912C12.9531 8.09912 13.0052 8.35954 13.0052 8.63037C13.0052 8.9012 12.9531 9.16162 12.8542 9.41162C12.75 9.66162 12.599 9.88037 12.4115 10.0731C12.2187 10.2658 12 10.4116 11.75 10.5158C11.5 10.62 11.2396 10.6668 10.9688 10.6668C10.6979 10.6668 10.4375 10.62 10.1875 10.5158C9.9375 10.4116 9.71875 10.2658 9.52604 10.0731C9.33333 9.88037 9.1875 9.66162 9.08333 9.41162C8.97917 9.16162 8.92708 8.9012 8.92708 8.63037C8.92708 8.35954 8.97917 8.09912 9.08333 7.84912C9.1875 7.59912 9.33333 7.38037 9.52604 7.18766C9.71875 7.00016 9.9375 6.84912 10.1875 6.74495C10.4375 6.646 10.6979 6.59391 10.9688 6.59391Z" fill="#C8D0D8"/>
</svg>
