<svg width="47" height="47" viewBox="0 0 47 47" fill="none" xmlns="http://www.w3.org/2000/svg">
<mask id="mask0_255_335" style="mask-type:luminance" maskUnits="userSpaceOnUse" x="0" y="0" width="47" height="47">
<path d="M0.338379 0.6875H46.3384V46.6875H0.338379V0.6875Z" fill="white"/>
</mask>
<g mask="url(#mask0_255_335)">
<path d="M23.5311 0.6875C10.7134 0.6875 0.338379 11.0573 0.338379 23.8802C0.338379 36.6979 10.7134 47.0781 23.5311 47.0781C36.354 47.0781 46.729 36.7031 46.729 23.8802C46.729 11.0625 36.354 0.6875 23.5311 0.6875ZM23.5311 45.1406C11.8071 45.1406 2.27067 35.6042 2.27067 23.8802C2.27067 12.1563 11.8071 2.61979 23.5311 2.61979C35.255 2.61979 44.7967 12.1563 44.7967 23.8802C44.7967 35.6042 35.255 45.1406 23.5311 45.1406Z" fill="white"/>
</g>
<path d="M23.5311 6.48438C13.9425 6.48438 6.13525 14.2865 6.13525 23.8802C6.13525 33.474 13.9425 41.276 23.5311 41.276C33.1248 41.276 40.9321 33.474 40.9321 23.8802C40.9321 14.2865 33.1248 6.48438 23.5311 6.48438ZM23.5311 39.3438C15.005 39.3438 8.06755 32.4063 8.06755 23.8802C8.06755 15.3542 15.005 8.41667 23.5311 8.41667C32.0623 8.41667 38.9946 15.3542 38.9946 23.8802C38.9946 32.4063 32.0623 39.3438 23.5311 39.3438Z" fill="white"/>
<path d="M19.9689 23.3804C20.3543 23.2085 20.6408 22.9533 20.8335 22.6147C21.62 21.2241 20.6929 19.4741 19.2918 19.4741H14.8335V27.4897H18.7397C20.1512 27.4897 21.4585 26.8543 21.4585 25.4377C21.4585 24.896 21.3283 24.4481 21.0575 24.1043C20.7918 23.7554 20.4272 23.5158 19.9689 23.3804ZM16.6877 21.0575H18.5731C18.7658 21.0575 18.9325 21.1304 19.0731 21.271C19.2137 21.4116 19.2814 21.6147 19.2814 21.8804C19.2814 22.1668 19.2033 22.3752 19.047 22.5106C18.8856 22.646 18.7085 22.7137 18.5054 22.7137H16.6877V21.0575ZM19.3387 25.6825C19.1825 25.8439 18.9793 25.922 18.7397 25.922H16.6877V24.172H18.8179C19.0366 24.172 19.2189 24.2554 19.3595 24.4325C19.5054 24.6043 19.5731 24.8127 19.5731 25.0627C19.5731 25.3179 19.495 25.5262 19.3387 25.6825Z" fill="white"/>
<path d="M22.5522 19.4741H24.4064V27.4897H22.5522V19.4741Z" fill="white"/>
<path d="M30.8959 19.7813C29.9584 19.3125 28.7397 19.3177 27.797 19.7656C26.8334 20.2188 26.1512 20.9896 25.7762 21.9479C25.0105 23.9011 25.8178 26.2448 27.7449 27.2083C28.6824 27.6771 29.9012 27.6719 30.8439 27.2188C31.3126 26.9948 31.7189 26.6927 32.0574 26.3229C33.9168 24.2708 33.2762 20.9688 30.8959 19.7813ZM29.3282 25.9115C29.0105 25.9115 28.7293 25.8438 28.4845 25.7083C28.2397 25.5729 28.0366 25.3906 27.8751 25.1667C27.422 24.5313 27.323 23.2136 27.5001 22.6094C27.6564 22.0573 27.9689 21.5781 28.4689 21.2865C28.9324 21.0156 29.6355 21 30.1407 21.2761C31.922 22.25 31.5157 25.9115 29.3282 25.9115Z" fill="white"/>
</svg>
