<svg width="75" height="75" viewBox="0 0 75 75" fill="none" xmlns="http://www.w3.org/2000/svg">
<mask id="mask0_4_23008" style="mask-type:luminance" maskUnits="userSpaceOnUse" x="0" y="0" width="75" height="75">
<path d="M0 0H75V75H0V0Z" fill="white"/>
</mask>
<g mask="url(#mask0_4_23008)">
<path d="M54.9792 30.8385C54.9792 33.3333 53.2604 35.4115 50.9531 36.0156V60.3438C50.9531 61.0781 50.3542 61.6823 49.6146 61.6823C48.875 61.6823 48.2708 61.0781 48.2708 60.3438V36.0156C45.9688 35.4115 44.25 33.3333 44.25 30.8385C44.25 28.349 45.9688 26.2656 48.2708 25.6667V14.75C48.2708 14.0104 48.875 13.4062 49.6146 13.4062C50.3542 13.4062 50.9531 14.0104 50.9531 14.75V25.6667C53.2604 26.2656 54.9792 28.349 54.9792 30.8385ZM37.5469 71.0677C19.0625 71.0677 4.02083 56.0312 4.02083 37.5469C4.02083 22.9375 13.7865 9.74479 27.7656 5.47917C28.4688 5.25 29.224 5.65625 29.4427 6.36979C29.6563 7.07292 29.2604 7.82292 28.5521 8.03646C15.6875 11.9688 6.70312 24.1042 6.70312 37.5469C6.70312 54.5521 20.5365 68.3854 37.5469 68.3854C54.5521 68.3854 68.3854 54.5521 68.3854 37.5469C68.3854 20.5365 54.5521 6.70312 37.5469 6.70312C36.8073 6.70312 36.2031 6.09896 36.2031 5.36458C36.2031 4.625 36.8073 4.02083 37.5469 4.02083C56.0313 4.02083 71.0677 19.0625 71.0677 37.5469C71.0677 56.0312 56.0313 71.0677 37.5469 71.0677ZM20.1146 24.1354C20.1146 21.6406 21.8333 19.5625 24.1354 18.9583V14.75C24.1354 14.0104 24.7396 13.4062 25.4792 13.4062C26.2135 13.4062 26.8177 14.0104 26.8177 14.75V18.9583C29.125 19.5625 30.8385 21.6406 30.8385 24.1354C30.8385 26.6302 29.125 28.7083 26.8177 29.3125V60.3438C26.8177 61.0781 26.2135 61.6823 25.4792 61.6823C24.7396 61.6823 24.1354 61.0781 24.1354 60.3438V29.3125C21.8333 28.7083 20.1146 26.6302 20.1146 24.1354ZM36.2031 44.4375V14.75C36.2031 14.0104 36.8073 13.4062 37.5469 13.4062C38.2865 13.4062 38.8854 14.0104 38.8854 14.75V44.4375C41.1927 45.0417 42.9115 47.1198 42.9115 49.6146C42.9115 52.1094 41.1927 54.1875 38.8854 54.7917V60.3438C38.8854 61.0781 38.2865 61.6823 37.5469 61.6823C36.8073 61.6823 36.2031 61.0781 36.2031 60.3438V54.7917C33.901 54.1875 32.1823 52.1094 32.1823 49.6146C32.1823 47.1198 33.901 45.0417 36.2031 44.4375ZM37.5469 0C16.8385 0 0 16.8385 0 37.5469C0 58.25 16.8385 75.0938 37.5469 75.0938C58.25 75.0938 75.0938 58.25 75.0938 37.5469C75.0938 16.8385 58.25 0 37.5469 0Z" fill="white"/>
</g>
</svg>
