<svg width="76" height="76" viewBox="0 0 76 76" fill="none" xmlns="http://www.w3.org/2000/svg">
<mask id="mask0_4_23002" style="mask-type:luminance" maskUnits="userSpaceOnUse" x="0" y="0" width="76" height="76">
<path d="M0.338379 0.348999H75.3384V75.349H0.338379V0.348999Z" fill="white"/>
</mask>
<g mask="url(#mask0_4_23002)">
<path d="M37.8853 0.348999C17.1457 0.348999 0.338379 17.1563 0.338379 37.8959C0.338379 58.6302 17.1457 75.4427 37.8853 75.4427C58.6196 75.4427 75.4321 58.6302 75.4321 37.8959C75.4321 17.1563 58.6196 0.348999 37.8853 0.348999ZM52.9009 41.6511H31.9321L37.8853 47.6042C39.3488 49.0677 39.3488 51.448 37.8853 52.9115C36.4217 54.375 34.0415 54.375 32.578 52.9115L20.2134 40.5469C18.7446 39.0782 18.7446 36.7032 20.2134 35.2396L32.578 22.875C34.0415 21.4115 36.4217 21.4115 37.8853 22.875C39.3488 24.3386 39.3488 26.7188 37.8853 28.1823L31.9321 34.1407H52.9009C54.9738 34.1407 56.6561 35.823 56.6561 37.8959C56.6561 39.9688 54.9738 41.6511 52.9009 41.6511Z" fill="white"/>
</g>
</svg>
