<svg width="58" height="58" viewBox="0 0 58 58" fill="none" xmlns="http://www.w3.org/2000/svg">
<path d="M28.9323 0C12.9531 0 0 12.9531 0 28.9323C0 44.9063 12.9531 57.8594 28.9323 57.8594C44.9063 57.8594 57.8594 44.9063 57.8594 28.9323C57.8594 12.9531 44.9063 0 28.9323 0ZM28.9323 8.09896C34.6823 8.09896 39.3438 12.7604 39.3438 18.5156C39.3438 24.2708 34.6823 28.9323 28.9323 28.9323C23.1771 28.9323 18.5156 24.2656 18.5156 18.5156C18.5156 12.7656 23.1771 8.09896 28.9323 8.09896ZM28.9323 50.9219C21.5365 50.9219 15.0104 47.2604 11.0208 41.6615C15.0104 36.0625 21.5365 32.401 28.9323 32.401C36.3229 32.401 42.849 36.0625 46.8385 41.6615C42.849 47.2604 36.3229 50.9219 28.9323 50.9219Z" fill="black"/>
</svg>
