<svg width="100" height="100" viewBox="0 0 100 100" fill="none" xmlns="http://www.w3.org/2000/svg">
<circle cx="46" cy="41" r="30" fill="white"/>
<path fill-rule="evenodd" clip-rule="evenodd" d="M37.231 6.57115C43.489 -2.19038 56.5107 -2.19038 62.7691 6.57115L63.7655 7.966C64.8666 9.50799 66.7162 10.3336 68.5992 10.1244L73.04 9.63096C83.0347 8.5205 91.4796 16.9654 90.3691 26.9598L89.8758 31.4007C89.6666 33.284 90.492 35.1332 92.034 36.2347L93.429 37.231C102.19 43.489 102.19 56.5107 93.429 62.7691L92.034 63.7655C90.492 64.8666 89.6666 66.7162 89.8758 68.5992L90.3691 73.04C91.4796 83.0347 83.0347 91.4796 73.04 90.3691L68.5992 89.8758C66.7162 89.6666 64.8666 90.492 63.7655 92.034L62.7691 93.429C56.5107 102.19 43.4895 102.19 37.231 93.429L36.2347 92.034C35.1332 90.492 33.284 89.6666 31.4007 89.8758L26.9598 90.3691C16.9654 91.4796 8.5205 83.0347 9.63096 73.04L10.1244 68.5992C10.3336 66.7162 9.50799 64.8666 7.966 63.7655L6.57115 62.7691C-2.19038 56.5107 -2.19038 43.4895 6.57115 37.231L7.966 36.2347C9.50799 35.1332 10.3336 33.284 10.1244 31.4007L9.63096 26.9598C8.5205 16.9654 16.9654 8.5205 26.9598 9.63096L31.4007 10.1244C33.284 10.3336 35.1332 9.50799 36.2347 7.966L37.231 6.57115ZM69.3906 35.8402C71.4331 37.8829 71.4331 41.1948 69.3906 43.2374L49.4153 63.2127C46.8497 65.7788 42.6892 65.7788 40.1236 63.2127L30.6095 53.6987C28.5669 51.6561 28.5669 48.3441 30.6095 46.3015C32.6523 44.2589 35.9641 44.2589 38.0068 46.3015L44.7694 53.0642L61.9934 35.8402C64.036 33.7975 67.348 33.7975 69.3906 35.8402Z" fill="#2799FF"/>
</svg>
