<svg width="60" height="42" viewBox="0 0 60 42" fill="none" xmlns="http://www.w3.org/2000/svg">
<mask id="mask0_4_16292" style="mask-type:luminance" maskUnits="userSpaceOnUse" x="0" y="0" width="60" height="42">
<path d="M0.880249 0.182129H59.7969V41.0936H0.880249V0.182129Z" fill="white"/>
</mask>
<g mask="url(#mask0_4_16292)">
<path d="M6.35938 41.0936H54.3177C57.3073 41.0936 59.7396 38.6821 59.7396 35.729V5.5415C59.7396 2.58838 57.3073 0.182129 54.3177 0.182129H6.35938C3.375 0.182129 0.9375 2.58838 0.9375 5.5415V35.6821C0.9375 38.6821 3.375 41.0936 6.35938 41.0936ZM55.1927 35.6353H16.4792C16.1563 37.4582 14.776 38.3175 13.1198 38.3175C11.4635 38.3175 10.0885 37.4582 9.76562 35.6353H5.53646C5.02604 35.6353 4.61458 35.229 4.61458 34.729C4.61458 34.229 5.02604 33.8175 5.53646 33.8175H9.85417C10.3177 32.4582 11.6042 31.4998 13.1198 31.4998C14.6354 31.4998 15.9271 32.4582 16.3854 33.8175H55.1927C55.6979 33.8175 56.1094 34.229 56.1094 34.729C56.1094 35.229 55.6979 35.6353 55.1927 35.6353ZM2.77604 5.7238C2.77604 3.77067 4.43229 1.99984 6.40625 1.99984H54.3646C56.3385 1.99984 57.9479 3.77067 57.9479 5.7238V29.2759H2.77604V5.7238Z" fill="black"/>
</g>
</svg>
