<?xml version="1.0" encoding="UTF-8"?>
<svg id="Layer_1" data-name="Layer 1" xmlns="http://www.w3.org/2000/svg" viewBox="0 0 1080 1080">
  <defs>
    <style>
      .cls-1 {
        fill: none;
        stroke-dasharray: 101.81 101.81;
        stroke-linecap: round;
        stroke-width: 30px;
      }

      .cls-1, .cls-2 {
        stroke: #000;
        stroke-miterlimit: 10;
      }

      .cls-2 {
        stroke-width: 10px;
      }
    </style>
  </defs>
  <path class="cls-2" d="M540,1037.37c-67.14,0-132.28-13.15-193.6-39.09-59.23-25.05-112.42-60.91-158.09-106.59-45.67-45.67-81.54-98.86-106.59-158.09-25.94-61.32-39.09-126.46-39.09-193.6s13.15-132.28,39.09-193.6c25.05-59.23,60.91-112.42,106.59-158.09s98.86-81.54,158.09-106.59c61.32-25.94,126.46-39.09,193.6-39.09s132.28,13.15,193.6,39.09c59.23,25.05,112.42,60.91,158.09,106.59,45.67,45.67,81.54,98.86,106.59,158.09,25.94,61.32,39.09,126.46,39.09,193.6s-13.15,132.28-39.09,193.6c-25.05,59.23-60.91,112.42-106.59,158.09-45.67,45.67-98.86,81.54-158.09,106.59-61.32,25.94-126.46,39.09-193.6,39.09ZM540,62.63c-263.22,0-477.37,214.15-477.37,477.37s214.15,477.37,477.37,477.37,477.37-214.15,477.37-477.37S803.22,62.63,540,62.63Z"/>
  <circle class="cls-1" cx="540" cy="540" r="388.85"/>
  <g>
    <path d="M360.97,435.83c52.59,0,74.51,64,34.77,94.08,23.37,9.95,31.85,31.56,31.85,50.86,0,30.66-20.15,61.64-59.31,61.64h-92.33v-206.58h85.03-.01ZM305.16,519.41h55.22c32.15,0,34.77-55.52.59-55.52h-55.81v55.52ZM305.16,613.78h63.12c19.87,0,29.8-16.67,29.8-32.74s-9.94-32.44-29.8-32.44h-63.12v65.17h0Z"/>
    <path d="M565.99,463.31h-37.99v151.63h37.99v27.47h-105.48v-27.47h37.99v-151.63h-37.99v-27.17h105.48v27.17Z"/>
    <path d="M697.7,433.78c59.02,0,106.36,47.35,106.36,106.36s-47.34,106.08-106.36,106.08-106.06-47.05-106.06-106.08,47.04-106.36,106.06-106.36h0ZM697.7,615.81c42.07,0,75.98-33.59,75.98-75.68s-33.9-75.95-75.98-75.95-75.68,33.89-75.68,75.95,33.6,75.68,75.68,75.68Z"/>
  </g>
</svg>