<?xml version="1.0" encoding="UTF-8"?>
<svg id="Layer_1" data-name="Layer 1" xmlns="http://www.w3.org/2000/svg" viewBox="0 0 1080 1080">
  <path d="M510.8,56.69c404.27-23.94,659.15,434.82,422.46,765.45-205.99,287.74-643.12,264.15-815.53-45.1C-56.47,464.6,156.36,77.68,510.8,56.69ZM532.98,109.8c-11.81,3.53-14.32,25.09-1.28,31.1,9.46,4.36,50.31,3.26,65,5.21,257.06,34.19,410.67,314.96,308.33,552.28-120.13,278.56-503.78,325.23-684.08,79.35-154.47-210.65-72.27-492.67,159.35-601.53,17.84-8.38,62.42-14.72,54.73-39.7-5.55-18.04-31.87-5.87-43.06-2.01C86.41,239.68,10.85,651.9,254.48,865c297.67,260.36,758.29,17.09,714.3-374.67-21.06-187.52-173.33-350.42-361.29-377.49-16.5-2.38-60.47-7.24-74.51-3.04ZM378.58,230.64c-18.93,5.64-6.9,51.8-10.81,67.89-7.63,6.19-16.3,8.46-24.65,14.67-37.18,27.66-36.31,83.88,1.17,110.72,7.95,5.7,22.39,7.72,23.89,15.43l1.43,403.17c9.33,14.5,30.35,10.82,32.38-6.82l-.15-396.32c1.54-8.25,15.54-10.44,23.41-15.91,37.02-25.71,37.15-85.58,0-111.47-7.88-5.49-17.08-6.51-22.96-13.55-5.51-17.01,13.09-78.78-23.71-67.82ZM552.83,233.55c-6.46-6.44-25.24-5.12-28.09,5.68l-2.51,388.05c-7.58,6.27-16.34,8.34-24.65,14.68-44.56,34.01-30.07,107.12,24.7,119.47,2.44,2.79-1.37,62.64.49,73.99,3.59,22.01,30.28,19.99,33.46,2.9,3.86-20.71-3.04-50.75.45-72.61,21-11.39,40.53-22.8,48.69-46.82,14.3-42.08-11.6-75.98-49.18-91.71l.23-378.96c-.37-4.35-.49-11.57-3.59-14.67ZM713.9,519.78c53.1-13.2,68.72-85.86,24.7-119.47-8.31-6.34-17.07-8.4-24.65-14.68-3.42-42.79,3.24-89.5-.27-131.79-2.62-31.55-31.58-31.29-35.94-7.64l-1.06,139.43c-12.83,8.44-26.28,12.85-36.12,25.67-30.58,39.85-9.54,95.55,36.68,109.88l-.18,308.76c.46,29.73,35.63,28.42,36.5,0l.33-310.16Z"/>
  <path d="M695.75,419.3c49.49-1.47,43.11,81.32-9.75,67.33-38.29-10.13-30.84-66.12,9.75-67.33Z"/>
  <path d="M372.95,334.63c56.61-12.97,61.78,68.63,10.62,67.09-41.52-1.25-42.1-59.88-10.62-67.09Z"/>
  <path d="M538.49,660.93c48.47-1.69,48.81,78.13-5.92,69.12-39.01-6.42-34.11-67.72,5.92-69.12Z"/>
</svg>