<?xml version="1.0" encoding="UTF-8"?>
<svg id="Layer_1" data-name="Layer 1" xmlns="http://www.w3.org/2000/svg" viewBox="0 0 930 928.41">
  <path d="M435.1,40.07c323.27-22.17,553.09,311.72,414.81,606.17-137.99,293.85-545.2,328.95-732.71,63.68C-74,439.43,106.41,62.61,435.1,40.07ZM836.99,523.02c3.93-44.93,4.93-88.57-3.89-132.98-38.67-194.67-232.33-331.38-429.34-294.93v482.4c0,.75-8.98,9.4-10.75,10.51-17.51,11.01-73.62-.09-96.47,4.53-8.67,10.61-11.6,21.17-22.95,30.2-68.72,54.71-156.19-33.86-101.13-101.13,36.1-44.11,99.78-27.87,123.66,20h59.8V105.74l-47.53,16.25c-7.41,28.52,20.56,136.12-32.97,124.06-5.39-1.21-17.84-12.18-17.84-16.72v-75.75l-28.81,20.36c-5.29,24.64,15.05,110.18-27.71,106.65-6.7-.55-23.23-10.89-23.23-16.72v-38.54c-34.18,36.31-57.48,82.62-71.76,130.24h75.75c27.44-68.59,133.5-57.33,139.64,17.16,7.1,85.97-105.62,109.71-139.64,33.35h-89.03c-11.74,95.64,7.23,189.67,61.62,269.28,75.23,110.1,204.21,173.78,338.5,164.06,7.6-.55,26.9-1.25,27.81-9.41l2.96-475.47c3.39-5.28,8.25-8.47,14.47-9.45,29.11-4.57,67.58,3.43,97.77-.58,26.74-50.5,97.16-59.04,127.78-7.34,40.01,67.57-40.9,141.5-104.54,93.9-14.63-10.95-18.71-23.66-28.14-38.3h-58.47l-3.98,3.98v426.6l52.84-16.25c3.88-4.44-1.77-101.18.26-118.04,2.71-22.58,24.83-34.58,42.71-18.67,1.78,1.58,7.86,9.48,7.86,10.75v94.36l28.81-20.37c3.4-31.23-3.06-67.3.44-97.9,2.41-21.12,21.72-35.71,40.88-22.27,1.7,1.19,9.63,10.87,9.63,11.63v57.15c34.18-36.31,57.48-82.62,71.76-130.24h-75.75c-27.44,68.59-133.5,57.33-139.64-17.16-7.1-85.97,105.62-109.71,139.64-33.35h89.04-.05ZM686.34,389.3c21.84,23.9,55.62-17.68,27.2-33.84-21.98-12.5-43.86,15.61-27.2,33.84ZM248.89,358.79c-28.36,2.77-25.55,44.22,2.03,44.24,29.36.02,27.34-47.11-2.03-44.24ZM676.82,526.25c-37.05,3.54-13.97,64.37,16.81,38.13,16.96-14.46,3.13-40.04-16.81-38.13ZM219.6,547.5c-24.19,5.47-15.31,47.18,12.09,41.5,26.72-5.53,22.44-49.31-12.09-41.5Z"/>
  <path d="M644.67,146.55c10.81,10.79,18.79,30.18,19.66,45.44,3.42,59.9-54.92,93.23-107.37,68.32l-70.32,59.88-2.51,329.73c-5.72,14.2-43.14,24.13-55.19,35.19,4.85,69.21-79.26,113.18-127.32,58.33-58.34-66.58,33.38-159.67,100.76-101.55l32.85-19.61.32-305.34c1.24-14.38,3.25-21.64,13.34-31.85,21.48-21.74,53.41-40.8,75.94-62.41-23.55-72.31,65.83-130.07,119.85-76.12h0ZM589.12,175.24c-26.2,4.65-20.48,46.19,4.47,44.74,31.43-1.81,24.79-49.95-4.47-44.74ZM349.86,675.04c-25.76,5.7-19.01,48.29,12.09,41.49,24.56-5.37,18.94-48.36-12.09-41.49Z"/>
</svg>