<?xml version="1.0" encoding="UTF-8"?>
<svg id="Layer_1" data-name="Layer 1" xmlns="http://www.w3.org/2000/svg" viewBox="0 0 1080 1080">
  <path d="M540,30.75C258.75,30.75,30.75,258.75,30.75,540s228,509.25,509.25,509.25,509.25-228,509.25-509.25S821.25,30.75,540,30.75ZM242.5,278.36l172.41-.34c31.39-85.06,153.75-86.68,183.47-.23l239.13.58c38.79,6.32,38.49,58.76.4,65.47l-237.16.24c-6.5,9.64-10.34,20.37-17.89,29.59-48.5,59.17-142.7,40.99-167.92-29.9l-174.23-.06c-37.09-8.37-36.15-59.18,1.8-65.33ZM237.87,508.07l338.14-.35c3.76-.73,8.04-13.67,10.82-18.28,3.68-6.08,9.98-14.56,14.96-19.5,42.93-42.5,115.39-35.58,149.28,14.3,5.12,7.54,7.79,16.17,13.55,23.21,23.89,2.69,52.96-2.82,76.2.38,34.51,4.76,33.73,60.44-1.39,64.2-23.49,2.52-50.88-2.09-74.81.24-5.76,7.04-8.43,15.67-13.55,23.21-40.64,59.83-129.64,54.9-165.39-7.12-2.71-4.7-5.01-15.48-9.7-16.34H240.56c-34.64-5.84-36.85-54.91-2.69-63.96ZM834.82,801.76l-299.98.22c-4.52,6.93-7.34,14.8-11.98,21.71-38,56.58-122.41,57.03-161.15.92-4.94-7.15-7.92-15.36-12.6-22.63l-105.31-.37c-41.36-4.95-39.22-62.27-.23-65.75,33.62-3,71.46,2.54,105.54-.14,7.03-13.16,13.66-26.96,24.48-37.55,41.78-40.88,109.77-35.25,145.61,10.31,6.57,8.36,10.21,18.25,15.65,27.24l304.46.34c38.27,8.89,35.93,61.63-4.48,65.71Z"/>
</svg>