<svg id="Layer_1" data-name="Layer 1" xmlns="http://www.w3.org/2000/svg" viewBox="0 0 95.49 61.98"><defs><style>.cls-1,.cls-2{fill:#fff;}.cls-2{font-size:12.79px;font-family:Roboto-Regular, Roboto;}.cls-3{letter-spacing:-0.01em;}</style></defs><polygon class="cls-1" points="17.14 19.54 31.21 35.47 15.89 34.83 0.57 34.18 1.82 18.9 3.07 3.62 17.14 19.54"/><path class="cls-1" d="M93.71,62c.26-5,.63-10,.69-15.11a73.41,73.41,0,0,0-1.28-15.56l-.45-2c-.16-.67-.35-1.33-.53-2s-.42-1.34-.62-2-.48-1.35-.78-2a32.59,32.59,0,0,0-4.61-7.73,35.42,35.42,0,0,0-6.9-6.53,41,41,0,0,0-8.39-4.65A49,49,0,0,0,52.77.83,60.65,60.65,0,0,0,44,1.34a53.7,53.7,0,0,0-8.39,1.83A67,67,0,0,0,20.82,9.91c-4.5,2.67-8.64,5.53-12.73,8.24L3,21.5,13.12,32.27l4.54-3.89C25.17,22,32,15.53,40.54,11.86A42.11,42.11,0,0,1,47.2,9.59,49.44,49.44,0,0,1,54.42,8.4a39.09,39.09,0,0,1,15,1.56A31,31,0,0,1,82.58,18a28.93,28.93,0,0,1,4.56,6.29c.32.56.58,1.15.87,1.73s.53,1.17.75,1.79.47,1.22.68,1.83l.61,1.86a76.08,76.08,0,0,1,2.77,15.17C93.28,51.77,93.44,56.87,93.71,62Z"/><text class="cls-2" transform="translate(7.01 59.18)">Disli<tspan class="cls-3" x="24.3" y="0">k</tspan><tspan x="30.66" y="0">e</tspan></text></svg>