<svg id="Layer_1" data-name="Layer 1" xmlns="http://www.w3.org/2000/svg" viewBox="0 0 141.96 114.89"><defs><style>.cls-1,.cls-2{fill:#fff;}.cls-2{font-size:12.79px;font-family:Roboto-Regular, Roboto;}.cls-3{letter-spacing:-0.01em;}</style></defs><polygon class="cls-1" points="90.79 24 70.09 28.83 77.93 15.65 85.77 2.47 98.63 10.82 111.49 19.17 90.79 24"/><path class="cls-1" d="M17.11,71.27c4.3,2.61,8.52,5.31,13,7.78A74.37,74.37,0,0,0,44.38,85.3l2,.55c.66.17,1.33.31,2,.47s1.38.27,2.07.41,1.41.21,2.14.26a32.6,32.6,0,0,0,9-.38,35.88,35.88,0,0,0,9-3,40.84,40.84,0,0,0,8.07-5.19,48.94,48.94,0,0,0,11.73-14.2,60.86,60.86,0,0,0,3.7-8A54.07,54.07,0,0,0,96.43,48a66.83,66.83,0,0,0,1.09-16.23c-.21-5.23-.77-10.23-1.21-15.12l-.55-6L81.49,14.42l1.27,5.84c2.1,9.66,4.5,18.74,3.7,28a44.2,44.2,0,0,1-1.17,6.93,50.73,50.73,0,0,1-2.38,6.93,39,39,0,0,1-8.47,12.41A30.89,30.89,0,0,1,61.1,82.33a28.87,28.87,0,0,1-7.71,1c-.65,0-1.29,0-1.94,0s-1.27-.09-1.92-.19-1.3-.17-1.94-.28l-1.92-.34A76.28,76.28,0,0,1,31,77.75C26.29,75.73,21.73,73.45,17.11,71.27Z"/><text class="cls-2" transform="translate(90.64 93.72)">View <tspan x="0" y="15.35">p</tspan><tspan class="cls-3" x="7.18" y="15.35">r</tspan><tspan x="11.38" y="15.35">ofile</tspan></text></svg>