<svg id="Layer_1" data-name="Layer 1" xmlns="http://www.w3.org/2000/svg" viewBox="0 0 57.14 111.74"><defs><style>.cls-1{font-size:12.79px;font-family:Roboto-Regular, Roboto;}.cls-1,.cls-2{fill:#fff;}</style></defs><text class="cls-1" transform="translate(8.14 103.56)">Images</text><path class="cls-2" d="M13.69,32.2a14,14,0,1,1,19.49-.12l-.66-.68a13,13,0,1,0-18.18.12Z"/><path class="cls-2" d="M12.48,37.31a18.69,18.69,0,0,1-1-29.6A18.68,18.68,0,0,1,36,35.91l-1.27-1.39a16.8,16.8,0,1,0-21.13,1.25Z"/><path class="cls-2" d="M15.23,26.55a9.26,9.26,0,1,1,16.44-.28L31,26a8.29,8.29,0,0,0,.87-3,8.56,8.56,0,1,0-16,3.27Z"/><path class="cls-2" d="M54,52.65c0-1.66.2-3.44-.6-4.95A5.19,5.19,0,0,0,46,45.81a5.51,5.51,0,0,0-.09-.71A5.37,5.37,0,0,0,43,41.37a5.45,5.45,0,0,0-5,.15c-.14.08-.28.18-.41.27a5.58,5.58,0,0,0-.08-.57,5.35,5.35,0,0,0-2.9-3.73,5.42,5.42,0,0,0-5,.15c-.13.07-.24.16-.37.24v-8c0-1.52.05-3.05,0-4.56a5.61,5.61,0,0,0-7.7-5.14c-4.13,1.76-3.41,6.44-3.41,10.06V53.41c-1.14-1.62-2.28-3.24-3.44-4.84a5.69,5.69,0,0,0-6.81-2.26A5.61,5.61,0,0,0,5,54,21.26,21.26,0,0,0,6.6,56.38l3.25,4.79,6.81,10c4,5.93,9.18,11.47,16.63,12.76,5.28.91,11.3-.2,15.14-4.17s5-9.54,5.4-14.76C54.15,60.93,54,56.76,54,52.65ZM43.46,45Zm-8.39-3.88Zm16.48,22.6c-.24,4.62-1,9.75-4,13.48s-7.9,5-12.54,4.6c-6.81-.6-12.07-5.56-15.72-11S11.9,60,8.21,54.56A6.93,6.93,0,0,1,6.83,52a3.21,3.21,0,0,1,5.42-2.79,24.19,24.19,0,0,1,2.21,3l3.25,4.58.6.85a1.24,1.24,0,0,0,2,.08.94.94,0,0,0,.2-.93v-23c0-2.84-.12-5.7,0-8.53a3.2,3.2,0,1,1,6.39,0c.05,1.28,0,2.57,0,3.85V42.33a1.08,1.08,0,0,0,.62,1,1.21,1.21,0,0,0,.56.16,1.12,1.12,0,0,0,.57-.17,1.06,1.06,0,0,0,.61-1c0-.13,0-.27,0-.4s0-.12,0-.14,0-.15.05-.22.09-.29.14-.43h0s0,0,0,0l.13-.25a4.94,4.94,0,0,1,.27-.42h0l0,0,.14-.16c.11-.11.21-.21.32-.3l.11-.09.18-.12.39-.21h0l.21-.08.49-.13h.08l.23,0a3.69,3.69,0,0,1,.47,0l.16,0,.15,0a3.45,3.45,0,0,1,.43.12l.15.05.17.09.38.23.08,0,.12.1.31.31.14.16c-.14-.17.07.1.08.12s.16.25.23.38l.09.19v0c.05.14.1.29.14.43s0,.15.05.22a.1.1,0,0,0,0,.07V42c0,.66,0,1.31,0,2v2.28a1.18,1.18,0,0,0,.5.93,1.2,1.2,0,0,0,.68.25,1.1,1.1,0,0,0,.72-.28,1.16,1.16,0,0,0,.46-.9c0-.14,0-.27,0-.41s0-.11,0-.14a1.74,1.74,0,0,1,0-.22c0-.14.09-.29.14-.43h0v0c0-.08.08-.17.13-.25a3.62,3.62,0,0,1,.27-.41h0a2.09,2.09,0,0,1,.14-.17l.32-.3.11-.08.18-.12.39-.22h0l.21-.08a3.89,3.89,0,0,1,.49-.12l.08,0,.23,0H41l.15,0,.15,0a3.6,3.6,0,0,1,.44.12l.15.06.17.09.38.22.07.06a.58.58,0,0,1,.12.1c.11.09.22.2.32.3l.14.17c-.14-.17.07.1.08.11s.16.25.23.38l.09.2v0c.05.14.1.28.14.43s0,.14,0,.22a.25.25,0,0,1,0,.07.23.23,0,0,0,0,.07c0,.65,0,1.31,0,2v2.28a1,1,0,0,0,.69,1.06,1.18,1.18,0,0,0,.49.12,1.17,1.17,0,0,0,.9-.45,1,1,0,0,0,.16-.24.36.36,0,0,0,0-.11,1.42,1.42,0,0,0,.08-.38c.13-3.19,4.76-3.84,5.5-.64a17.86,17.86,0,0,1,.07,3.8C51.62,56.76,51.73,60.28,51.55,63.76Z"/></svg>